<svg xmlns="http://www.w3.org/2000/svg" viewBox="0 0 300 300">
  <g fill="#FF269E" fill-rule="evenodd">
    <path d="M300.891,0.82 C300.891,0.572 300.309,0.371 299.591,0.371 L0.905,0.158 C0.539,0.158 0.243,0.455 0.243,0.82 L0.03,299.279 C0.03,299.762 0.422,300.153 0.905,300.153 L299.591,300.366 C300.192,300.366 300.678,299.88 300.678,299.279 L300.891,0.82 Z M1.567,1.482 L1.779,298.404 L298.503,298.192 L298.291,1.27 L1.567,1.482 L1.567,1.482 Z"/>
    <path d="M107.448 77.383C106.85 80.605 106.698 83.528 107.001 86.409 107.304 89.284 108.061 92.116 109.267 95.16 109.333 95.327 109.523 95.409 109.69 95.342 109.857 95.276 109.939 95.087 109.873 94.919 108.688 91.936 107.947 89.159 107.642 86.341 107.336 83.518 107.466 80.652 108.037 77.491 108.066 77.328 107.959 77.172 107.796 77.143 107.634 77.113 107.478 77.221 107.448 77.383M176.722 76.864C177.505 79.411 177.956 82.146 178.01 84.882 178.063 87.61 177.721 90.34 176.898 92.886 176.837 93.076 176.942 93.279 177.131 93.34 177.321 93.401 177.524 93.296 177.585 93.106 178.416 90.482 178.76 87.672 178.684 84.866 178.609 82.071 178.117 79.281 177.293 76.686 177.244 76.528 177.076 76.44 176.919 76.489 176.761 76.539 176.673 76.706 176.722 76.864M169.875 16.067C171.536 14.889 173.436 13.887 175.455 13.161 177.43 12.451 179.519 12.005 181.612 11.921 181.763 11.915 181.881 11.788 181.875 11.637 181.869 11.486 181.742 11.369 181.591 11.374 179.441 11.451 177.292 11.897 175.261 12.618 173.187 13.354 171.236 14.376 169.529 15.579 169.395 15.674 169.363 15.861 169.458 15.996 169.553 16.131 169.74 16.163 169.875 16.067M194.6 75.808C196.498 78.257 198.114 81.018 199.328 83.737 200.758 86.942 201.632 90.087 201.766 92.583 201.774 92.729 201.898 92.841 202.043 92.833 202.189 92.825 202.301 92.701 202.293 92.556 202.162 90.006 201.277 86.793 199.828 83.515 198.607 80.751 196.987 77.939 195.074 75.443 194.973 75.312 194.785 75.287 194.654 75.388 194.523 75.489 194.499 75.677 194.6 75.808M167.027 151.144C168.006 152.73 168.549 154.396 168.683 156.063 168.823 157.793 168.523 159.524 167.793 161.168 167.73 161.309 167.793 161.474 167.933 161.537 168.074 161.6 168.239 161.538 168.302 161.397 169.087 159.668 169.425 157.842 169.285 156.016 169.149 154.258 168.57 152.5 167.535 150.83 167.449 150.689 167.264 150.646 167.124 150.733 166.983 150.819 166.94 151.004 167.027 151.144M121.45 154.175C120.821 155.229 120.469 156.326 120.396 157.434 120.322 158.562 120.538 159.698 121 160.804 121.063 160.959 121.239 161.033 121.393 160.97 121.548 160.907 121.622 160.73 121.559 160.576 121.151 159.555 120.983 158.512 121.05 157.477 121.116 156.462 121.407 155.452 121.967 154.477 122.05 154.334 122.002 154.151 121.86 154.068 121.717 153.984 121.534 154.032 121.45 154.175M186.693 121.379C184.084 125.075 181.728 128.963 178.933 132.48 177.085 134.806 175.046 136.97 172.603 138.802 172.484 138.891 172.46 139.059 172.548 139.177 172.637 139.296 172.805 139.32 172.924 139.232 175.414 137.383 177.5 135.197 179.385 132.84 182.197 129.323 184.56 125.425 187.181 121.724 187.277 121.589 187.245 121.402 187.11 121.307 186.975 121.212 186.788 121.244 186.693 121.379M105.504 130.245C107.057 131.994 108.445 133.873 109.991 135.618 110.659 136.372 111.362 137.095 112.105 137.785 112.214 137.888 112.387 137.884 112.491 137.775 112.594 137.666 112.59 137.494 112.481 137.39 111.77 136.693 111.11 135.954 110.463 135.206 108.936 133.441 107.512 131.59 105.95 129.847 105.84 129.724 105.651 129.713 105.528 129.823 105.405 129.933 105.394 130.122 105.504 130.245M174.302 67.854C176.47 69.919 178.957 71.561 181.646 72.771 184.33 73.978 187.213 74.753 190.161 75.122 190.318 75.142 190.463 75.031 190.483 74.873 190.503 74.716 190.391 74.571 190.234 74.551 187.348 74.172 184.533 73.384 181.904 72.198 179.28 71.013 176.839 69.43 174.714 67.42 174.594 67.307 174.405 67.311 174.291 67.431 174.178 67.551 174.182 67.74 174.302 67.854"/>
    <path d="M189.184,118.368 C187.727,120.428 186.311,122.716 185.255,125.121 C184.542,126.746 183.993,128.424 183.706,130.123 C183.539,131.112 183.451,132.102 183.408,133.093 C183.308,135.382 183.446,137.676 183.364,139.979 C183.269,142.599 182.905,145.484 182.202,148.266 C181.498,151.049 180.455,153.728 179.002,155.932 C177.91,157.587 176.651,159.114 175.31,160.576 C172.166,164.004 168.566,167.076 165.545,170.574 C163.689,172.724 161.926,175.296 159.94,177.574 C158.619,179.09 157.2,180.475 155.584,181.509 C153.732,182.694 151.63,183.292 149.446,183.543 C146.151,183.922 142.67,183.514 139.556,183.108 C138.264,182.94 136.903,182.772 135.613,182.416 C134.767,182.182 133.952,181.867 133.211,181.413 C131.822,180.56 130.665,179.528 129.616,178.401 C128.007,176.672 126.65,174.719 125.117,172.825 C122.216,169.257 119.041,165.696 116.31,161.875 C114.495,159.336 112.875,156.682 111.667,153.834 C110.965,152.177 110.512,150.445 110.181,148.676 C109.402,144.519 109.287,140.158 108.259,136.072 C107.844,134.428 107.298,132.843 106.682,131.287 C105.763,128.967 104.69,126.71 103.672,124.412 C102.459,121.677 101.406,118.874 100.223,116.127 C99.926,115.437 99.614,114.754 99.297,114.073 C99.222,113.906 99.027,113.832 98.86,113.907 C98.694,113.981 98.619,114.177 98.694,114.343 L103,124.709 C104.012,126.999 105.08,129.248 105.993,131.559 C106.596,133.086 107.132,134.641 107.538,136.254 C108.564,140.325 108.677,144.67 109.455,148.812 C109.797,150.634 110.265,152.416 110.989,154.121 C112.22,157.019 113.867,159.719 115.717,162.3 C118.461,166.13 121.652,169.698 124.567,173.273 C126.121,175.17 127.499,177.127 129.127,178.858 C130.222,180.023 131.428,181.086 132.873,181.966 C133.666,182.451 134.536,182.789 135.441,183.039 C136.76,183.402 138.152,183.575 139.473,183.746 C142.636,184.156 146.172,184.562 149.518,184.175 C151.799,183.912 153.992,183.28 155.925,182.042 C157.183,181.235 158.327,180.224 159.398,179.103 C161.811,176.578 163.851,173.492 166.016,170.981 C169.03,167.485 172.624,164.415 175.758,160.987 C177.119,159.499 178.393,157.943 179.499,156.259 C180.983,154 182.048,151.257 182.765,148.408 C183.474,145.585 183.843,142.658 183.937,139.999 C184.02,137.698 183.883,135.406 183.984,133.118 C184.027,132.151 184.112,131.185 184.276,130.22 C184.627,128.159 185.374,126.13 186.331,124.195 C187.292,122.251 188.465,120.402 189.665,118.708 C189.759,118.576 189.727,118.392 189.595,118.298 C189.462,118.204 189.278,118.235 189.184,118.368"/>
    <path d="M127.395 158.025C127.623 158.14 127.809 158.284 127.972 158.442 128.255 158.719 128.469 159.04 128.698 159.348L129.941 160.794C130.541 161.428 131.291 162.004 132.113 162.515 132.883 162.994 133.717 163.416 134.551 163.775 135.329 164.11 136.228 164.33 137.165 164.478 138.495 164.686 139.903 164.747 141.143 164.786 141.846 164.809 142.542 164.828 143.239 164.827038 143.706 164.825 144.175 164.814 144.646 164.788 147.768 164.615 151.323 163.862 154.1 162.421 155.814 161.531 157.245 160.387 158.093 158.955 158.209 158.759 158.322 158.561 158.403 158.349 158.485 158.135 158.535 157.916 158.582 157.691 158.629 157.553 158.556 157.403 158.418 157.355 158.281 157.308 158.13 157.381 158.083 157.519 157.991 157.705 157.878 157.873 157.775 158.053 157.676 158.229 157.583 158.408 157.475 158.581 156.662 159.889 155.351 160.949 153.765 161.776 151.075 163.179 147.633 163.927 144.607 164.11 144.147 164.138 143.691 164.15 143.235 164.154 142.546 164.159 141.858 164.142 141.162 164.123 139.947 164.09 138.567 164.039 137.264 163.84 136.381 163.706 135.534 163.504 134.8 163.192 133.994 162.849 133.186 162.445 132.44 161.986 131.663 161.507 130.953 160.968 130.384 160.372L129.183 158.985C128.934 158.654 128.698 158.31 128.391 158.011 128.186 157.813 127.951 157.635 127.663 157.491 127.516 157.417 127.336 157.476 127.262 157.624 127.188 157.771 127.248 157.951 127.395 158.025M132.713 138.824C132.286 137.641 132.274 136.319 132.652 135.135 133.027 133.957 133.79 132.916 134.918 132.293 135.064 132.212 135.117 132.029 135.037 131.883 134.956 131.737 134.772 131.684 134.626 131.764 133.359 132.465 132.5 133.63 132.079 134.952 131.663 136.26 131.678 137.721 132.151 139.028 132.207 139.183 132.378 139.263 132.533 139.207 132.689 139.151 132.769 138.98 132.713 138.824M152.635 141.03C153.995 139.694 154.791 138.033 154.757 136.473 154.723 134.888 153.85 133.395 151.85 132.443 151.705 132.373 151.531 132.434 151.461 132.579 151.391 132.724 151.452 132.898 151.597 132.968 153.336 133.814 154.105 135.103 154.133 136.486 154.161 137.896 153.438 139.391 152.214 140.605 152.097 140.72 152.096 140.91 152.212 141.027 152.328 141.145 152.517 141.146 152.635 141.03M138.845 141.55C139.227 141.906 139.708 142.397 140.206 142.806 140.576 143.11 140.957 143.367 141.317 143.506 142.09 143.805 142.933 143.735 143.743 143.443 144.872 143.036 145.933 142.2 146.636 141.469 146.744 141.358 146.741 141.18 146.631 141.072 146.52 140.964 146.342 140.966 146.234 141.077 145.575 141.743 144.583 142.497 143.537 142.867 142.867 143.104 142.174 143.186 141.534 142.941 141.226 142.823 140.904 142.598 140.587 142.34 140.098 141.941 139.627 141.459 139.253 141.112 139.132 140.999 138.942 141.006 138.83 141.127 138.717 141.248 138.724 141.437 138.845 141.55"/>
    <path d="M151.83 132.104C150.432 129.549 149.429 126.527 148.929 123.43 148.43 120.339 148.431 117.171 149.07 114.311 149.108 114.141 149.001 113.972 148.831 113.934 148.661 113.896 148.492 114.003 148.454 114.173 147.795 117.108 147.779 120.361 148.297 123.533 148.814 126.7 149.864 129.785 151.306 132.392 151.385 132.537 151.567 132.59 151.712 132.51 151.856 132.431 151.909 132.249 151.83 132.104M127.46 158.058C129.229 157.537 131.162 156.824 133.183 156.379 134.447 156.101 135.746 155.929 137.06 155.98 138.727 156.037 140.209 156.629 141.781 156.853 142.192 156.911 142.61 156.945 143.037 156.941 143.495 156.937 143.94 156.895 144.376 156.831 146.075 156.586 147.647 155.981 149.447 155.917 150.677 155.87 151.864 156.022 153.019 156.257 154.862 156.631 156.627 157.223 158.347 157.649 158.527 157.695 158.709 157.586 158.755 157.406 158.8 157.226 158.691 157.043 158.511 156.998 156.784 156.554 155.016 155.933 153.163 155.553 151.953 155.304 150.707 155.161 149.418 155.216 147.593 155.298 146.005 155.933 144.282 156.185 143.875 156.245 143.46 156.28 143.033 156.281 142.639 156.283 142.255 156.248 141.876 156.193 140.281 155.96 138.775 155.368 137.084 155.308 135.713 155.266 134.359 155.455 133.043 155.755 131.011 156.218 129.068 156.948 127.289 157.484 127.131 157.531 127.041 157.698 127.088 157.856 127.135 158.014 127.302 158.105 127.46 158.058M127.274 60.281C121.939 59.082 118.3 56.407 116.203 52.721 114.121 49.06 113.556 44.41 114.355 39.228 114.378 39.08 114.276 38.941 114.128 38.917 113.98 38.894 113.841 38.996 113.818 39.144 112.974 44.467 113.546 49.251 115.679 53.018 117.845 56.842 121.614 59.624 127.143 60.865 127.304 60.901 127.464 60.8 127.5 60.639 127.536 60.478 127.435 60.318 127.274 60.281M165.147 60.012C161.313 61.94 157.342 61.976 153.689 60.751 150.055 59.532 146.729 57.068 144.17 53.918 144.07 53.795 143.889 53.776 143.766 53.876 143.643 53.975 143.624 54.156 143.723 54.279 146.338 57.536 149.744 60.105 153.483 61.363 157.287 62.643 161.43 62.57 165.417 60.546 165.564 60.471 165.623 60.291 165.549 60.144 165.475 59.997 165.294 59.938 165.147 60.012M128.138 70.525C124.165 70.337 120.008 69.561 116.19 68.061 112.379 66.564 108.897 64.341 106.312 61.138 106.217 61.019 106.043 60.999 105.924 61.094 105.805 61.189 105.786 61.363 105.881 61.482 108.496 64.801 112.026 67.164 115.935 68.708 119.818 70.242 124.068 70.963 128.112 71.122 128.277 71.129 128.417 71.001 128.424 70.836 128.431 70.671 128.303 70.532 128.138 70.525M193.097 124.487C193.204 125.673 193.216 126.857 193.198 128.041 193.155 130.838 192.911 133.635 193.051 136.438 193.181 139.034 193.554 141.46 194.155 143.83 194.755 146.198 195.582 148.509 196.586 150.884 196.656 151.05 196.847 151.128 197.014 151.059 197.18 150.989 197.258 150.798 197.189 150.631 196.216 148.281 195.429 145.994 194.843 143.656 194.261 141.328 193.878 138.95 193.745 136.403 193.598 133.614 193.86 130.831 193.87 128.047 193.875 126.84 193.826 125.634 193.692 124.427 193.675 124.263 193.528 124.143 193.364 124.16 193.2 124.176 193.08 124.323 193.097 124.487M106.671 134.199C106.89 135.101 107.064 136.013 107.216 136.928 107.823 140.583 107.899 144.329 107.395 148.02 106.77 152.597 105.296 157.084 103.049 161.177 102.647 161.904 102.204 162.612 101.734 163.308 100.424 165.248 98.892 167.081 97.525 169.004 96.93 169.841 96.375 170.7 95.862 171.577 95.783 171.708 95.824 171.879 95.955 171.959 96.086 172.038 96.258 171.997 96.337 171.866 96.806 171.127 97.32 170.413 97.839 169.697 99.05 168.028 100.336 166.386 101.529 164.708 102.276 163.657 102.98 162.587 103.589 161.474 105.881 157.317 107.384 152.759 108.031 148.108 108.553 144.35 108.546 140.527 107.882 136.813 107.716 135.883 107.499 134.962 107.25 134.049 107.209 133.889 107.045 133.793 106.885 133.834 106.726 133.876 106.629 134.039 106.671 134.199M118.002 164.745C116.868 164.888 115.815 165.305 114.824 165.889 112.642 167.172 110.755 169.234 108.721 170.46 106.929 171.541 104.921 172.071 102.868 172.233 100.792 172.397 98.669 172.186 96.672 171.752 96.507 171.715 96.342 171.82 96.305 171.985 96.268 172.151 96.373 172.315 96.538 172.352 98.592 172.822 100.779 173.072 102.92 172.917 105.081 172.76 107.194 172.192 109.08 171.058 111.115 169.834 113.025 167.811 115.186 166.494 116.094 165.94 117.043 165.503 118.086 165.338 118.249 165.314 118.363 165.163 118.34 164.999 118.316 164.836 118.165 164.722 118.002 164.745M186.887 156.018C188.016 158.593 188.949 161.337 190.257 163.848 191.144 165.553 192.208 167.145 193.579 168.525 193.683 168.632 193.854 168.634 193.96 168.53 194.067 168.426 194.069 168.255 193.965 168.149 192.659 166.787 191.675 165.213 190.825 163.555 189.539 161.047 188.57 158.334 187.434 155.776 187.367 155.625 187.191 155.557 187.04 155.623 186.889 155.69 186.82 155.867 186.887 156.018"/>
    <path d="M186.645 155.839C185.904 159.594 185.388 163.372 185.532 167.084 185.629 169.604 186.03 172.094 186.867 174.525 186.917 174.671 187.075 174.748 187.22 174.698 187.366 174.648 187.443 174.49 187.393 174.345 186.375 171.368 186.025 168.303 186.088 165.202 186.15 162.137 186.615 159.038 187.232 155.955 187.264 155.793 187.159 155.636 186.997 155.604 186.835 155.572 186.677 155.677 186.645 155.839M193.073 137.468C192.667 143.097 192.004 148.799 192.264 154.403 192.439 158.177 193.035 161.905 194.379 165.536 194.433 165.684 194.596 165.759 194.744 165.705 194.891 165.651 194.966 165.488 194.912 165.341 193.609 161.761 193.057 158.089 192.891 154.375 192.643 148.794 193.276 143.116 193.67 137.51 193.681 137.346 193.557 137.202 193.393 137.191 193.228 137.179 193.085 137.303 193.073 137.468M173.836 96.756C175.835 97.806 177.565 99.343 178.915 101.156 180.267 102.972 181.24 105.07 181.655 107.283 181.687 107.455 181.853 107.57 182.025 107.538 182.198 107.506 182.312 107.341 182.28 107.168 181.865 104.852 180.887 102.636 179.47 100.742 178.057 98.855 176.21 97.291 174.11 96.225 173.963 96.149 173.783 96.207 173.707 96.353 173.631 96.5 173.689 96.681 173.836 96.756M105.716 108.945C105.897 106.463 106.288 103.991 107.538 102.048 108.334 100.81 109.482 99.792 111.148 99.128 111.299 99.068 111.372 98.897 111.312 98.747 111.252 98.596 111.082 98.523 110.931 98.583 109.136 99.296 107.9 100.395 107.041 101.728 105.738 103.749 105.31 106.318 105.119 108.901 105.107 109.066 105.231 109.209 105.396 109.221 105.56 109.233 105.704 109.109 105.716 108.945M97.538 73.287C101.554 73.411 105.161 73.471 108.663 72.709 110.984 72.204 113.257 71.339 115.574 69.907 115.701 69.829 115.741 69.663 115.663 69.536 115.585 69.409 115.419 69.37 115.292 69.447 113.025 70.828 110.803 71.65 108.54 72.134 105.079 72.872 101.521 72.815 97.556 72.689 97.391 72.684 97.253 72.814 97.2478605 72.979 97.243 73.144 97.373 73.282 97.538 73.287M131.167 24.644C131.202 20.855 131.791 17.138 133.037 13.675 134.284 10.212 136.187 7.004 138.832 4.229 138.933 4.123 138.929 3.956 138.823 3.855 138.718 3.754 138.55 3.758 138.449 3.863 135.748 6.69 133.807 9.961 132.525 13.49 131.247 17.008 130.623 20.784 130.568978 24.637 130.567 24.802 130.7 24.937 130.865 24.9390224 131.03 24.941 131.166 24.809 131.167 24.644M151.794 19.767C153.231 16.113 155.543 12.977 158.518 10.631 161.441 8.325 165.001 6.784 168.983 6.245 169.131 6.225 169.236 6.088 169.215 5.939 169.195 5.79 169.058 5.686 168.91 5.706 164.827 6.256 161.18 7.842 158.178 10.199 155.12 12.599 152.728 15.803 151.238 19.547 151.177 19.701 151.253 19.875 151.406 19.935 151.56 19.996 151.734 19.921 151.794 19.767M146.172 16.442C147.21 13.654 148.574 10.937 150.352 8.564 152.129 6.193 154.319 4.166 157.009 2.756 157.14 2.687 157.191 2.525 157.123 2.394 157.054 2.262 156.892 2.211 156.76 2.28 153.993 3.721 151.737 5.797 149.903 8.227 148.084 10.638 146.681 13.397 145.612 16.232 145.554 16.386 145.633 16.559 145.787 16.617 145.942 16.675 146.115 16.596 146.172 16.442M173.368 59.791C175.534 57.001 177.965 54.505 180.734 52.519 183.501 50.533 186.605 49.056 190.111 48.304 190.259 48.272 190.354 48.126 190.322 47.978 190.291 47.829 190.145 47.735 189.996 47.766 186.41 48.528 183.235 50.031 180.401 52.055 177.584 54.067 175.104 56.595 172.896 59.424 172.795 59.554 172.818 59.742 172.949 59.844 173.079 59.945 173.267 59.921 173.368 59.791M187.069 35.451C188.037 34.271 189.046 33.253 190.135 32.431 191.293 31.556 192.541 30.904 193.935 30.529 194.079 30.491 194.164 30.343 194.126 30.2 194.088 30.056 193.941 29.97 193.797 30.008 192.33 30.388 191.009 31.056 189.786 31.966 188.657 32.807 187.612 33.857 186.607 35.071 186.502 35.198 186.521 35.387 186.648 35.492 186.775 35.597 186.964 35.579 187.069 35.451M195.263 46.753C196.861 45.596 198.619 44.581 200.48 43.977 202.328 43.378 204.279 43.185 206.272 43.664 206.412 43.698 206.554 43.611 206.588 43.47 206.623 43.33 206.536 43.188 206.395 43.154 204.726 42.743 203.083 42.781 201.498 43.127 199.137 43.643 196.906 44.846 194.914 46.267 194.78 46.363 194.75 46.55 194.846 46.684 194.942 46.819 195.129 46.849 195.263 46.753"/>
    <path d="M131.397,23.449 C130.274,20.907 129.095,18.657 127.644,16.62 C126.182,14.567 124.443,12.73 122.2,11.033 C122.082,10.943 121.913,10.966 121.823,11.085 C121.733,11.203 121.756,11.372 121.875,11.462 C124.064,13.13 125.762,14.931 127.185,16.945 C128.607,18.957 129.754,21.181 130.849,23.69 C130.915,23.841 131.092,23.91 131.243,23.843 C131.394,23.777 131.463,23.6 131.397,23.449"/>
    <path d="M131.466 24.696C130.624 19.915 129.662 15.089 128.03 10.528 126.936 7.472 125.541 4.536 123.688 1.807 123.606 1.685 123.44 1.653 123.318 1.735 123.196 1.817 123.164 1.983 123.246 2.105 125.061 4.803 126.419 7.706 127.488 10.721 129.096 15.256 130.048 20.049 130.877 24.799 130.905 24.962 131.06 25.07 131.223 25.042 131.386 25.013 131.494 24.858 131.466 24.696M187.307 85.146C187.824 87.93 188.585 90.687 189.565 93.364 190.544 96.041 191.742 98.637 193.123 101.105 193.195 101.234 193.359 101.281 193.488 101.209 193.618 101.137 193.664 100.973 193.592 100.844 192.237 98.395 191.067 95.819 190.107 93.167 189.148 90.517 188.399 87.791 187.895 85.037 187.865 84.875 187.709 84.767 187.547 84.797 187.384 84.827 187.277 84.983 187.307 85.146M189.895 99.331C190.801 101.598 191.404 104.486 191.534 107.451 191.657 110.268 191.353 113.156 190.466 115.646 190.417 115.783 190.489 115.935 190.626 115.984 190.763 116.033 190.914 115.961 190.963 115.824 191.884 113.275 192.214 110.316 192.1 107.428 191.98 104.392 191.37 101.434 190.451 99.11 190.39 98.957 190.216 98.882 190.063 98.943 189.909 99.004 189.834 99.178 189.895 99.331M114.553 27.987C114.366 24.361 113.209 21.052 111.116 18.587 109.039 16.14 106.044 14.521 102.174 14.235 102.024 14.223 101.893 14.335 101.882 14.485 101.87 14.635 101.983 14.767 102.133 14.778 105.828 15.073 108.678 16.634 110.656 18.977 112.662 21.353 113.774 24.531 113.956 28.018 113.964 28.183 114.105 28.31 114.27 28.302 114.435 28.293 114.561 28.152 114.553 27.987M102.184 59.086C96.302 57.586 92.392 53.547 90.457 48.573 88.527 43.615 88.553 37.727 90.557 32.473 90.611 32.333 90.54 32.174 90.399 32.12 90.258 32.066 90.1 32.137 90.046 32.278 87.974 37.66 87.928 43.701 89.899 48.79 91.893 53.94 95.949 58.113 102.036 59.665 102.196 59.706 102.359 59.61 102.4 59.45 102.441 59.29 102.344 59.127 102.184 59.086M189.479 82.042C192.115 82.812 194.514 84.411 196.547 86.413 198.588 88.422 200.264 90.837 201.426 93.255 201.49 93.39 201.652 93.447 201.786 93.383 201.921 93.318 201.978 93.157 201.914 93.023 200.74 90.541 199.046 88.054 196.964 85.991 194.866 83.912 192.375 82.267 189.647 81.468 189.489 81.422 189.322 81.513 189.276 81.671 189.23 81.83 189.321 81.996 189.479 82.042M199.486 109.723C200.109 110.618 200.345 111.501 200.365 112.399 200.413 114.547 199.309 116.759 199.288 119.352 199.286 119.501 199.406 119.623 199.555 119.624006 199.704 119.625 199.826 119.505 199.827 119.356 199.851 116.758 200.941 114.542 200.913 112.389 200.899 111.387 200.658 110.396 199.98 109.385 199.887 109.249 199.701 109.214 199.565 109.307 199.429 109.4 199.393 109.586 199.486 109.723M137.514 51.585C135.654 50.499 133.766 49.533 131.826 48.683 129.887 47.835 127.897 47.103 125.839 46.469 125.696 46.424 125.543 46.504 125.498 46.647 125.453 46.791 125.534 46.944 125.677 46.988 127.71 47.631 129.672 48.375 131.588 49.223 133.504 50.071 135.374 51.024 137.212 52.101 137.355 52.184 137.538 52.136 137.622 51.994 137.705 51.851 137.657 51.668 137.514 51.585"/>
    <path d="M137.49 51.209C133.373 46.679 129.285 41.835 126.49 36.405 124.634 32.8 123.345 28.937 123.016 24.724 123.005 24.572 122.872 24.458 122.72 24.469 122.568 24.481 122.454 24.614 122.465 24.766 122.781 29.059 124.067 33.006 125.95 36.682 128.759 42.164 132.893 47.044 137.047 51.611 137.158 51.733 137.348 51.742 137.47 51.631 137.592 51.52 137.601 51.331 137.49 51.209M127.665 158.412C130.12 158.246 132.307 157.294 134.622 156.824 135.185 156.71 135.756 156.627 136.34 156.591 137.047 156.548 137.71 156.638 138.354 156.786 139.974 157.158 141.481 157.877 143.217 157.936 143.989 157.96 144.712 157.861 145.412 157.702 147.009 157.34 148.479 156.656 150.17 156.562 150.939 156.519 151.681 156.578 152.411 156.685 154.201 156.947 155.919 157.492 157.765 157.61 157.953 157.622 158.116 157.479 158.129 157.291 158.141 157.102 157.998 156.939 157.809 156.927 155.983 156.806 154.284 156.259 152.512 155.997 151.737 155.882 150.948 155.821 150.131 155.866 148.4 155.963 146.891 156.65 145.258 157.026 144.613 157.175 143.948 157.273 143.237 157.254 141.546 157.213 140.074 156.512 138.493 156.166 137.791 156.012 137.068 155.924 136.3 155.978 133.886 156.141 131.703 157.103 129.345 157.585 128.783 157.699 128.212 157.785 127.625 157.825 127.462 157.836 127.34 157.976 127.351 158.138 127.362 158.301 127.503 158.423 127.665 158.412"/>
    <path d="M129.242 158.573C132.582 159.079 135.981 159.971 139.39 160.476 140.874 160.695 142.359 160.839 143.842 160.853 145.746 160.868 147.578 160.677 149.371 160.347 152.085 159.849 154.708 159.041 157.37 158.239 157.545 158.186 157.645 158.002 157.593 157.827 157.541 157.652 157.356 157.552 157.181 157.604 154.538 158.379 151.931 159.147 149.241 159.634 147.49 159.952 145.705 160.153 143.847 160.143 142.396 160.137 140.942 159.999 139.488 159.795 136.077 159.316 132.671 158.464 129.327 157.991 129.167 157.967 129.017 158.078 128.993 158.239 128.97 158.4 129.081 158.55 129.242 158.573M146.271 141.598C146.363 141.536 146.461 141.48 146.555 141.409 147.276 140.87 148.117 140.171 149.035 139.748 149.705 139.438 150.398 139.246 151.068 139.35 151.228 139.379 151.38 139.271 151.408 139.111 151.436 138.952 151.329 138.799 151.169 138.771 150.386 138.619 149.555 138.786 148.759 139.135 147.775 139.567 146.81 140.233 146.119 140.895 146.032 140.979 145.959 141.07 145.883 141.155 145.761 141.262 145.749 141.448 145.855 141.57 145.962 141.692 146.149 141.705 146.271 141.598M139.727 141.592C139.241 140.753 138.649 140.064 137.927 139.564 137.197 139.057 136.337 138.749 135.354 138.63 135.155 138.606 134.974 138.747 134.949 138.946 134.925 139.145 135.067 139.327 135.266 139.351 136.126 139.457 136.868 139.744 137.518 140.17 138.177 140.601 138.749 141.174 139.226 141.901 139.312 142.04 139.493 142.083 139.632 141.997 139.77 141.912 139.813 141.73 139.727 141.592M184.09 132.784C186.66 131.99 188.909 130.729 190.642 128.978 192.378 127.223 193.594 124.977 194.112 122.23 194.148 122.038 194.021 121.852 193.828 121.816 193.636 121.78 193.45 121.907 193.414 122.1 192.933 124.701 191.784 126.825 190.154 128.499 188.506 130.193 186.368 131.43 183.913 132.222 183.758 132.271 183.672 132.437 183.721 132.592 183.77 132.747 183.936 132.833 184.09 132.784M148.976 114.854C150.168 112.523 151.821 110.396 153.805 108.656 155.782 106.923 158.088 105.574 160.608 104.812 163.548 103.922 166.745 104.002 169.737 104.845 172.724 105.686 175.509 107.289 177.625 109.483 177.779 109.642 178.032 109.646 178.191 109.493 178.35 109.339 178.355 109.086 178.201 108.927 175.987 106.635 173.077 104.95 169.95 104.082 166.815 103.211 163.466 103.162 160.394 104.113 157.782 104.921 155.39 106.329 153.354 108.146 151.325 109.957 149.651 112.173 148.45 114.589 148.377 114.734 148.436 114.911 148.581 114.984 148.726 115.058 148.903 114.999 148.976 114.854M135.522 111.483C132.508 106.797 127.501 104.556 122.409 104.541929 117.823 104.529 113.134 106.289 109.854 109.718 109.675 109.905 109.495 110.091 109.338 110.298 109.18 110.506 109.051 110.728 108.915 110.952 108.819 111.071 108.838 111.245 108.956 111.34 109.075 111.436 109.249 111.417 109.344 111.299 109.527 111.125 109.72 110.972 109.9 110.798 110.078 110.627 110.244 110.444 110.417 110.27 113.626 107.063 118.026 105.319 122.409 105.302 127.282 105.282 132.094 107.353 135.028 111.805 135.117 111.941 135.3 111.98 135.436 111.891 135.572 111.802 135.611 111.62 135.522 111.483M113.652 114.898C114.124 115.134 114.592 115.35 115.064 115.529 117.11 116.304 119.14 116.563 121.162 116.471 123.614 116.36 126.07 115.689 128.605 114.613 128.76 114.548 128.833 114.369 128.768 114.214 128.703 114.06 128.524 113.987 128.37 114.052 125.901 115.076 123.513 115.704 121.133 115.8 119.197 115.878 117.275 115.575 115.295 114.89 114.835 114.731 114.368 114.563 113.899 114.363 113.751 114.295 113.576 114.359 113.508 114.507 113.44 114.654 113.504 114.83 113.652 114.898"/>
    <path d="M157.69 113.423C160.188 115.058 162.919 116.063 165.66 116.192 168.167 116.309 170.727 115.77 173.018 114.218 173.252 114.059 173.473 113.878 173.696 113.694 173.826 113.601 173.856 113.421 173.763 113.292 173.671 113.163 173.491 113.133 173.362 113.225 173.126 113.371 172.885 113.497 172.651 113.632 170.388 114.942 168.061 115.565 165.691 115.468 163.062 115.36 160.429 114.457 158.008 112.927 157.872 112.839 157.689 112.879 157.601 113.016 157.513 113.152 157.553 113.335 157.69 113.423M105.706 127.845C105.739 127.714 105.79 127.604 105.808 127.472 105.824 127.349 105.808 127.225 105.81 127.102 105.848 124.774 106.381 122.65 107.237 120.646 108.101 118.624 109.309 116.735 110.631 114.857 110.717 114.734 110.813 114.617 110.888 114.487 110.94 114.396 110.973 114.303 111.018 114.208 111.132 114.054 111.099 113.837 110.945 113.723 110.792 113.61 110.574 113.642 110.461 113.796 110.37 113.883 110.277 113.96 110.194 114.054 110.072 114.191 109.971 114.345 109.863 114.492 108.183 116.788 106.78 119.177 105.909 121.761 105.329 123.483 104.978 125.298 104.997 127.248 104.998 127.33 104.99 127.414 105.003 127.496 105.025 127.628 105.076 127.737 105.118 127.865 105.123 128.027 105.259 128.154 105.422 128.149143 105.584 128.144 105.712 128.007 105.706 127.845M106.765 130.586C109.018 127.879 111.967 125.457 115.225 123.57 118.477 121.687 122.036 120.338 125.516 119.767 125.716 119.734 125.851 119.544 125.818 119.344 125.784 119.145 125.594 119.01 125.395 119.043 121.84 119.653 118.21 121.059 114.897 123.007 111.587 124.952 108.593 127.437 106.311 130.211 106.207 130.336 106.225 130.522 106.35 130.625 106.475 130.729 106.661 130.711 106.765 130.586"/>
    <path d="M115.959,159.626 C115.922,159.167 115.909,158.712 115.873,158.257 C115.546,154.067 115.597,150.004 116.218,145.983 C116.908,141.518 118.14,137.118 119.671,132.722 C120.471,130.422 121.313,128.059 122.301,125.765 C123.086,123.945 123.982,122.179 124.986,120.501 C125.138,120.247 125.299,120 125.442,119.743 C125.539,119.568 125.618,119.389 125.71,119.212 C125.816,119.056 125.776,118.843 125.62,118.736 C125.465,118.63 125.252,118.67 125.145,118.826 C124.892,119.142 124.636,119.454 124.407,119.79 C123.507,121.114 122.802,122.576 122.119,124.047 C120.849,126.783 119.823,129.657 118.857,132.44 C117.315,136.887 116.068,141.338 115.387,145.857 C114.77,149.949 114.485,154.113 115.108,158.343 C115.176,158.802 115.278,159.253 115.376,159.711 C115.399,159.872 115.549,159.983 115.71,159.96 C115.87,159.937 115.982,159.787 115.959,159.626"/>
    <path d="M116.164 160.451C116.196 160.062 116.245 159.677 116.283 159.292 116.632 155.751 117.471 152.375 118.885 149.212 120.458 145.695 122.637 142.432 125.204 139.47 127.262 137.096 129.613 134.984 131.781 132.708 132.721 131.72 133.628 130.701 134.462 129.617 135.677 128.041 136.726 126.365 137.7 124.642 139.943 120.67 141.776 116.449 144.315 112.66 146.447 109.481 149.117 106.496 152.079 103.825 154.738 101.428 157.649 99.312 160.582 97.479 160.85 97.311 161.131 97.165 161.382 96.977 161.448 96.928 161.501 96.87 161.562 96.816 161.742 96.71 161.803 96.478 161.698 96.297 161.592 96.116 161.36 96.055 161.179 96.161 161.101 96.187 161.024 96.206 160.948 96.24 160.658 96.371 160.392 96.554 160.117 96.719 157.106 98.528 154.19 100.74 151.495 103.179 148.485 105.903 145.773 108.947 143.609 112.188 141.064 115.999 139.227 120.242 136.981 124.237 136.03 125.928 135.004 127.574 133.817 129.121 133.002 130.184 132.116 131.183 131.196 132.152 129.025 134.442 126.669 136.567 124.608 138.954 121.996 141.98 119.777 145.309 118.186 148.901 116.749 152.146 115.737 155.6 115.576 159.241 115.558 159.637 115.567 160.034 115.575 160.433 115.57 160.595 115.698 160.731 115.861 160.736142 116.023 160.741 116.159 160.613 116.164 160.451M136.742 109.853C138.905 106.805 141.092 103.762 143.416 100.827 144.959 98.877 146.561 96.973 148.268 95.156 151.838 91.349 155.62 87.678 159.214 83.861 160.762 82.216 162.276 80.544 163.724 78.824 164.456 77.954 165.148 77.048 165.821 76.127 166.822 74.757 167.782 73.352 168.771 71.981 169.657 70.749 170.693 69.604 171.557 68.347 171.936 67.795 172.268 67.217 172.57 66.622 172.65 66.481 172.601 66.302 172.461 66.222 172.32 66.143 172.141 66.192 172.061 66.332 171.781 66.764 171.466 67.168 171.158 67.581 170.952 67.857 170.754 68.138 170.546 68.413 169.751 69.458 168.902 70.469 168.14 71.527 167.154 72.898 166.197 74.302 165.198 75.672 164.536 76.58 163.856 77.473 163.136 78.33 161.7 80.042 160.197 81.704 158.66 83.341 155.072 87.163 151.297 90.842 147.733 94.655 146.018 96.493 144.404 98.413 142.861 100.39 140.551 103.351 138.398 106.434 136.26 109.515 136.166 109.648 136.199 109.832 136.332 109.925 136.465 110.018 136.648 109.986 136.742 109.853M117.972 101.024C119.411 98.658 121.054 96.432 122.583 94.127 123.243 93.133 123.879 92.122 124.474 91.084 124.791 90.53 125.085 89.963 125.367 89.388 126.013 88.072 126.6 86.719 127.29 85.429 128.064 83.977 128.863 82.548 129.68 81.131 130.663 79.425 131.703 77.757 132.711 76.066 132.964 75.643 133.202 75.212 133.45 74.786 133.542 74.64 133.499 74.447 133.353 74.355 133.207 74.262 133.014 74.305 132.921 74.451 132.685 74.79 132.444 75.123 132.217 75.467 131.311 76.843 130.479 78.265 129.643 79.684 128.601 81.454 127.596 83.249 126.625 85.075 125.935 86.375 125.348 87.737 124.703 89.064 124.43 89.626 124.146 90.181 123.84 90.722 123.452 91.406 123.043 92.077 122.626 92.742 120.941 95.426 119.076 97.988 117.466 100.722 117.383 100.862 117.429 101.042 117.568 101.126 117.707 101.209 117.888 101.164 117.972 101.024M181.379 150.942C181.171 152.752 181.043 154.577 180.954 156.406 180.82 159.138 180.772 161.879 180.675 164.598 180.574 167.425 180.419 170.323 180.782 173.131 181.028 175.027 181.509 176.883 182.393 178.65 184.17 182.204 186.982 184.866 190.25 187.037 195.029 190.213 200.786 192.333 205.633 194.699 209.779 196.722 213.6 199.444 217.639 201.691 219.399 202.671 221.199 203.561 223.084 204.269 224.251 204.707 225.438 205.048 226.638 205.329 231.358 206.432 236.282 206.583 240.936 208.099 243.268 208.859 245.432 209.887 247.505 211.073 250.646 212.87 253.577 215.029 256.554 217.187 258.154 218.347 259.827 219.391 261.43 220.537 262.107 221.021 262.771 221.522 263.411 222.059 265.482 223.794 267.066 226.183 268.376 228.808 270.33 232.722 271.672 237.161 273.05 240.821 274.633 245.025 276.756 249.116 278.335 253.366 279.006 255.171 279.577 257.006 279.964 258.891 280.904 263.471 281.215 268.109 281.229 272.764 281.251 279.785 280.599 286.842 280.394 293.795 280.387 294.032 280.573 294.23 280.809 294.237191 281.046 294.244 281.243 294.058 281.25 293.821 281.465 286.859 282.127 279.793 282.115161 272.762 282.107 268.048 281.797 263.35 280.851 258.709 280.457 256.778 279.875 254.898 279.19 253.049 277.615 248.796 275.495 244.702 273.916 240.496 272.531 236.807 271.18 232.334 269.215 228.39 267.847 225.644 266.18 223.154 264.015 221.338 263.356 220.786 262.673 220.27 261.977 219.772 260.375 218.627 258.704 217.584 257.106 216.425 254.101 214.249 251.141 212.07 247.969 210.261 245.84 209.047 243.615 207.999 241.22 207.224 236.538 205.71 231.588 205.56 226.84 204.463 225.675 204.194 224.523 203.867 223.391 203.446 221.545 202.76 219.78 201.894 218.055 200.94 213.997 198.698 210.155 195.982 205.99 193.966 201.162 191.631 195.428 189.55 190.666 186.409 187.498 184.32 184.763 181.76 183.033 178.328 182.18 176.637 181.717 174.858 181.475 173.04 181.105 170.27 181.246 167.41 181.331 164.62 181.414 161.903 181.447 159.164 181.567 156.434 181.647 154.618 181.766 152.806 181.964 151.007 181.982 150.846 181.865 150.7 181.704 150.682 181.542 150.664 181.397 150.78 181.379 150.942M116.826 164.773C116.836 164.773 116.851 164.771 116.872 164.766 116.848 164.605 116.958 164.455 117.119 164.43 117.279 164.406 117.43 164.516 117.454 164.677 117.485 164.695 117.492 164.682 117.512 164.711 117.583 164.816 117.55 164.962 117.569 165.089 117.755 166.347 117.908 167.624 117.97 168.903 118.04 170.338 117.994 171.774 117.754 173.19 117.078 177.183 115.321 180.65 112.933 183.684 109.38 188.196 104.425 191.747 99.572 194.642 98.021 195.567 96.441 196.442 94.845 197.289 91.135 199.256 87.337 201.072 83.618 203.009 81.233 204.251 78.96 205.714 76.557 206.909 75.512 207.429 74.444 207.898 73.331 208.279 66.81 210.514 59.779 212.016 53.29 214.6 49.001 216.307 44.95 218.488 41.449 221.683 39.041 223.88 36.788 226.313 34.826 228.957 32.872 231.592 31.207 234.437 29.967 237.468 29.562 238.46 29.204 239.467 28.876 240.484 27.547 244.602 26.694 248.88 25.147 252.928 23.518 257.191 21.485 261.509 20.028 265.948 19.063 268.889 18.351 271.884 18.188 274.952 17.772 282.757 19.996 290.415 20.317 298.212 20.397 300.176 20.314 302.144 20.091 304.121 20.077 304.299 19.921 304.431 19.743 304.418018 19.566 304.402 19.433 304.246 19.448 304.069 19.498 302.901 19.474 301.743 19.434 300.586 19.394 299.424 19.328 298.266 19.232 297.109 18.782 291.657 17.704 286.253 17.306 280.817 17.161328 278.851 17.111 276.88 17.22 274.9 17.394 271.747 18.127 268.671 19.124 265.65 20.594 261.199 22.64 256.87 24.282 252.596 25.83 248.566 26.685 244.305 28.016 240.206 28.353 239.168 28.72 238.139 29.136 237.128 30.41 234.03 32.116 231.123 34.12 228.432 36.119 225.746 38.414 223.275 40.867 221.044 44.452 217.785 48.593 215.556 52.98 213.818 59.486 211.241 66.533 209.746 73.072 207.519 74.151 207.151 75.188 206.697 76.202 206.195 78.603 205.005 80.874 203.549 83.256 202.313 86.976 200.383 90.776 198.574 94.487 196.614 96.074 195.775 97.644 194.909 99.185 193.993 103.969 191.151 108.858 187.671 112.364 183.235 114.684 180.298 116.397 176.941 117.059 173.072 117.246 171.98 117.312 170.875 117.297 169.769 117.278 168.264 117.111 166.755 116.896 165.273 116.874 165.123 116.852 164.973 116.829 164.823 116.827 164.809 116.814 164.791 116.822 164.779L116.826 164.773"/>
    <path d="M117.267 168.065C117.259 168.162 117.244 168.256 117.242 168.353 117.235 168.733 117.278 169.114 117.29 169.497 117.419 173.71 117.008 178.063 116.01 182.268 115.013 186.465 113.418 190.507 111.209 194.124 110.986 194.489 110.707 194.822 110.525 195.208 110.503 195.255 110.497 195.301 110.481 195.35 110.378 195.505 110.418 195.714 110.573 195.818 110.727 195.922 110.936 195.881 111.04 195.727 111.081 195.693 111.121 195.669 111.157 195.629 111.45 195.306 111.641 194.902 111.87 194.53 114.14 190.856 115.733 186.719 116.734 182.438 117.732 178.168 118.129 173.748 117.972 169.474 117.958 169.086 117.966 168.697 117.915 168.315 117.902 168.217 117.875 168.124 117.855 168.028 117.845 167.865 117.705 167.742 117.542 167.752 117.38 167.763 117.257 167.903 117.267 168.065M198.195 218.345C198.162 218.366 198.128 218.384 198.089 218.399 197.892 218.476 197.677 218.497 197.473 218.55 194.791 219.247 192.262 220.502 189.634 221.407 188.882 221.666 188.122 221.896 187.349 222.078 185.775 222.449 184.003 222.326 182.417 222.725 181.798 222.881 181.209 223.122 180.68 223.528L180.006 224.189C179.561 224.76 179.467 225.344 179.53 225.933 179.645 226.991 180.2 228.063 180.43 229.131 180.612 229.978 180.619 230.839 180.45 231.661 180.279 232.489 179.929 233.278 179.396 233.977 179.119 234.34 178.777 234.65 178.396 234.907 178.028 235.156 177.625 235.355 177.214 235.507 176.904 235.621 176.58 235.711 176.25 235.768 175.914 235.828 175.572 235.854 175.235 235.839 174.957 235.827 174.681 235.79 174.412 235.726 174.14 235.661 173.875 235.568 173.62 235.446 173.432 235.356 173.25 235.252 173.077 235.134 172.902 235.015 172.737 234.882 172.584 234.737 171.813 234.004 171.524 233.174 171.463 232.293 171.399 231.379 171.599 230.405 171.706 229.441 171.798 228.609 171.823 227.782 171.422 227.026 171.134 226.483 170.635 226.179 170.11 225.909 169.461 225.576 168.767 225.297 168.222 224.865 167.694 224.447 167.291 223.899 167.144 223.075 167.02 222.375 167.204 221.682 167.577 221.021 168.273 219.789 169.664 218.669 170.457 217.852 171.423 216.857 172.452 215.888 173.607 215.124 174.399 214.599 175.251 214.171 176.179 213.887 177.378 213.527 178.6 213.444 179.826 213.512 181.586 213.61 183.355 214.02 185.067 214.3 186.031 214.458 187.013 214.531 187.995 214.537 188.984 214.543 189.975 214.482 190.95 214.371 192.364 214.21 193.802 213.99 195.24 213.902 196.222 213.841 197.203 213.841 198.177 213.959 198.731 214.029 199.407 214.154 199.991 214.413 200.425 214.605 200.81 214.869 201.078 215.224 201.197 215.385 201.253 215.567 201.246 215.76 201.237 216.058 201.076 216.39 200.941 216.619 200.707 217.016 200.366 217.323 199.972 217.57 199.439 217.904 198.811 218.133 198.261 218.329 198.239 218.337 198.217 218.342 198.195 218.345zM198.586 217.57C198.942 217.425 199.305 217.258 199.622 217.039 199.912 216.838 200.156 216.589 200.313 216.277 200.361 216.183 200.415 216.066 200.454 215.944 200.481 215.858 200.52 215.767 200.465 215.7 200.268 215.453 199.983 215.284 199.673 215.155 199.158 214.942 198.565 214.851 198.079 214.801 197.157 214.7 196.228 214.712 195.299 214.78 193.878 214.884 192.458 215.12 191.061 215.296 190.05 215.424 189.022 215.5 187.995 215.506 186.961 215.512 185.927 215.446 184.911 215.292 183.231 215.036 181.496 214.653 179.772 214.573 178.67 214.522 177.571 214.597 176.496 214.929 175.669 215.181 174.912 215.565 174.205 216.03 173.111 216.748 172.136 217.659 171.218 218.595 170.568 219.257 169.489 220.12 168.776 221.089 168.355 221.662 168.053 222.267 168.161 222.896 168.254 223.433 168.516 223.79 168.859 224.064 169.352 224.457 169.987 224.701 170.575 225.004 171.286 225.37 171.933 225.814 172.322 226.548 172.822 227.491 172.834 228.516 172.719 229.553 172.62 230.455 172.421 231.366 172.481 232.222 172.526 232.861 172.729 233.465 173.288 233.997 173.4 234.104 173.523 234.202 173.651 234.289 173.782 234.378 173.92 234.457 174.061 234.525 174.25 234.615 174.448 234.684 174.65 234.732 174.855 234.781 175.066 234.809 175.278 234.818 175.542 234.829 175.81 234.808 176.073 234.762 176.342 234.714 176.607 234.64 176.86 234.547 177.195 234.424 177.524 234.262 177.823 234.06 178.111 233.865 178.373 233.632 178.582 233.356 179.02 232.783 179.307 232.135 179.447 231.455 179.588 230.77 179.58 230.053 179.428 229.346 179.191 228.244 178.629 227.135 178.51 226.044 178.419 225.204 178.561 224.373 179.196 223.558 179.32 223.398 179.456 223.247 179.601 223.105 179.744 222.965 179.896 222.834 180.054 222.712 180.697 222.217 181.412 221.917 182.166 221.726 183.756 221.325 185.533 221.446 187.112 221.073 190.117 220.363 192.908 218.892 195.841 217.945 196.523 217.725 197.198 217.412 197.914 217.384 198.004 217.381 198.077 217.404 198.166 217.417 198.329 217.384 198.489 217.448 198.586 217.57L198.586 217.57zM245.494 281.896C245.418 283.236 245.486 284.633 245.324 285.979 245.22 286.842 245.022 287.685 244.6 288.473 244.122 289.368 243.491 290.173 242.79 290.926 241.72 292.077 240.489 293.107 239.371 294.139 238.169 295.249 237.025 296.426 236.074 297.744 235.436 298.628 234.888 299.576 234.451 300.597 234.38 300.758 234.454 300.947 234.615 301.018 234.777 301.089 234.966 301.015 235.037 300.854 235.58 299.641 236.301 298.548 237.12 297.531 237.947 296.505 238.874 295.554 239.848 294.655 240.977 293.61 242.221 292.566 243.301 291.401 244.042 290.602 244.705 289.746 245.209 288.798 245.669 287.93 245.898 287.006 246 286.057 246.147 284.693 246.035 283.279 246.082 281.923 246.089 281.761 245.963 281.623 245.801 281.615 245.639 281.608 245.501 281.734 245.494 281.896M64.605 303.172C64.613 303.13 64.627 303.099 64.6260508 303.057 64.622 302.914 64.56 302.779 64.526 302.64 64.131 301.065 63.584 299.541 62.857 298.114 62.044 296.518 61.002 295.045 59.693 293.753 57.841 291.932 55.469 290.27 53.783 288.216 52.904 287.145 52.268 285.954 51.912 284.58 51.827 284.253 51.732 283.925 51.678 283.574 51.664 283.372 51.49 283.22 51.289 283.233 51.087 283.247 50.935 283.422 50.948 283.623 50.941 284.018 50.952 284.4 51.013 284.77 51.272 286.322 52.08 287.63 53.057 288.813 54.77 290.89 57.201 292.542 59.097 294.367 60.359 295.578 61.366 296.968 62.164 298.474 62.888 299.841 63.44 301.303 63.854 302.816 63.891 302.95 63.901 303.094 63.962 303.219 63.98 303.256 64.007 303.276 64.032 303.309 64.07 303.467 64.23 303.565 64.388 303.527 64.546 303.489 64.643 303.33 64.605 303.172M173.133 59.835C173.075 53.315 174.034 46.601 176.398 40.534 178.754 34.486 182.509 29.077 188.095 25.169 188.266 25.049 188.308 24.813 188.188 24.643 188.068 24.472 187.832 24.43 187.661 24.55 181.959 28.557 178.112 34.082 175.729 40.275 173.361 46.43 172.443 53.24 172.544 59.842 172.546 60.004 172.679 60.135 172.842 60.1330226 173.004 60.131 173.134 59.997 173.133 59.835M165.382 61.01C163.89 54.634 163.693 48.63 164.992 43.04 166.181 37.924 168.694 33.216 172.459 28.769 172.845 28.313 173.231 27.849 173.64 27.394 173.771 27.256 173.765 27.037 173.627 26.906 173.489 26.774 173.27 26.78 173.139 26.918 172.698 27.358 172.265 27.795 171.861 28.25 167.903 32.7 165.514 37.652 164.329 42.888 163.043 48.576 163.26 54.675 164.809 61.146 164.846 61.304 165.005 61.402 165.163 61.364 165.321 61.327 165.419 61.168 165.382 61.01"/>
    <path d="M163.943,59.379 C161.352,49.332 160.337,38.044 163.081,28.118 C164.741,22.112 167.855,16.689 172.695,12.185 C173.202,11.713 173.712,11.236 174.253,10.779 C174.382,10.677 174.404,10.489 174.302,10.359 C174.2,10.23 174.012,10.208 173.883,10.31 C173.301,10.739 172.733,11.172 172.201,11.636 C167.109,16.075 164.083,21.79 162.403,27.931 C159.656,37.972 160.717,49.381 163.373,59.527 C163.414,59.684 163.575,59.779 163.732,59.738 C163.89,59.697 163.984,59.536 163.943,59.379"/>
    <path d="M164.028,59.067 C161.461,55.977 159.28,52.669 157.513,49.159 C156.095,46.341 154.969,43.385 154.082,40.316 C153.863,39.557 153.648,38.796 153.457,38.023 C153.423,37.871 153.272,37.776 153.12,37.811 C152.968,37.845 152.873,37.996 152.907,38.148 C153.072,38.937 153.248,39.719 153.456,40.491 C154.3,43.617 155.492,46.599 156.937,49.45 C158.734,52.997 160.964,56.33 163.576,59.445 C163.68,59.569 163.866,59.586 163.991,59.482 C164.116,59.378 164.132,59.192 164.028,59.067"/>
    <path d="M165.415 60.67C162.276 58.446 159.288 55.859 156.58 53.007 153.876 50.158 151.45 47.045 149.452 43.745 149.372 43.612 149.198 43.569 149.065 43.649 148.931 43.729 148.888 43.903 148.969 44.036 150.976 47.379 153.41 50.542 156.141 53.424 158.873 56.307 161.901 58.909 165.075 61.151 165.208 61.245 165.392 61.213 165.486 61.081 165.58 60.948 165.548 60.764 165.415 60.67M163.748 61.559C160.094 62.993 156.03 63.377 152.021 62.968 148.013 62.559 144.059 61.359 140.617 59.601 140.476 59.529 140.302 59.585 140.23 59.726 140.158 59.868 140.214 60.041 140.355 60.114 143.855 61.911 147.879 63.147 151.959 63.567 156.064 63.989 160.225 63.585 163.966 62.115 164.12 62.055 164.196 61.881 164.136 61.728 164.075 61.574 163.901 61.498 163.748 61.559M182.933 62.452C186.214 59.728 190.813 55.878 195.587 54.069 198.847 52.834 202.188 52.553 205.23 54.291 205.361 54.365 205.527 54.32 205.602 54.189 205.677 54.059 205.632 53.892 205.501 53.817 202.314 51.989 198.81 52.254 195.388 53.542 190.551 55.364 185.88 59.241 182.552 61.992 182.425 62.097 182.407 62.286 182.512 62.413 182.618 62.54 182.806 62.557 182.933 62.452M184.044 64.595C186.938 65.587 190.005 65.961 193.001 65.668 195.996 65.376 198.921 64.418 201.536 62.764 201.668 62.68 201.708 62.505 201.625 62.372 201.541 62.239 201.366 62.2 201.233 62.283 198.69 63.878 195.849 64.79 192.943 65.069 190.03 65.349 187.051 64.992 184.238 64.029 184.082 63.976 183.912 64.059 183.858 64.215 183.805 64.371 183.888 64.542 184.044 64.595M101.051 164.757C100.579 165.567 99.75 166.563 99.225 167.554 98.966 168.041 98.778 168.529 98.73 168.999 98.662 169.594 98.853 170.077 99.201 170.42 99.532 170.746 100.013 170.941 100.556 170.979 101.073 171.018 101.593 170.943 102.099 170.795 102.828 170.581 103.527 170.213 104.14 169.823 105.072 169.229 105.88 168.506 106.621 167.716 107.713 166.552 108.66 165.241 109.649 163.986 110.336 163.114 111.101 162.2 112.004 161.491 112.586 161.034 113.227 160.664 113.942 160.453 114.133 160.396 114.242 160.194 114.185 160.003 114.127 159.811 113.925 159.702 113.734 159.76 112.934 160.003 112.217 160.422 111.568 160.942 110.63 161.693 109.832 162.654 109.12 163.572 108.152 164.82 107.228 166.125 106.157 167.283 105.456 168.04 104.692 168.734 103.808 169.306 103.336 169.61 102.809 169.903 102.255 170.109 101.719 170.307 101.158 170.424 100.6 170.384 100.211 170.353 99.867 170.215 99.627 169.983 99.396 169.76 99.265 169.447 99.297 169.055 99.334 168.651 99.494 168.232 99.716 167.815 100.239 166.831 101.088 165.86 101.566 165.061 101.65 164.919 101.602 164.736 101.46 164.652 101.318 164.568 101.134 164.615 101.051 164.757"/>
    <path d="M198.03885,103.905197 C199.186086,104.330635 200.235929,104.390542 201.126282,104.018633 C201.381088,103.912198 201.673932,104.032476 201.780367,104.287282 C201.886802,104.542088 201.766524,104.834932 201.511718,104.941367 C200.531586,105.350778 199.444698,105.358789 198.302884,105.041587 C198.042406,106.533879 197.109483,107.613714 195.792403,107.915365 C197.070382,109.017978 197.528346,110.236468 197.208028,111.838023 C198.168769,111.518468 199.059071,110.891238 199.595623,110.064744 C199.745986,109.833129 200.05564,109.767261 200.287256,109.917623 C200.518871,110.067986 200.584739,110.37764 200.434377,110.609256 C199.069643,112.711462 195.938175,113.754335 193.814666,112.601541 C192.757983,112.028572 192.18851,111.291948 191.405695,109.775332 C191.279039,109.529949 191.375285,109.228352 191.620668,109.101695 C191.866051,108.975039 192.167648,109.071285 192.294305,109.316668 C192.992327,110.669008 193.456978,111.270042 194.291551,111.722576 C194.829672,112.014707 195.469382,112.117875 196.124602,112.064619 C196.586407,110.447193 196.193339,109.43076 194.744953,108.355457 C194.610762,108.255832 194.540828,108.101785 194.543019,107.94653 C194.353393,107.864317 194.227612,107.666726 194.245698,107.44783 C194.268436,107.172625 194.509966,106.96796 194.78517,106.990698 C196.182397,107.106138 197.167677,106.179799 197.34852,104.663776 C197.354532,104.613375 197.367845,104.565623 197.387276,104.521454 C197.355781,104.420732 197.356223,104.307944 197.396197,104.20015 C197.492211,103.941238 197.779937,103.809182 198.03885,103.905197 Z" fill-rule="nonzero"/>
    <path d="M62.0985549,279.237627 C64.5505692,281.421583 65.8534119,284.199103 67.0391767,288.816564 L67.3361273,290.015211 L67.8025135,291.967048 C68.1130923,293.251003 68.3309493,294.074591 68.5835303,294.888022 L68.6474727,295.091429 C69.1994955,296.826745 69.9970695,298.179221 71.7387218,300.540095 L72.6422945,301.749393 C72.8077628,301.97047 72.7626835,302.283826 72.5416069,302.449295 C72.3205304,302.614763 72.0071738,302.569683 71.8417055,302.348607 L71.4150987,301.779975 C69.3579794,299.038651 68.4159261,297.544021 67.7733541,295.635439 L67.6945334,295.39459 C67.4052144,294.485226 67.1729852,293.617686 66.8318542,292.207588 L66.1869575,289.525817 C65.0133822,284.806551 63.7771508,282.07186 61.4334827,279.984406 C58.6352808,277.492614 56.0047691,278.742249 53.3386686,282.647657 L52.8063303,283.450185 C52.6963027,283.613703 52.5785337,283.784416 52.4446231,283.975003 L51.4694136,285.345869 C50.2058996,287.15088 49.676322,288.170212 49.4113288,289.498866 C48.995913,291.580192 49.3151895,293.617058 50.3818697,297.042208 L51.2150571,299.659695 C51.8980754,301.85633 52.1752134,303.045846 52.3078802,304.482008 C52.333281,304.756979 52.1309638,305.000479 51.8559922,305.02588 C51.5810205,305.051281 51.3375205,304.848964 51.3121198,304.573992 L51.2723125,304.192114 C51.1178417,302.867991 50.7962209,301.636393 50.0515684,299.293807 L49.555318,297.746795 C48.3391007,293.923437 47.9561234,291.680726 48.4306574,289.303204 C48.7441469,287.731393 49.3612286,286.588364 50.8409975,284.501602 L51.6241896,283.40324 C51.7546837,283.217542 51.8689846,283.051893 51.9752511,282.894008 L52.1794891,282.584951 C55.2419966,277.862434 58.5644724,276.090536 62.0985549,279.237627 Z M249.080261,278.064926 C251.548111,280.433996 253.442947,284.026357 253.470964,286.410041 C253.50017,288.860549 252.88001,290.590245 251.078095,293.981789 L250.773818,294.550267 C248.750803,298.319162 248.128438,300.20545 248.493289,302.844526 C248.531106,303.118067 248.340014,303.370472 248.066474,303.408289 C247.792933,303.446106 247.540528,303.255014 247.502711,302.981474 C247.113423,300.165637 247.731242,298.159936 249.685752,294.465622 L250.370104,293.181051 C251.958991,290.153794 252.496712,288.576337 252.471035,286.421877 C252.446543,284.338252 250.677559,280.984489 248.387739,278.786324 C245.800795,276.302927 243.241626,275.799193 241.303239,277.789805 C239.788461,279.345549 238.855384,281.450316 238.015284,284.7249 L237.799692,285.597229 L237.143356,288.429121 C237.022085,288.939388 236.9176,289.355895 236.810025,289.754306 L236.755889,289.952354 C236.133085,292.202927 235.293854,294.157467 233.749212,297.163046 L232.187944,300.154029 C232.060903,300.399213 231.759154,300.494986 231.513971,300.367944 C231.268787,300.240903 231.173014,299.939154 231.300056,299.693971 L232.423878,297.546537 C234.222636,294.105702 235.136528,292.054672 235.792108,289.685657 L235.897149,289.296532 C236.019164,288.833198 236.142254,288.325922 236.297232,287.657061 L236.827336,285.363723 C236.865551,285.204047 236.90272,285.051072 236.939898,284.900558 L237.159851,284.043996 C238.012736,280.85459 238.991745,278.730348 240.586779,277.092177 C242.988152,274.626105 246.14543,275.247569 249.080261,278.064926 Z M136.577896,0.45503741 L137.413895,0.629073272 C137.473114,0.639876442 137.519469,0.646820516 137.56638,0.652352195 L137.613974,0.657503693 C137.762019,0.672374989 137.907427,0.681751841 138.077747,0.687308209 L138.650195,0.694238091 L139.013702,0.694135589 C139.605744,0.69592596 139.915921,0.71140852 140.300455,0.767277534 L140.541808,0.80598959 C140.780167,0.847846969 141.02366,0.901863982 141.399287,0.992553605 L141.657904,1.05555671 C142.512517,1.2645809 142.930654,1.34122821 143.421871,1.35109744 L143.735839,1.35148012 C144.357769,1.34003515 144.96738,1.2530474 145.991512,1.04946082 L147.148354,0.814195008 C148.572451,0.532605719 149.310951,0.453491243 150.230002,0.521371028 C150.922251,0.572741063 151.487154,0.71583337 152.460768,1.06039792 L153.679155,1.50210357 C153.908383,1.58258568 154.079966,1.63822171 154.260731,1.69101239 L154.370827,1.72252136 C154.906272,1.87246049 155.415061,1.96672983 156.235394,2.07946048 L157.419937,2.238379 C157.956244,2.31430075 158.312767,2.37664021 158.695976,2.46379903 L158.841334,2.497722 C159.201872,2.58397501 159.501581,2.68663571 159.956516,2.87517598 L160.976113,3.30811004 C161.285949,3.43408809 161.506733,3.5106524 161.740107,3.57209645 L161.858314,3.60171722 C162.315148,3.71098772 162.768653,3.76773857 163.440942,3.81037525 L164.496135,3.86860086 C165.251658,3.91437493 165.675162,3.96472259 166.185741,4.07774605 C167.286844,4.32072157 168.342031,4.87957151 169.456697,5.72842566 C169.553199,5.71175133 169.655906,5.72540009 169.751026,5.77201368 L170.098116,5.93400442 C170.737462,6.217225 171.414387,6.43290091 172.475287,6.71548792 L173.810962,7.06813776 C174.770948,7.32979416 175.330678,7.51672699 175.979387,7.79991159 C176.399046,7.98348818 176.702425,8.19365569 177.136072,8.5839264 L177.536192,8.95720979 C178.062243,9.45836451 178.322157,9.66645537 178.671108,9.82828805 L178.876072,9.91673217 C179.050193,9.98619518 179.241669,10.0482916 179.518436,10.1272803 L179.928817,10.2406589 C180.992374,10.5287989 181.483517,10.7167018 182.018146,11.132461 C182.891688,11.8125082 183.114754,12.4730483 183.164361,13.8374042 L183.18496,14.52603 L183.188695,14.5960231 C183.206956,14.9151447 183.24326,15.1691476 183.308953,15.4013082 C183.336576,15.4985004 183.385168,15.5769737 183.494779,15.6891791 L183.733755,15.9109299 C183.885161,16.0466502 183.980165,16.1397646 184.076609,16.2553065 C184.201478,16.4046727 184.297835,16.5381543 184.423775,16.7356189 L184.830988,17.3941724 C184.905274,17.5093153 184.964264,17.5923507 185.033367,17.6803536 C185.325467,18.0526318 185.667604,18.2551315 186.405386,18.5113193 L187.279447,18.7998881 C188.095174,19.0811203 188.511801,19.3109047 188.934145,19.7624316 C189.526876,20.3960759 189.709627,21.0022296 189.841116,22.296567 L189.875176,22.6556163 C189.963692,23.6140123 190.062538,24.0747299 190.323341,24.5080773 C190.672876,25.0885623 191.063105,25.4313067 191.923938,25.95044 L192.795421,26.4602934 C193.442401,26.8462645 193.794255,27.1064026 194.17512,27.5001024 C194.652145,27.9925157 194.863047,28.4505794 195.129142,29.3922058 L195.310206,30.0425341 C195.399238,30.3449548 195.472399,30.5448278 195.569626,30.7473528 C195.696564,31.0113833 195.844593,31.2196984 196.121563,31.5273184 L196.709676,32.1552632 C196.817498,32.2730319 196.903531,32.3723826 196.986197,32.4754585 L197.068424,32.5805962 C197.200508,32.7536108 197.303904,32.9043493 197.459027,33.1487825 L197.638808,33.4358858 C198.004895,34.0255145 198.199879,34.3044449 198.447858,34.5495327 L198.594954,34.686933 L198.705396,34.7851997 C199.01748,35.0581333 199.755465,35.6770214 199.899491,35.8042985 C201.244047,36.9924953 201.722688,38.0253114 201.342092,39.6698777 C201.322743,39.7533732 201.299763,39.8340633 201.272841,39.9130981 C201.418844,39.9455882 201.548628,40.0450649 201.615507,40.1928121 C201.70023,40.3799808 201.810173,40.5317206 202.042808,40.7808905 L202.274529,41.0214237 C202.919465,41.6767136 203.171454,42.0231095 203.286081,42.6209826 C203.342727,42.916862 203.304238,43.2218302 203.19501,43.5617919 C203.140865,43.7303139 203.076038,43.8907126 202.976039,44.1156872 L202.866286,44.3615957 C202.829343,44.4456409 202.802309,44.5105264 202.780906,44.5672495 L202.584684,45.1084491 C202.259436,46.0485228 202.122035,46.7193885 202.14179,47.4095202 C202.166054,48.2470042 202.257253,48.9424641 202.490367,50.1363181 L202.74244,51.3742314 C203.232834,53.7520274 203.366068,55.0729788 203.123277,56.6654334 C202.897063,58.1477039 202.492325,59.3698914 201.609401,61.4820629 L200.879662,63.2164803 C200.739742,63.5560898 200.631486,63.828973 200.517212,64.1290826 C199.993141,65.5040155 199.861569,66.9867903 199.98367,69.0986758 L200.037898,69.8863548 L200.209449,71.9166427 L200.245913,72.4233874 C200.293308,73.1608407 200.30906,73.8226071 200.309592,74.7637382 L200.307582,76.4918756 C200.309782,76.7105524 200.314205,76.8899979 200.321652,77.0873408 C200.37083,78.4042217 200.566441,79.4023868 201.041613,80.5131353 C202.806321,84.6331376 203.027025,87.57833 202.403624,91.2670035 L202.138,92.721 L202.280836,92.9797154 C203.068033,94.4319219 203.576776,95.6264058 203.896309,96.7935253 L204.065708,97.4737955 C204.565523,99.6236404 204.492676,100.718006 203.716525,108.500684 C203.374624,111.924402 202.442224,114.519844 200.174393,119.193478 L199.138457,121.317987 C197.745577,124.206504 197.081798,125.819893 196.510197,127.845828 C195.802402,130.353323 195.748631,132.846405 196.148788,136.566879 L196.28894,137.782207 L196.557433,139.961383 L196.980194,143.59801 C197.323411,146.652598 197.654229,149.860313 198.050009,153.918402 L198.492767,158.521802 C198.531981,158.935365 198.605272,159.290709 198.788986,159.939874 L199.224379,161.415638 C199.249158,161.502437 199.272059,161.584589 199.29512,161.669286 C199.720015,163.22983 199.783976,164.337357 199.343153,165.372601 L198.858817,166.548474 C197.93849,168.734758 196.912057,169.49617 194.36123,169.277167 C194.198878,169.263229 194.061333,169.173184 193.980704,169.045174 L193.464921,168.771366 C193.378071,168.724325 193.282502,168.67233 193.176426,168.614494 L192.81416,168.426146 C192.703723,168.370754 192.601633,168.321857 192.501977,168.276773 C192.207046,168.143346 191.952346,168.053759 191.73562,168.008866 L191.687,168 L191.532049,168.546895 C191.173195,169.664213 190.802826,170.634782 190.382822,171.521143 C189.026058,174.383782 186.807138,176.32173 184.467198,175.31221 C183.738274,174.998231 183.106027,174.462327 182.298124,173.566812 L181.108147,172.209734 C180.920518,172.007127 180.932659,171.690777 181.135266,171.503147 C181.337873,171.315518 181.654223,171.327659 181.841853,171.530266 L182.844044,172.675871 C183.660281,173.606252 184.249556,174.129637 184.863068,174.393904 C186.513699,175.106035 188.328211,173.521287 189.479161,171.092895 C189.821312,170.370831 190.131179,169.583747 190.430981,168.694064 L190.58253,168.231186 L190.741691,167.675647 L190.807712,167.475795 C190.81807,167.446886 190.828139,167.420152 190.837971,167.395561 C190.859198,167.342468 190.879914,167.297394 190.904295,167.255244 C191.002072,167.086203 191.092732,166.988481 191.337693,166.977693 C191.803397,166.953156 192.309201,167.091989 192.914159,167.365671 C193.08122,167.441249 193.250622,167.524509 193.444595,167.625361 L194.366419,168.118141 C194.476722,168.175039 194.563499,168.217424 194.645613,168.254686 C194.674388,168.267743 194.701327,168.283187 194.726305,168.300676 C196.583375,168.411237 197.208135,167.892305 197.93715,166.160493 L198.42297,164.981112 C198.753662,164.204503 198.701079,163.293985 198.330245,161.931996 L198.182579,161.414842 L197.873209,160.374818 C197.637004,159.558153 197.546991,159.140966 197.497246,158.616344 L196.881146,152.248357 C196.503546,148.43399 196.179341,145.365479 195.831288,142.346483 L195.464227,139.261456 L195.210054,137.173174 C194.738086,133.058374 194.765665,130.345037 195.547787,127.57423 L195.697684,127.059021 C196.282246,125.111664 196.997759,123.437855 198.412879,120.521535 L199.045003,119.228141 C200.742848,115.760414 201.714471,113.460698 202.255614,111.203398 L202.284921,111.207211 C202.009214,111.191703 201.798281,110.955628 201.813789,110.679921 C201.935853,108.509773 201.773645,106.557489 201.272633,104.822734 C201.238894,104.705915 201.249668,104.586792 201.294946,104.483503 C200.746409,103.326827 199.600491,102.621242 198.517877,103.020163 C198.258765,103.11564 197.971315,102.982988 197.875837,102.723877 C197.78036,102.464765 197.913012,102.177315 198.172123,102.081837 L198.282022,102.044941 C198.237464,101.873088 198.286054,101.682873 198.425028,101.553297 C199.320729,100.71817 199.928011,100.252069 200.613354,100.006853 C200.070146,99.3984306 199.27186,99.0381985 198.421364,99.0188869 L198.359748,99.0219942 L197.901469,99.101023 C197.459657,99.181197 197.210314,99.1958277 196.953256,99.090187 C196.545465,98.9218924 196.531521,98.4970951 196.747273,98.2314086 C196.790062,98.1787166 196.822859,98.1465928 196.884666,98.0958251 L197.012412,97.9945881 C197.181847,97.786143 197.338428,97.5882292 197.487289,97.3953647 C197.992631,96.7410914 198.373402,96.0962447 198.626379,95.4393769 C198.915271,94.6888977 199.008641,93.7898528 198.948795,92.6600063 L198.928707,92.3460823 C198.907496,92.0613859 198.880549,91.7861804 198.842035,91.4599224 L198.578591,89.4448145 C198.545556,89.1706552 198.741026,88.9216253 199.015185,88.8885907 C199.289345,88.855556 199.538375,89.0510262 199.571409,89.3251855 L199.782386,90.9175476 C199.852355,91.4592089 199.894765,91.8532999 199.925943,92.2717857 C200.031247,93.6852116 199.93749,94.8170041 199.559593,95.7986971 C199.310474,96.4455469 198.959507,97.0720563 198.511109,97.6951591 L198.263,98.026 C198.310056,98.0212007 198.346844,98.0192737 198.384839,98.0188041 L198.44335,98.0191288 C199.665282,98.0468737 200.812156,98.6093753 201.540803,99.5597842 C201.64917,99.7011319 201.670397,99.8818791 201.613009,100.037481 C201.663629,100.099036 201.700829,100.1745 201.717543,100.259216 C201.770996,100.530135 201.594704,100.793091 201.323784,100.846543 C200.742102,100.961309 200.248068,101.265566 199.503815,101.92341 C200.957999,102.105567 202.197801,103.419816 202.535716,105.060114 C202.563968,105.19725 202.533138,105.332833 202.460621,105.440445 C202.619897,106.166313 202.728944,106.922973 202.790798,107.709804 L203.121424,104.281808 C203.504968,100.075776 203.448789,99.1739367 203.036358,97.4674657 L203.007687,97.3498203 C202.747524,96.2904454 202.320234,95.2121046 201.640023,93.9047216 C201.582686,93.9170995 201.523662,93.9206644 201.463464,93.9131988 C201.18942,93.8792132 200.994816,93.6295066 201.028801,93.3554635 C201.04823,93.1987983 201.072044,93.0356561 201.101951,92.8526014 L201.349857,91.4857483 C202.000384,87.9185027 201.874438,85.1751334 200.302897,81.3376456 L200.122298,80.9066581 C199.594697,79.673353 199.375818,78.5564557 199.322356,77.1248545 L199.307669,76.508244 L199.308865,74.4725843 C199.305346,73.7028873 199.288733,73.1228043 199.247897,72.486754 L199.154033,71.295637 L199.030757,69.8314876 C199.024256,69.7450859 199.018102,69.6600723 199.011937,69.5718874 C198.839826,67.1097599 198.962714,65.3997239 199.582729,63.7730739 L199.819927,63.1671181 C199.882655,63.011238 199.950084,62.8467539 200.026999,62.6617172 L200.527692,61.4744117 C201.492304,59.1959362 201.911414,57.9777955 202.134712,56.5146391 C202.330258,55.2320639 202.254226,54.1203241 201.906279,52.2956268 L201.505178,50.3090878 C201.264101,49.0727299 201.168298,48.3389477 201.142205,47.4383071 C201.116315,46.533886 201.303493,45.7036927 201.732804,44.5184447 L201.875725,44.1363341 L202.062243,43.7095132 C202.148837,43.5146974 202.202275,43.3824766 202.242944,43.2558988 C202.305419,43.0614515 202.324024,42.9140338 202.303944,42.809148 C202.245103,42.5022473 202.100552,42.2829935 201.692798,41.8575754 L201.562399,41.7234713 C201.158198,41.3127807 200.95182,41.0760278 200.793114,40.7841489 L200.703863,40.9041379 C200.535892,41.1233192 200.222043,41.1648336 200.002862,40.9968629 C199.783681,40.8288921 199.742166,40.5150434 199.910137,40.2958621 C200.170629,39.9559521 200.305852,39.711909 200.367875,39.4442665 C200.652987,38.2122865 200.333078,37.5219824 199.237298,36.553632 L197.963528,35.4640593 L197.85688,35.3673403 C197.513558,35.0521863 197.291593,34.7600657 196.919283,34.171114 L196.492561,33.49589 C196.434006,33.4075815 196.382319,33.3335094 196.328478,33.2605248 L196.273585,33.1874158 C196.156642,33.0342442 196.040554,32.9014949 195.842162,32.6908759 L195.669293,32.5089734 C195.138136,31.9518609 194.890407,31.642476 194.668252,31.180394 C194.545518,30.9247391 194.457903,30.6869087 194.356831,30.3452764 L194.226564,29.8801674 C193.971875,28.9414262 193.814496,28.5650502 193.456638,28.1956473 C193.147526,27.8761192 192.845494,27.653883 192.259392,27.3050477 L191.85832,27.0713039 C190.544711,26.3171179 189.985182,25.8850503 189.4666,25.0238248 C189.159407,24.5133954 189.02462,24.0269056 188.928689,23.2209454 L188.825373,22.2038537 C188.718628,21.2662261 188.574916,20.8422421 188.203843,20.445556 C187.89439,20.1147203 187.548333,19.9397815 186.743732,19.67477 L186.505126,19.5976828 C185.292966,19.211271 184.752842,18.9428043 184.246749,18.2977942 C184.167547,18.1969297 184.10135,18.1051603 184.026351,17.9912949 L183.765801,17.5731495 L183.605573,17.3128039 C183.489256,17.1284838 183.408667,17.0154455 183.30915,16.8964041 C183.280023,16.8615103 183.248844,16.8277779 183.210176,16.7895289 L182.991117,16.5883892 C182.629023,16.2641893 182.451862,16.0434826 182.34689,15.6741373 C182.276207,15.4243418 182.232557,15.16789 182.206612,14.8776204 L182.182735,14.4993324 L182.171347,14.0934463 C182.143882,12.8458533 182.017232,12.3990507 181.404059,11.9216989 C181.07487,11.6657022 180.739261,11.5156283 180.094037,11.3257403 L179.222784,11.082886 C178.797369,10.9610856 178.543736,10.8713242 178.250638,10.7355941 C177.866927,10.5576414 177.584346,10.3572536 177.177952,9.99011557 L176.49427,9.35195032 C176.124127,9.01708797 175.886017,8.85055967 175.578962,8.7162408 C174.931835,8.43374704 174.366545,8.2509317 173.291224,7.9637241 L172.521864,7.76190345 C171.017847,7.36935477 170.198877,7.10510269 169.310974,6.66998632 L169.259985,6.64072306 C169.129273,6.66161212 168.990569,6.63087331 168.877147,6.54408089 C167.858029,5.76423432 166.916603,5.26307937 165.969934,5.05418216 C165.519441,4.95445943 165.131792,4.90873467 164.418635,4.86577222 L163.649458,4.82430313 L163.107818,4.78968567 C162.521995,4.7451893 162.082061,4.68344361 161.625961,4.57434849 L161.350667,4.50217398 C161.126274,4.43750818 160.905679,4.35868424 160.623287,4.24427305 L159.59208,3.80669171 C159.234488,3.6581593 158.989826,3.57030434 158.736632,3.50263862 L158.608761,3.47030075 C158.245841,3.38355284 157.925611,3.32323995 157.451475,3.25333481 L156.390221,3.10925542 C155.456753,2.98627288 154.878231,2.88948721 154.295675,2.73801476 L154.100848,2.68538756 C153.896163,2.62792124 153.719091,2.57318132 153.498885,2.49803132 L152.150776,2.0115443 C151.246962,1.69109386 150.741808,1.56210044 150.156171,1.51864178 C149.347582,1.45892054 148.668385,1.53259633 147.320117,1.79963921 L146.743234,1.91691143 C145.10426,2.25693513 144.352787,2.36967378 143.401956,2.35089912 C142.932042,2.34145792 142.536893,2.28436387 141.924712,2.14623594 L140.718963,1.86091941 C140.505146,1.81400792 140.340244,1.78377239 140.15611,1.75680485 C139.910982,1.72119039 139.693298,1.70460342 139.367151,1.69788154 L138.263759,1.6919143 C138.030937,1.68838663 137.841746,1.68043836 137.65482,1.66528943 L137.514404,1.65253416 C137.424696,1.6435917 137.352899,1.63428702 137.259862,1.61775795 L136.393868,1.43795855 C135.985875,1.3615721 135.715643,1.35625662 135.546964,1.42149011 C135.07133,1.60498139 134.679132,2.18632204 134.264867,3.23690022 L133.891022,4.23200927 C133.831571,4.38929537 133.780435,4.52244242 133.751634,4.59207888 L133.684215,4.74972065 L133.564584,5.01359004 C133.514305,5.12918638 133.445681,5.28890506 133.419182,5.34686878 C133.248646,5.71990896 133.093993,5.96199155 132.860106,6.12117438 C132.523443,6.34886002 132.121746,6.17479128 132.020098,5.81464676 C132.003775,5.75681488 131.996072,5.71430945 131.991962,5.65392991 L131.985,5.417 L131.880707,5.35865268 C131.696426,5.26776644 131.476783,5.2234123 131.243082,5.22989963 L131.101345,5.23992749 C129.889322,5.37491583 129.165865,6.0679565 127.979843,7.88707564 C127.829028,8.1183964 127.519245,8.18365879 127.287924,8.03284328 C127.056604,7.88202777 126.991341,7.57224512 127.142157,7.34092436 C128.483952,5.28287984 129.378873,4.42558374 130.989755,4.24617352 C131.563524,4.18121862 132.130561,4.30220671 132.579802,4.61230244 L132.631,4.651 L132.789502,4.29994485 L132.827548,4.2098946 C132.91409,4.0006449 133.254329,3.07358377 133.33458,2.8700684 C133.846518,1.57179055 134.362835,0.806472354 135.186651,0.488658611 C135.574717,0.338581477 136.000632,0.346959241 136.577896,0.45503741 Z M198.640829,114.335928 L198.730624,114.344844 C199.001882,114.39655 199.179863,114.658365 199.128156,114.929624 C199.1004,115.075238 199.074582,115.226293 199.049487,115.388643 L198.976988,115.900526 L198.914549,116.394619 C198.625407,118.71995 198.324824,119.743086 197.313647,120.860482 L197.167721,121.012812 C196.987356,121.193984 196.7177,121.447262 196.484959,121.642882 C195.754888,122.256511 195.362101,122.474869 194.937292,122.058358 C194.756658,121.881591 194.648446,121.637748 194.577782,121.305495 L194.246164,122.910529 C194.188987,123.180687 193.923629,123.353342 193.653471,123.296164 C193.383313,123.238987 193.210658,122.973629 193.267836,122.703471 L193.566196,121.244225 C193.58049,121.177466 193.59457,121.112791 193.608718,121.048938 C193.804165,120.166859 194.007797,119.478202 194.27618,118.873225 L194.379969,118.650066 C194.408009,118.591865 194.408009,118.591865 194.506143,118.481218 C194.761066,118.316386 194.761066,118.316386 195.163967,118.465337 C195.311804,118.586053 195.334215,118.664949 195.354054,118.825792 L195.361013,118.910872 L195.365502,119.137957 L195.397504,119.420443 L195.432508,119.771511 L195.462937,120.279832 C195.471293,120.415457 195.480083,120.531259 195.490802,120.640409 C195.502299,120.757487 195.5166,120.863799 195.531988,120.956381 L195.558,121.099 L195.686098,121.003573 L195.841541,120.877368 L196.055729,120.690126 C196.2733,120.493699 196.48705,120.284078 196.571265,120.190507 C197.32189,119.361031 197.603359,118.567291 197.846265,116.846553 L198.022018,115.501819 C198.061136,115.224253 198.100906,114.978121 198.145844,114.742376 C198.18606,114.531398 198.353379,114.376846 198.553386,114.342903 L198.640829,114.335928 Z M180.998332,71.4791719 C184.096788,73.9190445 185.424771,77.3262846 186.247531,83.0528295 L186.362731,83.8590236 C186.381633,83.9783108 186.403189,84.1057223 186.429926,84.2570248 L186.633009,85.3779731 C186.753779,86.0681534 186.81038,86.5024582 186.839185,87.0054648 L186.863736,87.5644188 C186.870955,87.8043557 186.874892,88.0687104 186.877354,88.4160527 L186.88533,89.6639953 C186.892231,90.1773635 186.906456,90.5635658 186.934753,90.9441344 L186.950105,91.1345119 C187.078976,92.6105768 187.357803,93.8554447 188.022,96.188644 L188.561273,98.0804228 C188.65982,98.4355641 188.738272,98.7298919 188.814064,99.0289118 L189.107364,100.240815 L189.793459,103.227584 L190.020887,104.182989 C190.580111,106.479574 191.078878,108.112677 191.733765,109.666846 C191.840993,109.921319 191.721628,110.214536 191.467154,110.321765 C191.212681,110.428993 190.919464,110.309628 190.812235,110.055154 C190.088207,108.3369 189.553903,106.544866 188.936407,103.950663 L188.055328,100.136922 L187.807159,99.1277614 C187.744135,98.8834014 187.677096,98.6339689 187.596093,98.3421294 L186.954312,96.0880239 C186.348522,93.9308325 186.082574,92.6953564 185.953874,91.2212526 L185.923839,90.8181493 C185.907068,90.5476819 185.896438,90.2675078 185.889789,89.9401689 L185.871216,87.8937861 C185.867456,87.684564 185.862137,87.5062502 185.854383,87.3297093 L185.840818,87.0625856 C185.820397,86.7059776 185.783719,86.3810483 185.714042,85.943868 L185.395052,84.1391589 C185.373327,84.0078346 185.355088,83.8895137 185.337734,83.7678662 L185.320578,83.644505 C184.535033,77.8793576 183.296609,74.5617666 180.379668,72.2648281 C180.162715,72.093989 180.125333,71.7796214 180.296172,71.5626684 C180.467011,71.3457154 180.781379,71.3083327 180.998332,71.4791719 Z M104.69116,72.8642604 C104.804234,73.1161905 104.69167,73.4120852 104.43974,73.5251597 C100.047015,75.4967596 98.0698848,80.0443119 98.5680785,85.7222068 C98.621064,86.324833 98.7264856,86.8255241 98.9758218,87.685524 L99.4171151,89.1587471 C99.6293875,89.8902474 99.7336362,90.3481832 99.8102725,90.9034059 C100.095758,92.9647105 99.7159126,95.1226788 98.7855674,97.3898194 C98.7428571,97.4938994 98.669067,97.5758448 98.5793353,97.629327 C98.4638466,98.0469864 98.4056581,98.4911219 98.3972457,98.9682123 C98.3843123,99.7017008 98.468856,100.37432 98.6887129,101.50967 L98.8482072,102.318436 C99.0784551,103.501655 99.1333692,103.943806 99.113755,104.561651 C99.0872103,105.40927 98.8994338,106.67979 98.6309479,107.658856 C98.2303083,109.119837 97.703957,109.960509 96.830406,109.789777 C95.4160953,109.514296 94.9081311,107.858142 94.8510618,104.20786 C94.8185263,102.138508 94.4103736,99.9802074 93.8320754,98.7261275 C93.580064,98.1796232 93.3258414,97.8816958 93.1746829,97.8489388 C93.0806004,97.8285505 92.8889152,97.9842317 92.6293933,98.5102317 C92.5072104,98.7578725 92.2074091,98.8595762 91.9597683,98.7373933 C91.7121275,98.6152104 91.6104238,98.3154091 91.7326067,98.0677683 C92.1712153,97.1787947 92.7257276,96.7284358 93.3864734,96.8716237 C93.9324945,96.98995 94.3680399,97.5003725 94.7401746,98.3073725 C95.345061,99.6191108 95.764645,101.726867 95.8407358,103.803401 L95.8655233,104.801135 C95.9553766,107.529112 96.3496931,108.67735 97.0219083,108.808285 C97.1013167,108.823805 97.4095883,108.331443 97.6665521,107.394394 C97.9139302,106.4923 98.090141,105.300034 98.1142518,104.530135 L98.1152068,104.224171 C98.1044485,103.850779 98.0464853,103.450058 97.9030533,102.698694 L97.7658522,101.999141 C97.4895412,100.614456 97.3817538,99.8379842 97.3974011,98.9505823 C97.4130543,98.0628501 97.5791345,97.2537608 97.9294218,96.4986032 C97.9761805,96.3977997 98.0522599,96.3199297 98.142814,96.2704306 C98.8022518,94.4304639 99.0480247,92.6889773 98.8196959,91.0403659 C98.7504963,90.5390217 98.6533918,90.1142001 98.4510829,89.4181896 L98.0084152,87.9402107 C97.7454698,87.0314568 97.6314286,86.4865915 97.5719137,85.8097034 C97.0398454,79.7457414 99.1980545,74.7816939 104.03026,72.6128403 C104.282191,72.4997657 104.578085,72.6123304 104.69116,72.8642604 Z M90.2740843,32.3331205 C90.5308302,32.4347874 90.6565465,32.7253384 90.5548795,32.9820843 L90.3509929,33.5029919 L89.3500956,36.1213876 C88.8662277,37.3655416 88.5242668,38.169724 88.1061002,39.0307854 L88.0081482,39.2307278 C87.8590956,39.5319876 87.7166268,39.7948028 87.477104,40.2163604 L87.2058106,40.6914629 C86.4609778,41.9992251 86.1532948,42.7387533 86.0657938,43.6609182 C85.8971165,45.4505555 86.2332583,46.8494687 87.2443679,49.2832245 L87.7800284,50.550072 C88.2412401,51.6503441 88.4781351,52.2882858 88.7006959,53.0664082 C88.8717036,53.6638475 88.9432029,54.1652493 88.9860114,55.0066882 L89.0376122,56.3924817 C89.0540332,56.7625517 89.077037,57.0661866 89.1131009,57.3536793 C89.1755029,57.8504271 89.2782428,58.2503486 89.5186825,58.9610051 L89.8997515,60.0659438 C90.0628256,60.5570521 90.1511675,60.8831365 90.2280094,61.2816084 C90.3075812,61.6955277 90.3334531,62.0915477 90.3305215,62.6545095 L90.3164686,63.5457398 C90.3115099,64.0923111 90.329412,64.3904233 90.3909892,64.7298559 C90.4828452,65.2368125 90.631341,65.6471568 90.970599,66.3644403 L91.1887206,66.8157651 C91.7274386,67.9141413 91.938453,68.4342675 92.0709262,69.1615093 C92.243549,70.1104081 92.2637846,70.9798004 92.1915035,72.4319536 L92.1099907,73.9734094 C92.0970785,74.2731907 92.0914067,74.5055168 92.0899922,74.7647875 C92.0689054,78.5471063 92.2715525,81.8523337 92.7625686,84.8840621 C92.8067171,85.1566525 92.6215283,85.4134201 92.3489379,85.4575686 C92.0763475,85.5017171 91.8195799,85.3165283 91.7754314,85.0439379 C91.3079371,82.1574421 91.0974006,79.039434 91.0887834,75.5197097 L91.0958808,74.362403 C91.1002802,74.185337 91.1072873,74.0001632 91.1177909,73.7780756 L91.1761494,72.6970116 C91.2633046,71.1227755 91.2539394,70.2577432 91.0870945,69.3406047 C91.0020501,68.873734 90.8718331,68.4933997 90.5892519,67.8798797 L90.0554082,66.7684292 C89.6861653,65.9861438 89.5172869,65.5167611 89.4070299,64.9082493 L89.3648905,64.6408115 C89.3184777,64.2886634 89.3095521,63.935137 89.3188498,63.3507844 L89.3277245,62.8892032 C89.3387876,62.2511201 89.3206342,61.8586754 89.2460454,61.4706764 L89.1852999,61.185783 C89.1190277,60.9042902 89.0323219,60.6188667 88.8904984,60.2023194 L88.5771581,59.2984454 C88.3106053,58.5126112 88.1941909,58.0617569 88.1208882,57.4782337 C88.090999,57.2399645 88.0695062,56.9953361 88.0532386,56.7213857 L88.0209595,55.9533498 L87.9988082,55.3094214 C87.9603779,54.3855855 87.8998142,53.9023558 87.7392772,53.3414977 L87.6405359,53.0097502 C87.471415,52.4641843 87.2733499,51.9377516 86.9535788,51.1664493 L86.4728524,50.0286759 C85.2855138,47.2301895 84.8736977,45.6520024 85.0702358,43.566769 C85.1678378,42.5381489 85.4807012,41.7332342 86.1808434,40.4736695 L86.6992667,39.5603775 C86.8465555,39.2986504 86.9521079,39.1035533 87.0521039,38.9065265 L87.3894015,38.2102323 C87.7180852,37.5068268 88.0192819,36.7845859 88.422188,35.7483547 L89.3086808,33.4266397 C89.4216718,33.132331 89.5247269,32.8674458 89.6251205,32.6139157 C89.7267874,32.3571698 90.0173384,32.2314535 90.2740843,32.3331205 Z M176.80307,69.0426512 C177.061732,69.1393395 177.193037,69.4274078 177.096349,69.6860697 C176.99966,69.9447316 176.711592,70.0760371 176.45293,69.9793488 C174.78894,69.3573459 172.72234,69.3424728 170.767423,69.8706903 C170.528718,69.9351881 170.283665,69.8154789 170.183309,69.5983464 L170.17316,69.6092186 C167.117275,72.1702281 164.496315,73.6744792 161.710784,74.0846741 C160.803444,74.2181765 160.052955,74.1242119 158.984528,73.811647 L157.857503,73.461768 C157.303169,73.2945623 156.949801,73.2126632 156.531122,73.1589028 L156.255924,73.1295643 C155.84595,73.0955278 155.432519,73.1062701 154.797449,73.1605561 L153.599296,73.2776232 C152.798864,73.3538336 152.228899,73.3739352 151.65379,73.3252152 L151.308172,73.2918801 C150.854127,73.2423823 150.412917,73.1705884 149.813107,73.0513945 L148.746354,72.8281637 L148.171769,72.7059792 C146.9207,72.4448398 146.261925,72.3469883 145.458022,72.3197116 C143.505216,72.2533621 141.971026,72.5964426 138.750656,73.6578255 L138.074728,73.8822998 C135.196674,74.8393531 133.678635,75.2199685 131.857678,75.2945722 C131.205761,75.3215562 130.560193,75.2745317 129.697539,75.1543567 L127.932665,74.8860249 C127.518069,74.8266061 127.222632,74.793046 126.91142,74.7701985 L126.317255,74.73495 C126.062283,74.7221289 125.798438,74.711675 125.479131,74.7015796 L123.739632,74.6564099 C121.399224,74.5959062 120.013526,74.4783257 118.547062,74.1413089 L118.223718,74.0631387 C117.641366,73.9147946 117.093906,73.7320062 116.209178,73.4031115 L115.008624,72.9535322 C113.680713,72.4660784 112.935006,72.2574932 112.033892,72.1483739 C111.759752,72.1151773 111.564429,71.866032 111.597626,71.5918922 C111.630823,71.3177525 111.879968,71.1224295 112.154108,71.1556261 L112.570188,71.2139906 C113.38771,71.3454256 114.144835,71.5715377 115.335505,72.0082485 L116.772116,72.545032 C117.642837,72.8647309 118.155416,73.0253022 118.770989,73.1667028 C119.992243,73.4473665 121.173351,73.5684148 122.999149,73.6334648 L125.88171,73.7148896 C126.226151,73.7279765 126.518143,73.7428268 126.839488,73.7629925 L127.268135,73.7967617 C127.600636,73.8286051 127.951271,73.8756903 128.461517,73.9535939 L129.512179,74.1169885 C130.489911,74.2640592 131.160387,74.322578 131.816532,74.2954191 C133.438405,74.2289717 134.834296,73.8944461 137.386558,73.05654 L138.823172,72.5818185 C141.774666,71.6220044 143.339459,71.2790137 145.251072,71.3139672 L145.491955,71.3202876 C146.360771,71.3497667 147.055954,71.4521553 148.341845,71.7199171 L149.990733,72.0670741 C150.713765,72.2110151 151.189518,72.2822988 151.738206,72.3287845 C152.178273,72.3660646 152.629518,72.3567501 153.235108,72.306266 L154.506402,72.1824963 C155.402005,72.0995113 155.920801,72.0857111 156.499145,72.1481479 L156.65868,72.1670717 C157.138849,72.2287277 157.532531,72.3195986 158.128554,72.4989844 L158.982453,72.7662837 C160.084486,73.1097552 160.75623,73.214357 161.565156,73.0953347 C164.124748,72.7184113 166.60458,71.2951585 169.53084,68.8427814 C169.742486,68.6654098 170.057847,68.6931946 170.235219,68.9048404 C170.264534,68.9398208 170.288246,68.9776343 170.306449,69.0171897 C170.359739,68.9648828 170.428488,68.9264095 170.506577,68.9053097 C172.651636,68.3257162 174.928961,68.3421059 176.80307,69.0426512 Z M122.202035,10.5101452 C122.467604,10.5858278 122.621537,10.8624667 122.545855,11.1280354 C121.627102,14.3519215 120.463691,15.2879865 118.968927,14.236768 C118.689617,14.0403385 118.476031,13.8461492 118.052839,13.4192208 L117.626519,12.9895423 C117.205316,12.5735151 116.973933,12.3871295 116.730514,12.2736916 C116.446267,12.1412267 116.253602,12.1818832 115.98352,12.4909868 C115.908362,12.5770049 115.810245,12.6310826 115.706305,12.6520656 L115.756088,13.0146837 C115.769112,13.1258223 115.777086,13.219676 115.78273,13.3244756 C115.821639,14.0470409 115.656347,14.6419535 115.179874,15.1875821 C115.031524,15.3577345 114.87212,15.495989 114.60962,15.6880235 L113.93576,16.1653824 L113.894278,16.1965534 C113.66543,16.3696151 113.54639,16.4958192 113.527715,16.5529336 C113.53617,16.5357579 113.55209,16.5455119 113.670944,16.6292356 C113.896698,16.7882625 113.950791,17.1001894 113.791764,17.3259438 C113.71772,17.4310569 113.610528,17.4989555 113.494321,17.5254545 C113.349436,17.6476578 113.140178,17.6802921 112.95785,17.5923843 C112.291028,17.2708809 111.706012,17.0599322 111.141075,16.9544771 C109.424539,16.633418 107.772113,17.1760452 106.544282,18.452694 L106.362565,18.6474773 C106.183054,18.8462728 106.000366,19.0683726 105.726314,19.4151852 L105.233285,20.0388536 C104.701042,20.7012367 104.369839,21.0556991 103.92039,21.4221658 C103.219368,21.9950374 102.585579,22.3038625 101.276511,22.7825933 L100.27295,23.1481813 C100.062334,23.2280726 99.8885849,23.298215 99.7118037,23.3747778 C98.4684119,23.9135809 97.2354543,24.7806639 96.2008373,25.8222648 C95.2720593,26.7578255 94.7672648,27.6797507 94.0039381,29.6633558 L93.4356176,31.1673431 C93.0991536,32.0382448 92.8603964,32.5747603 92.537568,33.1702855 C92.4059665,33.4130522 92.1024812,33.5031694 91.8597145,33.371568 C91.6169478,33.2399665 91.5268306,32.9364812 91.658432,32.6937145 L91.8156641,32.3942246 C92.0943055,31.8449465 92.3304773,31.2717149 92.6962176,30.2986725 L93.0695492,29.3069966 C93.8830641,27.1918405 94.4366325,26.1799664 95.4912593,25.1176379 C96.612373,23.9889564 97.9495936,23.04855 99.3142889,22.4571821 L99.6014557,22.336979 C99.7969781,22.2579436 100.007657,22.1782524 100.275492,22.0807716 L101.168931,21.7561449 C102.213464,21.3648765 102.738078,21.0969094 103.288034,20.6474877 C103.708347,20.3047782 104.02425,19.9558605 104.607215,19.2200247 L105.082485,18.6179356 C105.384343,18.2402047 105.581261,18.0112658 105.823623,17.7594041 C107.282975,16.2420286 109.274566,15.5880258 111.324749,15.9714899 C111.728402,16.0468384 112.132545,16.1651049 112.55397,16.3266233 L112.577236,16.2421456 C112.664221,15.97612 112.845202,15.7594168 113.136301,15.520554 L113.430851,15.2957257 L113.990805,14.9013613 C114.209271,14.7424447 114.333254,14.6369391 114.426386,14.5301199 C114.715497,14.1990481 114.81005,13.8587344 114.784176,13.3782472 L114.771395,13.2106212 C114.765643,13.152519 114.758151,13.0897689 114.74817,13.0151074 L114.653469,12.3397879 C114.650427,12.3135557 114.64756,12.2873635 114.644688,12.2597796 C114.616091,11.9851219 114.815563,11.7392854 115.09022,11.7106884 C115.169864,11.702396 115.247084,11.7132806 115.317286,11.7396146 L115.23048,11.8330132 C115.793509,11.1886347 116.465347,11.0468626 117.152918,11.3672836 C117.529367,11.542716 117.815748,11.7702333 118.31904,12.2676807 L118.983173,12.9343405 C119.18911,13.135804 119.329784,13.2603416 119.472401,13.3667991 L119.544182,13.4187936 C120.2946,13.9465383 120.824263,13.5203789 121.584145,10.8539646 C121.659828,10.5883958 121.936467,10.4344627 122.202035,10.5101452 Z" fill-rule="nonzero"/>
    <path d="M113.931797,114.269016 C114.409254,114.562448 114.881739,114.828235 115.349929,115.065561 C115.50062,114.915365 115.736795,114.875751 115.933703,114.981578 C116.114403,115.078694 116.211199,115.270974 116.195431,115.463155 C116.375794,115.543907 116.55715,115.619034 116.737947,115.689646 C116.843597,115.478644 117.08775,115.365925 117.322894,115.433391 C117.576262,115.506086 117.727586,115.761702 117.674582,116.015647 C117.914127,116.089428 118.153773,116.154893 118.392964,116.211901 L118.768419,116.294367 C119.28085,116.397857 119.789951,116.461852 120.296674,116.485295 C120.433968,116.302456 120.682644,116.234841 120.898132,116.332922 C120.977255,116.368935 121.042471,116.422995 121.091126,116.488011 C121.372115,116.477641 121.653069,116.454148 121.933798,116.417506 L122.44198,116.337783 L122.694252,115.740197 C122.800182,115.48518 123.092787,115.364322 123.347803,115.470252 C123.577779,115.56578 123.69865,115.813124 123.64248,116.047807 C123.957071,115.95389 124.289912,115.842597 124.660105,115.708266 L124.632868,115.777748 C124.713641,115.513683 124.993187,115.365095 125.257252,115.445868 L125.305309,115.465926 L127.157192,114.730225 C127.414432,114.629816 127.704365,114.756952 127.804775,115.014192 C127.859843,115.155271 127.84647,115.306183 127.780729,115.430273 C127.747159,115.554621 127.664996,115.664694 127.544001,115.731979 C126.813603,116.138147 126.088272,116.483929 125.367792,116.768659 L125.339627,116.851169 C125.249511,117.112193 124.964856,117.250742 124.703831,117.160627 C124.642551,117.13947 124.588022,117.107592 124.541616,117.067815 C124.036364,117.236737 123.53283,117.374089 123.031598,117.480667 L123.024599,117.495984 C122.910838,117.747604 122.614637,117.859361 122.363016,117.745599 C122.299899,117.717063 122.245583,117.677048 122.201419,117.629136 C121.729214,117.697934 121.258297,117.738868 120.789349,117.75181 C120.705914,117.921136 120.621141,118.087452 120.528636,118.263537 C120.400209,118.507998 120.097924,118.602063 119.853463,118.473636 C119.609002,118.345209 119.514937,118.042924 119.643364,117.798463 L119.679452,117.729828 C119.389783,117.710243 119.100854,117.679776 118.812652,117.638377 L118.703616,117.621796 L118.6913,117.64309 C118.541319,117.902195 118.439623,118.0631 118.282148,118.277756 C118.118807,118.500408 117.805897,118.54849 117.583244,118.385148 C117.360592,118.221807 117.31251,117.908897 117.475852,117.686244 C117.546822,117.589504 117.603893,117.506425 117.662108,117.414686 C117.46823,117.36612 117.274745,117.313236 117.081578,117.255299 C116.820739,117.598675 116.491216,117.893191 116.083544,118.154125 C115.850963,118.30299 115.541741,118.235125 115.392875,118.002544 C115.24401,117.769963 115.311875,117.460741 115.544456,117.311875 C115.744766,117.183665 115.916961,117.048683 116.064911,116.901043 C115.884636,116.831326 115.706324,116.756458 115.528277,116.677185 C115.387994,116.847985 115.227502,116.993872 115.022442,117.138105 C114.922468,117.208423 114.812926,117.276939 114.691859,117.34494 C114.451096,117.480172 114.146291,117.394622 114.01106,117.153859 C113.875828,116.913096 113.961378,116.608291 114.202141,116.47306 C114.294712,116.421065 114.375756,116.370373 114.447133,116.320169 C114.497798,116.284532 114.543637,116.24945 114.585972,116.213514 C114.234341,116.026725 113.88514,115.821767 113.536915,115.599418 C113.350285,115.480251 113.269454,115.257857 113.321376,115.054407 C113.157213,114.895574 113.118708,114.637098 113.244016,114.433203 C113.388603,114.197938 113.696533,114.12443 113.931797,114.269016 Z M174.243406,113.303301 C174.438196,113.499034 174.437432,113.815616 174.241699,114.010406 C173.69875,114.55074 173.055932,115.031118 172.346074,115.44372 L172.421936,115.489111 C172.660461,115.628251 172.74103,115.93441 172.601889,116.172936 C172.462749,116.411461 172.15659,116.49203 171.918064,116.352889 C171.722062,116.238555 171.564837,116.124367 171.366568,115.952702 C171.072903,116.08639 170.771815,116.210839 170.46483,116.32431 C170.521336,116.43279 170.579973,116.533317 170.64433,116.633219 C170.793879,116.865361 170.726923,117.174782 170.494781,117.32433 C170.262639,117.473879 169.953218,117.406923 169.80367,117.174781 C169.691304,117.000358 169.595498,116.830002 169.502685,116.637878 C169.252903,116.709876 168.999591,116.77429 168.744711,116.831331 C168.795136,117.061073 168.677828,117.30156 168.454067,117.398096 C168.200515,117.507486 167.906293,117.390619 167.796904,117.137067 L167.74546,117.016138 C167.315848,117.078423 166.885483,117.119674 166.458384,117.138592 C166.477322,117.315831 166.398017,117.498017 166.237954,117.603952 C166.007678,117.756358 165.697453,117.693231 165.545048,117.462954 L165.4083,117.250633 C165.385338,117.213954 165.361763,117.175792 165.336788,117.134892 C164.913965,117.114101 164.499106,117.068825 164.095856,116.998806 C164.051237,117.044906 163.995919,117.082306 163.932417,117.108141 C163.705052,117.200638 163.449301,117.113732 163.322189,116.913631 L163.272996,116.816505 L163.173674,116.788772 C162.705301,116.654987 162.282565,116.496433 161.835091,116.284798 C161.821596,116.442697 161.731255,116.591135 161.581655,116.674171 C161.340212,116.808186 161.035843,116.721098 160.901829,116.479655 L160.773602,116.241803 C160.668045,116.039991 160.560347,115.818844 160.410072,115.500889 L160.176682,115.357202 L159.023112,114.63768 C158.698285,114.439129 158.445382,114.292497 158.172241,114.144853 C157.929317,114.013543 157.838836,113.710166 157.970147,113.467241 C158.101457,113.224317 158.404834,113.133836 158.647759,113.265147 L158.932494,113.422613 C159.074327,113.502892 159.218019,113.58701 159.37554,113.681815 L160.515,114.389 L160.532274,114.383302 C160.76102,114.321069 161.008567,114.429154 161.114267,114.65069 L161.183054,114.795596 C161.855106,115.194807 162.378523,115.457706 162.915697,115.654401 L162.900241,115.599822 C162.826333,115.333754 162.98211,115.058149 163.248178,114.984241 C163.514246,114.910333 163.789851,115.06611 163.863759,115.332178 L164.041518,115.973546 C164.261104,116.01576 164.485692,116.051791 164.713911,116.079568 C164.639379,115.864938 164.718489,115.620852 164.917562,115.494169 C165.150533,115.345915 165.459577,115.414592 165.607831,115.647562 L165.772013,115.912774 C165.811986,115.979016 165.856949,116.054464 165.91223,116.147785 C166.396134,116.151206 166.887191,116.119202 167.378386,116.056742 L167.374449,116.044819 C167.279556,115.785493 167.412855,115.498342 167.672181,115.403449 C167.931507,115.308556 168.218658,115.441855 168.313551,115.701181 L168.381846,115.886887 C168.62993,115.834417 168.876629,115.774405 169.120883,115.707108 L169.051818,115.518085 C168.957883,115.25841 169.092241,114.971753 169.351915,114.877818 C169.61159,114.783883 169.898247,114.918241 169.992182,115.177915 L170.074564,115.403066 C170.258772,115.33527 170.440731,115.263757 170.619838,115.188125 C170.556885,115.019557 170.588618,114.823632 170.717308,114.68146 C170.902622,114.476732 171.218813,114.460994 171.42354,114.646308 L171.536436,114.750085 C172.296327,114.343765 172.978123,113.857083 173.536301,113.301594 C173.732034,113.106804 174.048616,113.107568 174.243406,113.303301 Z M86.5908703,40.9990574 C86.8548307,41.0801717 87.0030568,41.3599099 86.9219426,41.6238703 L86.6405882,42.5160463 L85.6176265,45.5710385 C83.925762,50.7114779 83.4868654,53.4393987 84.2012013,56.670021 C84.6398069,58.6530724 85.3563302,60.062654 87.1184667,62.7018539 L88.405205,64.6134743 C88.7330969,65.110076 88.9699981,65.4870176 89.2277278,65.9203948 C90.7660955,68.5067246 91.7473646,71.6390939 92.0221166,74.795643 C92.046062,75.0707452 91.8424592,75.3131712 91.567357,75.3371166 C91.2922548,75.361062 91.0498288,75.1574592 91.0258834,74.882357 C90.7736912,71.9849908 89.8968395,69.1081646 88.5288762,66.7074627 L88.5013652,66.7234266 C88.3887301,66.7744644 88.3766491,67.9818446 88.5155916,69.1497178 C88.6092303,69.9475634 88.8610376,70.6163614 89.4755278,71.8420705 L89.9800925,72.8403716 C90.0131103,72.9076634 90.0438803,72.9715078 90.0802289,73.0476108 C90.770308,74.4932896 91.2856225,75.985657 91.5955081,77.4711086 C92.3082512,80.8952788 92.7067533,84.5405268 92.8435265,88.5084345 L92.8688481,89.3636761 C92.8786342,89.7605943 92.8774976,90.1038695 92.8641919,90.6108622 L92.8071897,92.380039 C92.7603244,94.1885954 92.8597101,95.3650246 93.2333825,96.4870088 C93.2814804,96.6314269 93.2600241,96.7822652 93.1871976,96.9031787 C93.2555235,96.9375415 93.3153008,96.9890235 93.3619143,97.055269 C93.5208237,97.2811061 93.4665681,97.5930048 93.240731,97.7519143 C92.303684,98.4112639 91.8787247,100.188441 92.1482356,101.532669 C92.2962499,102.2706 92.6073733,103.158182 93.1014442,104.311485 L93.4302459,105.059437 L94.3149775,106.996208 C94.5180791,107.445581 94.6771169,107.811067 94.8092773,108.136587 L95.189694,109.094313 C96.8732701,113.284473 97.9057555,114.876812 99.9959229,116.089521 C100.234774,116.228102 100.316059,116.534072 100.177479,116.772923 C100.038898,117.011774 99.7329284,117.093059 99.4940771,116.954479 C97.0839279,115.556116 95.9667024,113.767497 94.1109259,109.089175 L93.9545247,108.692572 C93.8617319,108.455994 93.7533566,108.197368 93.6210885,107.895632 L92.4188836,105.247153 L92.324968,105.034393 C91.7227619,103.661499 91.346856,102.6222 91.1677564,101.729291 C90.8435562,100.112293 91.30348,98.0552483 92.492516,97.0664609 C92.3980332,97.0086889 92.3226851,96.9172926 92.2846175,96.8029912 C91.893587,95.6288879 91.7736453,94.4394385 91.7997431,92.7288502 L91.8686134,90.4155438 C91.8761949,90.072398 91.8771823,89.8064548 91.872162,89.5286882 L91.869154,89.3884075 C91.7637921,85.1438294 91.3669132,81.2800752 90.6165372,77.6751087 C90.3601621,76.446162 89.9535718,75.2078539 89.4161153,73.9960908 L89.1130573,73.3438501 L88.7219599,72.5677546 C87.9542722,71.0622005 87.6410196,70.2769048 87.5225014,69.267069 C87.4503548,68.6606476 87.4079759,68.1272183 87.413275,67.5976222 C87.4222797,66.6976973 87.5559705,66.1089038 88.0131714,65.850824 L87.7495045,65.4377199 C87.6554477,65.2928052 87.5539743,65.1387079 87.4413378,64.9695203 L86.2763424,63.2414889 C84.4536193,60.5104455 83.696744,59.0197682 83.2247922,56.8859496 C82.4385036,53.3299176 82.9471418,50.4063425 84.8182947,44.8044234 L85.688431,42.2103426 C85.7880829,41.9040189 85.8681813,41.6486364 85.9660574,41.3301297 C86.0471717,41.0661693 86.3269099,40.9179432 86.5908703,40.9990574 Z M99.0456655,86.6851206 C99.1109811,86.9427408 99.1960673,87.2070286 99.3013009,87.481435 L99.4132642,87.7593422 C99.7162667,88.4779683 99.8876126,88.8079798 100.699516,90.1704364 L101.21054,91.0245271 C102.736834,93.5696829 103.420894,95.1113192 103.62811,97.0303214 C103.642135,97.1601994 103.605095,97.2838226 103.533101,97.3811819 L103.528926,97.4218062 C103.482642,97.694042 103.22443,97.8772114 102.952194,97.8309265 C100.117547,97.3489866 98.7254552,95.4500777 98.8546458,92.9105964 C98.8686758,92.6348107 99.1036178,92.4226158 99.3794036,92.4366458 C99.6551893,92.4506758 99.8673842,92.6856178 99.8533542,92.9614036 C99.7575313,94.8449811 100.639797,96.2126546 102.578563,96.728181 C102.351888,95.2496154 101.759333,93.9196976 100.558705,91.8846712 L99.3527898,89.8552711 C98.9070694,89.085917 98.7435377,88.7448477 98.491823,88.1478598 C98.3148998,87.7282539 98.1764607,87.3258009 98.0763345,86.9308794 C98.0084701,86.663206 98.1704472,86.3911989 98.4381206,86.3233345 C98.705794,86.2554701 98.9778011,86.4174472 99.0456655,86.6851206 Z" fill-rule="nonzero"/>
  </g>
</svg>