<svg xmlns="http://www.w3.org/2000/svg" viewBox="0 0 300 300">
  <g fill="none" fill-rule="evenodd">
    <path fill="#000" d="M0 0H300V300H0z"/>
    <path d="M300.891,0.82 C300.891,0.572 300.309,0.371 299.591,0.371 L0.905,0.158 C0.539,0.158 0.243,0.455 0.243,0.82 L0.03,299.279 C0.03,299.762 0.422,300.153 0.905,300.153 L299.591,300.366 C300.192,300.366 300.678,299.88 300.678,299.279 L300.891,0.82 Z M1.567,1.482 L1.779,298.404 L298.503,298.192 L298.291,1.27 L1.567,1.482 L1.567,1.482 Z" fill="#FF269E"/>
    <path d="M107.448 77.383C106.85 80.605 106.698 83.528 107.001 86.409 107.304 89.284 108.061 92.116 109.267 95.16 109.333 95.327 109.523 95.409 109.69 95.342 109.857 95.276 109.939 95.087 109.873 94.919 108.688 91.936 107.947 89.159 107.642 86.341 107.336 83.518 107.466 80.652 108.037 77.491 108.066 77.328 107.959 77.172 107.796 77.143 107.634 77.113 107.478 77.221 107.448 77.383M176.722 76.864C177.505 79.411 177.956 82.146 178.01 84.882 178.063 87.61 177.721 90.34 176.898 92.886 176.837 93.076 176.942 93.279 177.131 93.34 177.321 93.401 177.524 93.296 177.585 93.106 178.416 90.482 178.76 87.672 178.684 84.866 178.609 82.071 178.117 79.281 177.293 76.686 177.244 76.528 177.076 76.44 176.919 76.489 176.761 76.539 176.673 76.706 176.722 76.864M169.875 16.067C171.536 14.889 173.436 13.887 175.455 13.161 177.43 12.451 179.519 12.005 181.612 11.921 181.763 11.915 181.881 11.788 181.875 11.637 181.869 11.486 181.742 11.369 181.591 11.374 179.441 11.451 177.292 11.897 175.261 12.618 173.187 13.354 171.236 14.376 169.529 15.579 169.395 15.674 169.363 15.861 169.458 15.996 169.553 16.131 169.74 16.163 169.875 16.067M194.6 75.808C196.498 78.257 198.114 81.018 199.328 83.737 200.758 86.942 201.632 90.087 201.766 92.583 201.774 92.729 201.898 92.841 202.043 92.833 202.189 92.825 202.301 92.701 202.293 92.556 202.162 90.006 201.277 86.793 199.828 83.515 198.607 80.751 196.987 77.939 195.074 75.443 194.973 75.312 194.785 75.287 194.654 75.388 194.523 75.489 194.499 75.677 194.6 75.808M167.027 151.144C168.006 152.73 168.549 154.396 168.683 156.063 168.823 157.793 168.523 159.524 167.793 161.168 167.73 161.309 167.793 161.474 167.933 161.537 168.074 161.6 168.239 161.538 168.302 161.397 169.087 159.668 169.425 157.842 169.285 156.016 169.149 154.258 168.57 152.5 167.535 150.83 167.449 150.689 167.264 150.646 167.124 150.733 166.983 150.819 166.94 151.004 167.027 151.144M121.45 154.175C120.821 155.229 120.469 156.326 120.396 157.434 120.322 158.562 120.538 159.698 121 160.804 121.063 160.959 121.239 161.033 121.393 160.97 121.548 160.907 121.622 160.73 121.559 160.576 121.151 159.555 120.983 158.512 121.05 157.477 121.116 156.462 121.407 155.452 121.967 154.477 122.05 154.334 122.002 154.151 121.86 154.068 121.717 153.984 121.534 154.032 121.45 154.175M186.693 121.379C184.084 125.075 181.728 128.963 178.933 132.48 177.085 134.806 175.046 136.97 172.603 138.802 172.484 138.891 172.46 139.059 172.548 139.177 172.637 139.296 172.805 139.32 172.924 139.232 175.414 137.383 177.5 135.197 179.385 132.84 182.197 129.323 184.56 125.425 187.181 121.724 187.277 121.589 187.245 121.402 187.11 121.307 186.975 121.212 186.788 121.244 186.693 121.379M105.504 130.245C107.057 131.994 108.445 133.873 109.991 135.618 110.659 136.372 111.362 137.095 112.105 137.785 112.214 137.888 112.387 137.884 112.491 137.775 112.594 137.666 112.59 137.494 112.481 137.39 111.77 136.693 111.11 135.954 110.463 135.206 108.936 133.441 107.512 131.59 105.95 129.847 105.84 129.724 105.651 129.713 105.528 129.823 105.405 129.933 105.394 130.122 105.504 130.245M174.302 67.854C176.47 69.919 178.957 71.561 181.646 72.771 184.33 73.978 187.213 74.753 190.161 75.122 190.318 75.142 190.463 75.031 190.483 74.873 190.503 74.716 190.391 74.571 190.234 74.551 187.348 74.172 184.533 73.384 181.904 72.198 179.28 71.013 176.839 69.43 174.714 67.42 174.594 67.307 174.405 67.311 174.291 67.431 174.178 67.551 174.182 67.74 174.302 67.854" fill="#FF269E"/>
    <path d="M189.184,118.368 C187.727,120.428 186.311,122.716 185.255,125.121 C184.542,126.746 183.993,128.424 183.706,130.123 C183.539,131.112 183.451,132.102 183.408,133.093 C183.308,135.382 183.446,137.676 183.364,139.979 C183.269,142.599 182.905,145.484 182.202,148.266 C181.498,151.049 180.455,153.728 179.002,155.932 C177.91,157.587 176.651,159.114 175.31,160.576 C172.166,164.004 168.566,167.076 165.545,170.574 C163.689,172.724 161.926,175.296 159.94,177.574 C158.619,179.09 157.2,180.475 155.584,181.509 C153.732,182.694 151.63,183.292 149.446,183.543 C146.151,183.922 142.67,183.514 139.556,183.108 C138.264,182.94 136.903,182.772 135.613,182.416 C134.767,182.182 133.952,181.867 133.211,181.413 C131.822,180.56 130.665,179.528 129.616,178.401 C128.007,176.672 126.65,174.719 125.117,172.825 C122.216,169.257 119.041,165.696 116.31,161.875 C114.495,159.336 112.875,156.682 111.667,153.834 C110.965,152.177 110.512,150.445 110.181,148.676 C109.402,144.519 109.287,140.158 108.259,136.072 C107.844,134.428 107.298,132.843 106.682,131.287 C105.763,128.967 104.69,126.71 103.672,124.412 C102.459,121.677 101.406,118.874 100.223,116.127 C99.926,115.437 99.614,114.754 99.297,114.073 C99.222,113.906 99.027,113.832 98.86,113.907 C98.694,113.981 98.619,114.177 98.694,114.343 L103,124.709 C104.012,126.999 105.08,129.248 105.993,131.559 C106.596,133.086 107.132,134.641 107.538,136.254 C108.564,140.325 108.677,144.67 109.455,148.812 C109.797,150.634 110.265,152.416 110.989,154.121 C112.22,157.019 113.867,159.719 115.717,162.3 C118.461,166.13 121.652,169.698 124.567,173.273 C126.121,175.17 127.499,177.127 129.127,178.858 C130.222,180.023 131.428,181.086 132.873,181.966 C133.666,182.451 134.536,182.789 135.441,183.039 C136.76,183.402 138.152,183.575 139.473,183.746 C142.636,184.156 146.172,184.562 149.518,184.175 C151.799,183.912 153.992,183.28 155.925,182.042 C157.183,181.235 158.327,180.224 159.398,179.103 C161.811,176.578 163.851,173.492 166.016,170.981 C169.03,167.485 172.624,164.415 175.758,160.987 C177.119,159.499 178.393,157.943 179.499,156.259 C180.983,154 182.048,151.257 182.765,148.408 C183.474,145.585 183.843,142.658 183.937,139.999 C184.02,137.698 183.883,135.406 183.984,133.118 C184.027,132.151 184.112,131.185 184.276,130.22 C184.627,128.159 185.374,126.13 186.331,124.195 C187.292,122.251 188.465,120.402 189.665,118.708 C189.759,118.576 189.727,118.392 189.595,118.298 C189.462,118.204 189.278,118.235 189.184,118.368" fill="#FF269E"/>
    <path d="M127.395 158.025C127.623 158.14 127.809 158.284 127.972 158.442 128.255 158.719 128.469 159.04 128.698 159.348L129.941 160.794C130.541 161.428 131.291 162.004 132.113 162.515 132.883 162.994 133.717 163.416 134.551 163.775 135.329 164.11 136.228 164.33 137.165 164.478 138.495 164.686 139.903 164.747 141.143 164.786 141.846 164.809 142.542 164.828 143.239 164.827038 143.706 164.825 144.175 164.814 144.646 164.788 147.768 164.615 151.323 163.862 154.1 162.421 155.814 161.531 157.245 160.387 158.093 158.955 158.209 158.759 158.322 158.561 158.403 158.349 158.485 158.135 158.535 157.916 158.582 157.691 158.629 157.553 158.556 157.403 158.418 157.355 158.281 157.308 158.13 157.381 158.083 157.519 157.991 157.705 157.878 157.873 157.775 158.053 157.676 158.229 157.583 158.408 157.475 158.581 156.662 159.889 155.351 160.949 153.765 161.776 151.075 163.179 147.633 163.927 144.607 164.11 144.147 164.138 143.691 164.15 143.235 164.154 142.546 164.159 141.858 164.142 141.162 164.123 139.947 164.09 138.567 164.039 137.264 163.84 136.381 163.706 135.534 163.504 134.8 163.192 133.994 162.849 133.186 162.445 132.44 161.986 131.663 161.507 130.953 160.968 130.384 160.372L129.183 158.985C128.934 158.654 128.698 158.31 128.391 158.011 128.186 157.813 127.951 157.635 127.663 157.491 127.516 157.417 127.336 157.476 127.262 157.624 127.188 157.771 127.248 157.951 127.395 158.025M132.713 138.824C132.286 137.641 132.274 136.319 132.652 135.135 133.027 133.957 133.79 132.916 134.918 132.293 135.064 132.212 135.117 132.029 135.037 131.883 134.956 131.737 134.772 131.684 134.626 131.764 133.359 132.465 132.5 133.63 132.079 134.952 131.663 136.26 131.678 137.721 132.151 139.028 132.207 139.183 132.378 139.263 132.533 139.207 132.689 139.151 132.769 138.98 132.713 138.824M152.635 141.03C153.995 139.694 154.791 138.033 154.757 136.473 154.723 134.888 153.85 133.395 151.85 132.443 151.705 132.373 151.531 132.434 151.461 132.579 151.391 132.724 151.452 132.898 151.597 132.968 153.336 133.814 154.105 135.103 154.133 136.486 154.161 137.896 153.438 139.391 152.214 140.605 152.097 140.72 152.096 140.91 152.212 141.027 152.328 141.145 152.517 141.146 152.635 141.03M138.845 141.55C139.227 141.906 139.708 142.397 140.206 142.806 140.576 143.11 140.957 143.367 141.317 143.506 142.09 143.805 142.933 143.735 143.743 143.443 144.872 143.036 145.933 142.2 146.636 141.469 146.744 141.358 146.741 141.18 146.631 141.072 146.52 140.964 146.342 140.966 146.234 141.077 145.575 141.743 144.583 142.497 143.537 142.867 142.867 143.104 142.174 143.186 141.534 142.941 141.226 142.823 140.904 142.598 140.587 142.34 140.098 141.941 139.627 141.459 139.253 141.112 139.132 140.999 138.942 141.006 138.83 141.127 138.717 141.248 138.724 141.437 138.845 141.55" fill="#FF269E"/>
    <path d="M151.83 132.104C150.432 129.549 149.429 126.527 148.929 123.43 148.43 120.339 148.431 117.171 149.07 114.311 149.108 114.141 149.001 113.972 148.831 113.934 148.661 113.896 148.492 114.003 148.454 114.173 147.795 117.108 147.779 120.361 148.297 123.533 148.814 126.7 149.864 129.785 151.306 132.392 151.385 132.537 151.567 132.59 151.712 132.51 151.856 132.431 151.909 132.249 151.83 132.104M127.46 158.058C129.229 157.537 131.162 156.824 133.183 156.379 134.447 156.101 135.746 155.929 137.06 155.98 138.727 156.037 140.209 156.629 141.781 156.853 142.192 156.911 142.61 156.945 143.037 156.941 143.495 156.937 143.94 156.895 144.376 156.831 146.075 156.586 147.647 155.981 149.447 155.917 150.677 155.87 151.864 156.022 153.019 156.257 154.862 156.631 156.627 157.223 158.347 157.649 158.527 157.695 158.709 157.586 158.755 157.406 158.8 157.226 158.691 157.043 158.511 156.998 156.784 156.554 155.016 155.933 153.163 155.553 151.953 155.304 150.707 155.161 149.418 155.216 147.593 155.298 146.005 155.933 144.282 156.185 143.875 156.245 143.46 156.28 143.033 156.281 142.639 156.283 142.255 156.248 141.876 156.193 140.281 155.96 138.775 155.368 137.084 155.308 135.713 155.266 134.359 155.455 133.043 155.755 131.011 156.218 129.068 156.948 127.289 157.484 127.131 157.531 127.041 157.698 127.088 157.856 127.135 158.014 127.302 158.105 127.46 158.058M127.274 60.281C121.939 59.082 118.3 56.407 116.203 52.721 114.121 49.06 113.556 44.41 114.355 39.228 114.378 39.08 114.276 38.941 114.128 38.917 113.98 38.894 113.841 38.996 113.818 39.144 112.974 44.467 113.546 49.251 115.679 53.018 117.845 56.842 121.614 59.624 127.143 60.865 127.304 60.901 127.464 60.8 127.5 60.639 127.536 60.478 127.435 60.318 127.274 60.281M165.147 60.012C161.313 61.94 157.342 61.976 153.689 60.751 150.055 59.532 146.729 57.068 144.17 53.918 144.07 53.795 143.889 53.776 143.766 53.876 143.643 53.975 143.624 54.156 143.723 54.279 146.338 57.536 149.744 60.105 153.483 61.363 157.287 62.643 161.43 62.57 165.417 60.546 165.564 60.471 165.623 60.291 165.549 60.144 165.475 59.997 165.294 59.938 165.147 60.012M128.138 70.525C124.165 70.337 120.008 69.561 116.19 68.061 112.379 66.564 108.897 64.341 106.312 61.138 106.217 61.019 106.043 60.999 105.924 61.094 105.805 61.189 105.786 61.363 105.881 61.482 108.496 64.801 112.026 67.164 115.935 68.708 119.818 70.242 124.068 70.963 128.112 71.122 128.277 71.129 128.417 71.001 128.424 70.836 128.431 70.671 128.303 70.532 128.138 70.525M193.097 124.487C193.204 125.673 193.216 126.857 193.198 128.041 193.155 130.838 192.911 133.635 193.051 136.438 193.181 139.034 193.554 141.46 194.155 143.83 194.755 146.198 195.582 148.509 196.586 150.884 196.656 151.05 196.847 151.128 197.014 151.059 197.18 150.989 197.258 150.798 197.189 150.631 196.216 148.281 195.429 145.994 194.843 143.656 194.261 141.328 193.878 138.95 193.745 136.403 193.598 133.614 193.86 130.831 193.87 128.047 193.875 126.84 193.826 125.634 193.692 124.427 193.675 124.263 193.528 124.143 193.364 124.16 193.2 124.176 193.08 124.323 193.097 124.487M106.671 134.199C106.89 135.101 107.064 136.013 107.216 136.928 107.823 140.583 107.899 144.329 107.395 148.02 106.77 152.597 105.296 157.084 103.049 161.177 102.647 161.904 102.204 162.612 101.734 163.308 100.424 165.248 98.892 167.081 97.525 169.004 96.93 169.841 96.375 170.7 95.862 171.577 95.783 171.708 95.824 171.879 95.955 171.959 96.086 172.038 96.258 171.997 96.337 171.866 96.806 171.127 97.32 170.413 97.839 169.697 99.05 168.028 100.336 166.386 101.529 164.708 102.276 163.657 102.98 162.587 103.589 161.474 105.881 157.317 107.384 152.759 108.031 148.108 108.553 144.35 108.546 140.527 107.882 136.813 107.716 135.883 107.499 134.962 107.25 134.049 107.209 133.889 107.045 133.793 106.885 133.834 106.726 133.876 106.629 134.039 106.671 134.199M118.002 164.745C116.868 164.888 115.815 165.305 114.824 165.889 112.642 167.172 110.755 169.234 108.721 170.46 106.929 171.541 104.921 172.071 102.868 172.233 100.792 172.397 98.669 172.186 96.672 171.752 96.507 171.715 96.342 171.82 96.305 171.985 96.268 172.151 96.373 172.315 96.538 172.352 98.592 172.822 100.779 173.072 102.92 172.917 105.081 172.76 107.194 172.192 109.08 171.058 111.115 169.834 113.025 167.811 115.186 166.494 116.094 165.94 117.043 165.503 118.086 165.338 118.249 165.314 118.363 165.163 118.34 164.999 118.316 164.836 118.165 164.722 118.002 164.745M186.887 156.018C188.016 158.593 188.949 161.337 190.257 163.848 191.144 165.553 192.208 167.145 193.579 168.525 193.683 168.632 193.854 168.634 193.96 168.53 194.067 168.426 194.069 168.255 193.965 168.149 192.659 166.787 191.675 165.213 190.825 163.555 189.539 161.047 188.57 158.334 187.434 155.776 187.367 155.625 187.191 155.557 187.04 155.623 186.889 155.69 186.82 155.867 186.887 156.018" fill="#FF269E"/>
    <path d="M186.645 155.839C185.904 159.594 185.388 163.372 185.532 167.084 185.629 169.604 186.03 172.094 186.867 174.525 186.917 174.671 187.075 174.748 187.22 174.698 187.366 174.648 187.443 174.49 187.393 174.345 186.375 171.368 186.025 168.303 186.088 165.202 186.15 162.137 186.615 159.038 187.232 155.955 187.264 155.793 187.159 155.636 186.997 155.604 186.835 155.572 186.677 155.677 186.645 155.839M193.073 137.468C192.667 143.097 192.004 148.799 192.264 154.403 192.439 158.177 193.035 161.905 194.379 165.536 194.433 165.684 194.596 165.759 194.744 165.705 194.891 165.651 194.966 165.488 194.912 165.341 193.609 161.761 193.057 158.089 192.891 154.375 192.643 148.794 193.276 143.116 193.67 137.51 193.681 137.346 193.557 137.202 193.393 137.191 193.228 137.179 193.085 137.303 193.073 137.468M173.836 96.756C175.835 97.806 177.565 99.343 178.915 101.156 180.267 102.972 181.24 105.07 181.655 107.283 181.687 107.455 181.853 107.57 182.025 107.538 182.198 107.506 182.312 107.341 182.28 107.168 181.865 104.852 180.887 102.636 179.47 100.742 178.057 98.855 176.21 97.291 174.11 96.225 173.963 96.149 173.783 96.207 173.707 96.353 173.631 96.5 173.689 96.681 173.836 96.756M105.716 108.945C105.897 106.463 106.288 103.991 107.538 102.048 108.334 100.81 109.482 99.792 111.148 99.128 111.299 99.068 111.372 98.897 111.312 98.747 111.252 98.596 111.082 98.523 110.931 98.583 109.136 99.296 107.9 100.395 107.041 101.728 105.738 103.749 105.31 106.318 105.119 108.901 105.107 109.066 105.231 109.209 105.396 109.221 105.56 109.233 105.704 109.109 105.716 108.945M97.538 73.287C101.554 73.411 105.161 73.471 108.663 72.709 110.984 72.204 113.257 71.339 115.574 69.907 115.701 69.829 115.741 69.663 115.663 69.536 115.585 69.409 115.419 69.37 115.292 69.447 113.025 70.828 110.803 71.65 108.54 72.134 105.079 72.872 101.521 72.815 97.556 72.689 97.391 72.684 97.253 72.814 97.2478605 72.979 97.243 73.144 97.373 73.282 97.538 73.287M131.167 24.644C131.202 20.855 131.791 17.138 133.037 13.675 134.284 10.212 136.187 7.004 138.832 4.229 138.933 4.123 138.929 3.956 138.823 3.855 138.718 3.754 138.55 3.758 138.449 3.863 135.748 6.69 133.807 9.961 132.525 13.49 131.247 17.008 130.623 20.784 130.568978 24.637 130.567 24.802 130.7 24.937 130.865 24.9390224 131.03 24.941 131.166 24.809 131.167 24.644M151.794 19.767C153.231 16.113 155.543 12.977 158.518 10.631 161.441 8.325 165.001 6.784 168.983 6.245 169.131 6.225 169.236 6.088 169.215 5.939 169.195 5.79 169.058 5.686 168.91 5.706 164.827 6.256 161.18 7.842 158.178 10.199 155.12 12.599 152.728 15.803 151.238 19.547 151.177 19.701 151.253 19.875 151.406 19.935 151.56 19.996 151.734 19.921 151.794 19.767M146.172 16.442C147.21 13.654 148.574 10.937 150.352 8.564 152.129 6.193 154.319 4.166 157.009 2.756 157.14 2.687 157.191 2.525 157.123 2.394 157.054 2.262 156.892 2.211 156.76 2.28 153.993 3.721 151.737 5.797 149.903 8.227 148.084 10.638 146.681 13.397 145.612 16.232 145.554 16.386 145.633 16.559 145.787 16.617 145.942 16.675 146.115 16.596 146.172 16.442M173.368 59.791C175.534 57.001 177.965 54.505 180.734 52.519 183.501 50.533 186.605 49.056 190.111 48.304 190.259 48.272 190.354 48.126 190.322 47.978 190.291 47.829 190.145 47.735 189.996 47.766 186.41 48.528 183.235 50.031 180.401 52.055 177.584 54.067 175.104 56.595 172.896 59.424 172.795 59.554 172.818 59.742 172.949 59.844 173.079 59.945 173.267 59.921 173.368 59.791M187.069 35.451C188.037 34.271 189.046 33.253 190.135 32.431 191.293 31.556 192.541 30.904 193.935 30.529 194.079 30.491 194.164 30.343 194.126 30.2 194.088 30.056 193.941 29.97 193.797 30.008 192.33 30.388 191.009 31.056 189.786 31.966 188.657 32.807 187.612 33.857 186.607 35.071 186.502 35.198 186.521 35.387 186.648 35.492 186.775 35.597 186.964 35.579 187.069 35.451M195.263 46.753C196.861 45.596 198.619 44.581 200.48 43.977 202.328 43.378 204.279 43.185 206.272 43.664 206.412 43.698 206.554 43.611 206.588 43.47 206.623 43.33 206.536 43.188 206.395 43.154 204.726 42.743 203.083 42.781 201.498 43.127 199.137 43.643 196.906 44.846 194.914 46.267 194.78 46.363 194.75 46.55 194.846 46.684 194.942 46.819 195.129 46.849 195.263 46.753" fill="#FF269E"/>
    <path d="M131.397,23.449 C130.274,20.907 129.095,18.657 127.644,16.62 C126.182,14.567 124.443,12.73 122.2,11.033 C122.082,10.943 121.913,10.966 121.823,11.085 C121.733,11.203 121.756,11.372 121.875,11.462 C124.064,13.13 125.762,14.931 127.185,16.945 C128.607,18.957 129.754,21.181 130.849,23.69 C130.915,23.841 131.092,23.91 131.243,23.843 C131.394,23.777 131.463,23.6 131.397,23.449" fill="#FF269E"/>
    <path d="M131.466 24.696C130.624 19.915 129.662 15.089 128.03 10.528 126.936 7.472 125.541 4.536 123.688 1.807 123.606 1.685 123.44 1.653 123.318 1.735 123.196 1.817 123.164 1.983 123.246 2.105 125.061 4.803 126.419 7.706 127.488 10.721 129.096 15.256 130.048 20.049 130.877 24.799 130.905 24.962 131.06 25.07 131.223 25.042 131.386 25.013 131.494 24.858 131.466 24.696M187.307 85.146C187.824 87.93 188.585 90.687 189.565 93.364 190.544 96.041 191.742 98.637 193.123 101.105 193.195 101.234 193.359 101.281 193.488 101.209 193.618 101.137 193.664 100.973 193.592 100.844 192.237 98.395 191.067 95.819 190.107 93.167 189.148 90.517 188.399 87.791 187.895 85.037 187.865 84.875 187.709 84.767 187.547 84.797 187.384 84.827 187.277 84.983 187.307 85.146M189.895 99.331C190.801 101.598 191.404 104.486 191.534 107.451 191.657 110.268 191.353 113.156 190.466 115.646 190.417 115.783 190.489 115.935 190.626 115.984 190.763 116.033 190.914 115.961 190.963 115.824 191.884 113.275 192.214 110.316 192.1 107.428 191.98 104.392 191.37 101.434 190.451 99.11 190.39 98.957 190.216 98.882 190.063 98.943 189.909 99.004 189.834 99.178 189.895 99.331M114.553 27.987C114.366 24.361 113.209 21.052 111.116 18.587 109.039 16.14 106.044 14.521 102.174 14.235 102.024 14.223 101.893 14.335 101.882 14.485 101.87 14.635 101.983 14.767 102.133 14.778 105.828 15.073 108.678 16.634 110.656 18.977 112.662 21.353 113.774 24.531 113.956 28.018 113.964 28.183 114.105 28.31 114.27 28.302 114.435 28.293 114.561 28.152 114.553 27.987M102.184 59.086C96.302 57.586 92.392 53.547 90.457 48.573 88.527 43.615 88.553 37.727 90.557 32.473 90.611 32.333 90.54 32.174 90.399 32.12 90.258 32.066 90.1 32.137 90.046 32.278 87.974 37.66 87.928 43.701 89.899 48.79 91.893 53.94 95.949 58.113 102.036 59.665 102.196 59.706 102.359 59.61 102.4 59.45 102.441 59.29 102.344 59.127 102.184 59.086M189.479 82.042C192.115 82.812 194.514 84.411 196.547 86.413 198.588 88.422 200.264 90.837 201.426 93.255 201.49 93.39 201.652 93.447 201.786 93.383 201.921 93.318 201.978 93.157 201.914 93.023 200.74 90.541 199.046 88.054 196.964 85.991 194.866 83.912 192.375 82.267 189.647 81.468 189.489 81.422 189.322 81.513 189.276 81.671 189.23 81.83 189.321 81.996 189.479 82.042M199.486 109.723C200.109 110.618 200.345 111.501 200.365 112.399 200.413 114.547 199.309 116.759 199.288 119.352 199.286 119.501 199.406 119.623 199.555 119.624006 199.704 119.625 199.826 119.505 199.827 119.356 199.851 116.758 200.941 114.542 200.913 112.389 200.899 111.387 200.658 110.396 199.98 109.385 199.887 109.249 199.701 109.214 199.565 109.307 199.429 109.4 199.393 109.586 199.486 109.723" fill="#FF269E"/>
    <path d="M191.85,109.546 C192.409,110.629 192.952,111.565 194.053,112.162 C196.024,113.232 198.851,112.13 200.015,110.337 M196.603,112.21 C197.145,110.312 196.592,109.104 195.043,107.954 M194.744,107.489 C196.499,107.634 197.644,106.408 197.845,104.723 M197.865,104.374 C198.976,104.786 200.201,104.947 201.319,104.48" stroke="#FF269E" stroke-linecap="round" stroke-linejoin="round"/>
    <path d="M137.514,51.585 C135.654,50.499 133.766,49.533 131.826,48.683 C129.887,47.835 127.897,47.103 125.839,46.469 C125.696,46.424 125.543,46.504 125.498,46.647 C125.453,46.791 125.534,46.944 125.677,46.988 C127.71,47.631 129.672,48.375 131.588,49.223 C133.504,50.071 135.374,51.024 137.212,52.101 C137.355,52.184 137.538,52.136 137.622,51.994 C137.705,51.851 137.657,51.668 137.514,51.585" fill="#FF269E"/>
    <path d="M137.49 51.209C133.373 46.679 129.285 41.835 126.49 36.405 124.634 32.8 123.345 28.937 123.016 24.724 123.005 24.572 122.872 24.458 122.72 24.469 122.568 24.481 122.454 24.614 122.465 24.766 122.781 29.059 124.067 33.006 125.95 36.682 128.759 42.164 132.893 47.044 137.047 51.611 137.158 51.733 137.348 51.742 137.47 51.631 137.592 51.52 137.601 51.331 137.49 51.209M127.665 158.412C130.12 158.246 132.307 157.294 134.622 156.824 135.185 156.71 135.756 156.627 136.34 156.591 137.047 156.548 137.71 156.638 138.354 156.786 139.974 157.158 141.481 157.877 143.217 157.936 143.989 157.96 144.712 157.861 145.412 157.702 147.009 157.34 148.479 156.656 150.17 156.562 150.939 156.519 151.681 156.578 152.411 156.685 154.201 156.947 155.919 157.492 157.765 157.61 157.953 157.622 158.116 157.479 158.129 157.291 158.141 157.102 157.998 156.939 157.809 156.927 155.983 156.806 154.284 156.259 152.512 155.997 151.737 155.882 150.948 155.821 150.131 155.866 148.4 155.963 146.891 156.65 145.258 157.026 144.613 157.175 143.948 157.273 143.237 157.254 141.546 157.213 140.074 156.512 138.493 156.166 137.791 156.012 137.068 155.924 136.3 155.978 133.886 156.141 131.703 157.103 129.345 157.585 128.783 157.699 128.212 157.785 127.625 157.825 127.462 157.836 127.34 157.976 127.351 158.138 127.362 158.301 127.503 158.423 127.665 158.412" fill="#FF269E"/>
    <path d="M129.242 158.573C132.582 159.079 135.981 159.971 139.39 160.476 140.874 160.695 142.359 160.839 143.842 160.853 145.746 160.868 147.578 160.677 149.371 160.347 152.085 159.849 154.708 159.041 157.37 158.239 157.545 158.186 157.645 158.002 157.593 157.827 157.541 157.652 157.356 157.552 157.181 157.604 154.538 158.379 151.931 159.147 149.241 159.634 147.49 159.952 145.705 160.153 143.847 160.143 142.396 160.137 140.942 159.999 139.488 159.795 136.077 159.316 132.671 158.464 129.327 157.991 129.167 157.967 129.017 158.078 128.993 158.239 128.97 158.4 129.081 158.55 129.242 158.573M146.271 141.598C146.363 141.536 146.461 141.48 146.555 141.409 147.276 140.87 148.117 140.171 149.035 139.748 149.705 139.438 150.398 139.246 151.068 139.35 151.228 139.379 151.38 139.271 151.408 139.111 151.436 138.952 151.329 138.799 151.169 138.771 150.386 138.619 149.555 138.786 148.759 139.135 147.775 139.567 146.81 140.233 146.119 140.895 146.032 140.979 145.959 141.07 145.883 141.155 145.761 141.262 145.749 141.448 145.855 141.57 145.962 141.692 146.149 141.705 146.271 141.598M139.727 141.592C139.241 140.753 138.649 140.064 137.927 139.564 137.197 139.057 136.337 138.749 135.354 138.63 135.155 138.606 134.974 138.747 134.949 138.946 134.925 139.145 135.067 139.327 135.266 139.351 136.126 139.457 136.868 139.744 137.518 140.17 138.177 140.601 138.749 141.174 139.226 141.901 139.312 142.04 139.493 142.083 139.632 141.997 139.77 141.912 139.813 141.73 139.727 141.592M184.09 132.784C186.66 131.99 188.909 130.729 190.642 128.978 192.378 127.223 193.594 124.977 194.112 122.23 194.148 122.038 194.021 121.852 193.828 121.816 193.636 121.78 193.45 121.907 193.414 122.1 192.933 124.701 191.784 126.825 190.154 128.499 188.506 130.193 186.368 131.43 183.913 132.222 183.758 132.271 183.672 132.437 183.721 132.592 183.77 132.747 183.936 132.833 184.09 132.784M148.976 114.854C150.168 112.523 151.821 110.396 153.805 108.656 155.782 106.923 158.088 105.574 160.608 104.812 163.548 103.922 166.745 104.002 169.737 104.845 172.724 105.686 175.509 107.289 177.625 109.483 177.779 109.642 178.032 109.646 178.191 109.493 178.35 109.339 178.355 109.086 178.201 108.927 175.987 106.635 173.077 104.95 169.95 104.082 166.815 103.211 163.466 103.162 160.394 104.113 157.782 104.921 155.39 106.329 153.354 108.146 151.325 109.957 149.651 112.173 148.45 114.589 148.377 114.734 148.436 114.911 148.581 114.984 148.726 115.058 148.903 114.999 148.976 114.854M135.522 111.483C132.508 106.797 127.501 104.556 122.409 104.541929 117.823 104.529 113.134 106.289 109.854 109.718 109.675 109.905 109.495 110.091 109.338 110.298 109.18 110.506 109.051 110.728 108.915 110.952 108.819 111.071 108.838 111.245 108.956 111.34 109.075 111.436 109.249 111.417 109.344 111.299 109.527 111.125 109.72 110.972 109.9 110.798 110.078 110.627 110.244 110.444 110.417 110.27 113.626 107.063 118.026 105.319 122.409 105.302 127.282 105.282 132.094 107.353 135.028 111.805 135.117 111.941 135.3 111.98 135.436 111.891 135.572 111.802 135.611 111.62 135.522 111.483M113.652 114.898C114.124 115.134 114.592 115.35 115.064 115.529 117.11 116.304 119.14 116.563 121.162 116.471 123.614 116.36 126.07 115.689 128.605 114.613 128.76 114.548 128.833 114.369 128.768 114.214 128.703 114.06 128.524 113.987 128.37 114.052 125.901 115.076 123.513 115.704 121.133 115.8 119.197 115.878 117.275 115.575 115.295 114.89 114.835 114.731 114.368 114.563 113.899 114.363 113.751 114.295 113.576 114.359 113.508 114.507 113.44 114.654 113.504 114.83 113.652 114.898" fill="#FF269E"/>
    <path d="M157.69 113.423C160.188 115.058 162.919 116.063 165.66 116.192 168.167 116.309 170.727 115.77 173.018 114.218 173.252 114.059 173.473 113.878 173.696 113.694 173.826 113.601 173.856 113.421 173.763 113.292 173.671 113.163 173.491 113.133 173.362 113.225 173.126 113.371 172.885 113.497 172.651 113.632 170.388 114.942 168.061 115.565 165.691 115.468 163.062 115.36 160.429 114.457 158.008 112.927 157.872 112.839 157.689 112.879 157.601 113.016 157.513 113.152 157.553 113.335 157.69 113.423M105.706 127.845C105.739 127.714 105.79 127.604 105.808 127.472 105.824 127.349 105.808 127.225 105.81 127.102 105.848 124.774 106.381 122.65 107.237 120.646 108.101 118.624 109.309 116.735 110.631 114.857 110.717 114.734 110.813 114.617 110.888 114.487 110.94 114.396 110.973 114.303 111.018 114.208 111.132 114.054 111.099 113.837 110.945 113.723 110.792 113.61 110.574 113.642 110.461 113.796 110.37 113.883 110.277 113.96 110.194 114.054 110.072 114.191 109.971 114.345 109.863 114.492 108.183 116.788 106.78 119.177 105.909 121.761 105.329 123.483 104.978 125.298 104.997 127.248 104.998 127.33 104.99 127.414 105.003 127.496 105.025 127.628 105.076 127.737 105.118 127.865 105.123 128.027 105.259 128.154 105.422 128.149143 105.584 128.144 105.712 128.007 105.706 127.845M106.765 130.586C109.018 127.879 111.967 125.457 115.225 123.57 118.477 121.687 122.036 120.338 125.516 119.767 125.716 119.734 125.851 119.544 125.818 119.344 125.784 119.145 125.594 119.01 125.395 119.043 121.84 119.653 118.21 121.059 114.897 123.007 111.587 124.952 108.593 127.437 106.311 130.211 106.207 130.336 106.225 130.522 106.35 130.625 106.475 130.729 106.661 130.711 106.765 130.586" fill="#FF269E"/>
    <path d="M115.959,159.626 C115.922,159.167 115.909,158.712 115.873,158.257 C115.546,154.067 115.597,150.004 116.218,145.983 C116.908,141.518 118.14,137.118 119.671,132.722 C120.471,130.422 121.313,128.059 122.301,125.765 C123.086,123.945 123.982,122.179 124.986,120.501 C125.138,120.247 125.299,120 125.442,119.743 C125.539,119.568 125.618,119.389 125.71,119.212 C125.816,119.056 125.776,118.843 125.62,118.736 C125.465,118.63 125.252,118.67 125.145,118.826 C124.892,119.142 124.636,119.454 124.407,119.79 C123.507,121.114 122.802,122.576 122.119,124.047 C120.849,126.783 119.823,129.657 118.857,132.44 C117.315,136.887 116.068,141.338 115.387,145.857 C114.77,149.949 114.485,154.113 115.108,158.343 C115.176,158.802 115.278,159.253 115.376,159.711 C115.399,159.872 115.549,159.983 115.71,159.96 C115.87,159.937 115.982,159.787 115.959,159.626" fill="#FF269E"/>
    <path d="M116.164 160.451C116.196 160.062 116.245 159.677 116.283 159.292 116.632 155.751 117.471 152.375 118.885 149.212 120.458 145.695 122.637 142.432 125.204 139.47 127.262 137.096 129.613 134.984 131.781 132.708 132.721 131.72 133.628 130.701 134.462 129.617 135.677 128.041 136.726 126.365 137.7 124.642 139.943 120.67 141.776 116.449 144.315 112.66 146.447 109.481 149.117 106.496 152.079 103.825 154.738 101.428 157.649 99.312 160.582 97.479 160.85 97.311 161.131 97.165 161.382 96.977 161.448 96.928 161.501 96.87 161.562 96.816 161.742 96.71 161.803 96.478 161.698 96.297 161.592 96.116 161.36 96.055 161.179 96.161 161.101 96.187 161.024 96.206 160.948 96.24 160.658 96.371 160.392 96.554 160.117 96.719 157.106 98.528 154.19 100.74 151.495 103.179 148.485 105.903 145.773 108.947 143.609 112.188 141.064 115.999 139.227 120.242 136.981 124.237 136.03 125.928 135.004 127.574 133.817 129.121 133.002 130.184 132.116 131.183 131.196 132.152 129.025 134.442 126.669 136.567 124.608 138.954 121.996 141.98 119.777 145.309 118.186 148.901 116.749 152.146 115.737 155.6 115.576 159.241 115.558 159.637 115.567 160.034 115.575 160.433 115.57 160.595 115.698 160.731 115.861 160.736142 116.023 160.741 116.159 160.613 116.164 160.451M136.742 109.853C138.905 106.805 141.092 103.762 143.416 100.827 144.959 98.877 146.561 96.973 148.268 95.156 151.838 91.349 155.62 87.678 159.214 83.861 160.762 82.216 162.276 80.544 163.724 78.824 164.456 77.954 165.148 77.048 165.821 76.127 166.822 74.757 167.782 73.352 168.771 71.981 169.657 70.749 170.693 69.604 171.557 68.347 171.936 67.795 172.268 67.217 172.57 66.622 172.65 66.481 172.601 66.302 172.461 66.222 172.32 66.143 172.141 66.192 172.061 66.332 171.781 66.764 171.466 67.168 171.158 67.581 170.952 67.857 170.754 68.138 170.546 68.413 169.751 69.458 168.902 70.469 168.14 71.527 167.154 72.898 166.197 74.302 165.198 75.672 164.536 76.58 163.856 77.473 163.136 78.33 161.7 80.042 160.197 81.704 158.66 83.341 155.072 87.163 151.297 90.842 147.733 94.655 146.018 96.493 144.404 98.413 142.861 100.39 140.551 103.351 138.398 106.434 136.26 109.515 136.166 109.648 136.199 109.832 136.332 109.925 136.465 110.018 136.648 109.986 136.742 109.853M117.972 101.024C119.411 98.658 121.054 96.432 122.583 94.127 123.243 93.133 123.879 92.122 124.474 91.084 124.791 90.53 125.085 89.963 125.367 89.388 126.013 88.072 126.6 86.719 127.29 85.429 128.064 83.977 128.863 82.548 129.68 81.131 130.663 79.425 131.703 77.757 132.711 76.066 132.964 75.643 133.202 75.212 133.45 74.786 133.542 74.64 133.499 74.447 133.353 74.355 133.207 74.262 133.014 74.305 132.921 74.451 132.685 74.79 132.444 75.123 132.217 75.467 131.311 76.843 130.479 78.265 129.643 79.684 128.601 81.454 127.596 83.249 126.625 85.075 125.935 86.375 125.348 87.737 124.703 89.064 124.43 89.626 124.146 90.181 123.84 90.722 123.452 91.406 123.043 92.077 122.626 92.742 120.941 95.426 119.076 97.988 117.466 100.722 117.383 100.862 117.429 101.042 117.568 101.126 117.707 101.209 117.888 101.164 117.972 101.024M181.379 150.942C181.171 152.752 181.043 154.577 180.954 156.406 180.82 159.138 180.772 161.879 180.675 164.598 180.574 167.425 180.419 170.323 180.782 173.131 181.028 175.027 181.509 176.883 182.393 178.65 184.17 182.204 186.982 184.866 190.25 187.037 195.029 190.213 200.786 192.333 205.633 194.699 209.779 196.722 213.6 199.444 217.639 201.691 219.399 202.671 221.199 203.561 223.084 204.269 224.251 204.707 225.438 205.048 226.638 205.329 231.358 206.432 236.282 206.583 240.936 208.099 243.268 208.859 245.432 209.887 247.505 211.073 250.646 212.87 253.577 215.029 256.554 217.187 258.154 218.347 259.827 219.391 261.43 220.537 262.107 221.021 262.771 221.522 263.411 222.059 265.482 223.794 267.066 226.183 268.376 228.808 270.33 232.722 271.672 237.161 273.05 240.821 274.633 245.025 276.756 249.116 278.335 253.366 279.006 255.171 279.577 257.006 279.964 258.891 280.904 263.471 281.215 268.109 281.229 272.764 281.251 279.785 280.599 286.842 280.394 293.795 280.387 294.032 280.573 294.23 280.809 294.237191 281.046 294.244 281.243 294.058 281.25 293.821 281.465 286.859 282.127 279.793 282.115161 272.762 282.107 268.048 281.797 263.35 280.851 258.709 280.457 256.778 279.875 254.898 279.19 253.049 277.615 248.796 275.495 244.702 273.916 240.496 272.531 236.807 271.18 232.334 269.215 228.39 267.847 225.644 266.18 223.154 264.015 221.338 263.356 220.786 262.673 220.27 261.977 219.772 260.375 218.627 258.704 217.584 257.106 216.425 254.101 214.249 251.141 212.07 247.969 210.261 245.84 209.047 243.615 207.999 241.22 207.224 236.538 205.71 231.588 205.56 226.84 204.463 225.675 204.194 224.523 203.867 223.391 203.446 221.545 202.76 219.78 201.894 218.055 200.94 213.997 198.698 210.155 195.982 205.99 193.966 201.162 191.631 195.428 189.55 190.666 186.409 187.498 184.32 184.763 181.76 183.033 178.328 182.18 176.637 181.717 174.858 181.475 173.04 181.105 170.27 181.246 167.41 181.331 164.62 181.414 161.903 181.447 159.164 181.567 156.434 181.647 154.618 181.766 152.806 181.964 151.007 181.982 150.846 181.865 150.7 181.704 150.682 181.542 150.664 181.397 150.78 181.379 150.942M116.826 164.773C116.836 164.773 116.851 164.771 116.872 164.766 116.848 164.605 116.958 164.455 117.119 164.43 117.279 164.406 117.43 164.516 117.454 164.677 117.485 164.695 117.492 164.682 117.512 164.711 117.583 164.816 117.55 164.962 117.569 165.089 117.755 166.347 117.908 167.624 117.97 168.903 118.04 170.338 117.994 171.774 117.754 173.19 117.078 177.183 115.321 180.65 112.933 183.684 109.38 188.196 104.425 191.747 99.572 194.642 98.021 195.567 96.441 196.442 94.845 197.289 91.135 199.256 87.337 201.072 83.618 203.009 81.233 204.251 78.96 205.714 76.557 206.909 75.512 207.429 74.444 207.898 73.331 208.279 66.81 210.514 59.779 212.016 53.29 214.6 49.001 216.307 44.95 218.488 41.449 221.683 39.041 223.88 36.788 226.313 34.826 228.957 32.872 231.592 31.207 234.437 29.967 237.468 29.562 238.46 29.204 239.467 28.876 240.484 27.547 244.602 26.694 248.88 25.147 252.928 23.518 257.191 21.485 261.509 20.028 265.948 19.063 268.889 18.351 271.884 18.188 274.952 17.772 282.757 19.996 290.415 20.317 298.212 20.397 300.176 20.314 302.144 20.091 304.121 20.077 304.299 19.921 304.431 19.743 304.418018 19.566 304.402 19.433 304.246 19.448 304.069 19.498 302.901 19.474 301.743 19.434 300.586 19.394 299.424 19.328 298.266 19.232 297.109 18.782 291.657 17.704 286.253 17.306 280.817 17.161328 278.851 17.111 276.88 17.22 274.9 17.394 271.747 18.127 268.671 19.124 265.65 20.594 261.199 22.64 256.87 24.282 252.596 25.83 248.566 26.685 244.305 28.016 240.206 28.353 239.168 28.72 238.139 29.136 237.128 30.41 234.03 32.116 231.123 34.12 228.432 36.119 225.746 38.414 223.275 40.867 221.044 44.452 217.785 48.593 215.556 52.98 213.818 59.486 211.241 66.533 209.746 73.072 207.519 74.151 207.151 75.188 206.697 76.202 206.195 78.603 205.005 80.874 203.549 83.256 202.313 86.976 200.383 90.776 198.574 94.487 196.614 96.074 195.775 97.644 194.909 99.185 193.993 103.969 191.151 108.858 187.671 112.364 183.235 114.684 180.298 116.397 176.941 117.059 173.072 117.246 171.98 117.312 170.875 117.297 169.769 117.278 168.264 117.111 166.755 116.896 165.273 116.874 165.123 116.852 164.973 116.829 164.823 116.827 164.809 116.814 164.791 116.822 164.779L116.826 164.773" fill="#FF269E"/>
    <path d="M117.267 168.065C117.259 168.162 117.244 168.256 117.242 168.353 117.235 168.733 117.278 169.114 117.29 169.497 117.419 173.71 117.008 178.063 116.01 182.268 115.013 186.465 113.418 190.507 111.209 194.124 110.986 194.489 110.707 194.822 110.525 195.208 110.503 195.255 110.497 195.301 110.481 195.35 110.378 195.505 110.418 195.714 110.573 195.818 110.727 195.922 110.936 195.881 111.04 195.727 111.081 195.693 111.121 195.669 111.157 195.629 111.45 195.306 111.641 194.902 111.87 194.53 114.14 190.856 115.733 186.719 116.734 182.438 117.732 178.168 118.129 173.748 117.972 169.474 117.958 169.086 117.966 168.697 117.915 168.315 117.902 168.217 117.875 168.124 117.855 168.028 117.845 167.865 117.705 167.742 117.542 167.752 117.38 167.763 117.257 167.903 117.267 168.065M198.195 218.345C198.162 218.366 198.128 218.384 198.089 218.399 197.892 218.476 197.677 218.497 197.473 218.55 194.791 219.247 192.262 220.502 189.634 221.407 188.882 221.666 188.122 221.896 187.349 222.078 185.775 222.449 184.003 222.326 182.417 222.725 181.798 222.881 181.209 223.122 180.68 223.528L180.006 224.189C179.561 224.76 179.467 225.344 179.53 225.933 179.645 226.991 180.2 228.063 180.43 229.131 180.612 229.978 180.619 230.839 180.45 231.661 180.279 232.489 179.929 233.278 179.396 233.977 179.119 234.34 178.777 234.65 178.396 234.907 178.028 235.156 177.625 235.355 177.214 235.507 176.904 235.621 176.58 235.711 176.25 235.768 175.914 235.828 175.572 235.854 175.235 235.839 174.957 235.827 174.681 235.79 174.412 235.726 174.14 235.661 173.875 235.568 173.62 235.446 173.432 235.356 173.25 235.252 173.077 235.134 172.902 235.015 172.737 234.882 172.584 234.737 171.813 234.004 171.524 233.174 171.463 232.293 171.399 231.379 171.599 230.405 171.706 229.441 171.798 228.609 171.823 227.782 171.422 227.026 171.134 226.483 170.635 226.179 170.11 225.909 169.461 225.576 168.767 225.297 168.222 224.865 167.694 224.447 167.291 223.899 167.144 223.075 167.02 222.375 167.204 221.682 167.577 221.021 168.273 219.789 169.664 218.669 170.457 217.852 171.423 216.857 172.452 215.888 173.607 215.124 174.399 214.599 175.251 214.171 176.179 213.887 177.378 213.527 178.6 213.444 179.826 213.512 181.586 213.61 183.355 214.02 185.067 214.3 186.031 214.458 187.013 214.531 187.995 214.537 188.984 214.543 189.975 214.482 190.95 214.371 192.364 214.21 193.802 213.99 195.24 213.902 196.222 213.841 197.203 213.841 198.177 213.959 198.731 214.029 199.407 214.154 199.991 214.413 200.425 214.605 200.81 214.869 201.078 215.224 201.197 215.385 201.253 215.567 201.246 215.76 201.237 216.058 201.076 216.39 200.941 216.619 200.707 217.016 200.366 217.323 199.972 217.57 199.439 217.904 198.811 218.133 198.261 218.329 198.239 218.337 198.217 218.342 198.195 218.345zM198.586 217.57C198.942 217.425 199.305 217.258 199.622 217.039 199.912 216.838 200.156 216.589 200.313 216.277 200.361 216.183 200.415 216.066 200.454 215.944 200.481 215.858 200.52 215.767 200.465 215.7 200.268 215.453 199.983 215.284 199.673 215.155 199.158 214.942 198.565 214.851 198.079 214.801 197.157 214.7 196.228 214.712 195.299 214.78 193.878 214.884 192.458 215.12 191.061 215.296 190.05 215.424 189.022 215.5 187.995 215.506 186.961 215.512 185.927 215.446 184.911 215.292 183.231 215.036 181.496 214.653 179.772 214.573 178.67 214.522 177.571 214.597 176.496 214.929 175.669 215.181 174.912 215.565 174.205 216.03 173.111 216.748 172.136 217.659 171.218 218.595 170.568 219.257 169.489 220.12 168.776 221.089 168.355 221.662 168.053 222.267 168.161 222.896 168.254 223.433 168.516 223.79 168.859 224.064 169.352 224.457 169.987 224.701 170.575 225.004 171.286 225.37 171.933 225.814 172.322 226.548 172.822 227.491 172.834 228.516 172.719 229.553 172.62 230.455 172.421 231.366 172.481 232.222 172.526 232.861 172.729 233.465 173.288 233.997 173.4 234.104 173.523 234.202 173.651 234.289 173.782 234.378 173.92 234.457 174.061 234.525 174.25 234.615 174.448 234.684 174.65 234.732 174.855 234.781 175.066 234.809 175.278 234.818 175.542 234.829 175.81 234.808 176.073 234.762 176.342 234.714 176.607 234.64 176.86 234.547 177.195 234.424 177.524 234.262 177.823 234.06 178.111 233.865 178.373 233.632 178.582 233.356 179.02 232.783 179.307 232.135 179.447 231.455 179.588 230.77 179.58 230.053 179.428 229.346 179.191 228.244 178.629 227.135 178.51 226.044 178.419 225.204 178.561 224.373 179.196 223.558 179.32 223.398 179.456 223.247 179.601 223.105 179.744 222.965 179.896 222.834 180.054 222.712 180.697 222.217 181.412 221.917 182.166 221.726 183.756 221.325 185.533 221.446 187.112 221.073 190.117 220.363 192.908 218.892 195.841 217.945 196.523 217.725 197.198 217.412 197.914 217.384 198.004 217.381 198.077 217.404 198.166 217.417 198.329 217.384 198.489 217.448 198.586 217.57L198.586 217.57zM245.494 281.896C245.418 283.236 245.486 284.633 245.324 285.979 245.22 286.842 245.022 287.685 244.6 288.473 244.122 289.368 243.491 290.173 242.79 290.926 241.72 292.077 240.489 293.107 239.371 294.139 238.169 295.249 237.025 296.426 236.074 297.744 235.436 298.628 234.888 299.576 234.451 300.597 234.38 300.758 234.454 300.947 234.615 301.018 234.777 301.089 234.966 301.015 235.037 300.854 235.58 299.641 236.301 298.548 237.12 297.531 237.947 296.505 238.874 295.554 239.848 294.655 240.977 293.61 242.221 292.566 243.301 291.401 244.042 290.602 244.705 289.746 245.209 288.798 245.669 287.93 245.898 287.006 246 286.057 246.147 284.693 246.035 283.279 246.082 281.923 246.089 281.761 245.963 281.623 245.801 281.615 245.639 281.608 245.501 281.734 245.494 281.896M64.605 303.172C64.613 303.13 64.627 303.099 64.6260508 303.057 64.622 302.914 64.56 302.779 64.526 302.64 64.131 301.065 63.584 299.541 62.857 298.114 62.044 296.518 61.002 295.045 59.693 293.753 57.841 291.932 55.469 290.27 53.783 288.216 52.904 287.145 52.268 285.954 51.912 284.58 51.827 284.253 51.732 283.925 51.678 283.574 51.664 283.372 51.49 283.22 51.289 283.233 51.087 283.247 50.935 283.422 50.948 283.623 50.941 284.018 50.952 284.4 51.013 284.77 51.272 286.322 52.08 287.63 53.057 288.813 54.77 290.89 57.201 292.542 59.097 294.367 60.359 295.578 61.366 296.968 62.164 298.474 62.888 299.841 63.44 301.303 63.854 302.816 63.891 302.95 63.901 303.094 63.962 303.219 63.98 303.256 64.007 303.276 64.032 303.309 64.07 303.467 64.23 303.565 64.388 303.527 64.546 303.489 64.643 303.33 64.605 303.172M173.133 59.835C173.075 53.315 174.034 46.601 176.398 40.534 178.754 34.486 182.509 29.077 188.095 25.169 188.266 25.049 188.308 24.813 188.188 24.643 188.068 24.472 187.832 24.43 187.661 24.55 181.959 28.557 178.112 34.082 175.729 40.275 173.361 46.43 172.443 53.24 172.544 59.842 172.546 60.004 172.679 60.135 172.842 60.1330226 173.004 60.131 173.134 59.997 173.133 59.835M165.382 61.01C163.89 54.634 163.693 48.63 164.992 43.04 166.181 37.924 168.694 33.216 172.459 28.769 172.845 28.313 173.231 27.849 173.64 27.394 173.771 27.256 173.765 27.037 173.627 26.906 173.489 26.774 173.27 26.78 173.139 26.918 172.698 27.358 172.265 27.795 171.861 28.25 167.903 32.7 165.514 37.652 164.329 42.888 163.043 48.576 163.26 54.675 164.809 61.146 164.846 61.304 165.005 61.402 165.163 61.364 165.321 61.327 165.419 61.168 165.382 61.01" fill="#FF269E"/>
    <path d="M163.943,59.379 C161.352,49.332 160.337,38.044 163.081,28.118 C164.741,22.112 167.855,16.689 172.695,12.185 C173.202,11.713 173.712,11.236 174.253,10.779 C174.382,10.677 174.404,10.489 174.302,10.359 C174.2,10.23 174.012,10.208 173.883,10.31 C173.301,10.739 172.733,11.172 172.201,11.636 C167.109,16.075 164.083,21.79 162.403,27.931 C159.656,37.972 160.717,49.381 163.373,59.527 C163.414,59.684 163.575,59.779 163.732,59.738 C163.89,59.697 163.984,59.536 163.943,59.379" fill="#FF269E"/>
    <path d="M164.028,59.067 C161.461,55.977 159.28,52.669 157.513,49.159 C156.095,46.341 154.969,43.385 154.082,40.316 C153.863,39.557 153.648,38.796 153.457,38.023 C153.423,37.871 153.272,37.776 153.12,37.811 C152.968,37.845 152.873,37.996 152.907,38.148 C153.072,38.937 153.248,39.719 153.456,40.491 C154.3,43.617 155.492,46.599 156.937,49.45 C158.734,52.997 160.964,56.33 163.576,59.445 C163.68,59.569 163.866,59.586 163.991,59.482 C164.116,59.378 164.132,59.192 164.028,59.067" fill="#FF269E"/>
    <path d="M165.415 60.67C162.276 58.446 159.288 55.859 156.58 53.007 153.876 50.158 151.45 47.045 149.452 43.745 149.372 43.612 149.198 43.569 149.065 43.649 148.931 43.729 148.888 43.903 148.969 44.036 150.976 47.379 153.41 50.542 156.141 53.424 158.873 56.307 161.901 58.909 165.075 61.151 165.208 61.245 165.392 61.213 165.486 61.081 165.58 60.948 165.548 60.764 165.415 60.67M163.748 61.559C160.094 62.993 156.03 63.377 152.021 62.968 148.013 62.559 144.059 61.359 140.617 59.601 140.476 59.529 140.302 59.585 140.23 59.726 140.158 59.868 140.214 60.041 140.355 60.114 143.855 61.911 147.879 63.147 151.959 63.567 156.064 63.989 160.225 63.585 163.966 62.115 164.12 62.055 164.196 61.881 164.136 61.728 164.075 61.574 163.901 61.498 163.748 61.559M182.933 62.452C186.214 59.728 190.813 55.878 195.587 54.069 198.847 52.834 202.188 52.553 205.23 54.291 205.361 54.365 205.527 54.32 205.602 54.189 205.677 54.059 205.632 53.892 205.501 53.817 202.314 51.989 198.81 52.254 195.388 53.542 190.551 55.364 185.88 59.241 182.552 61.992 182.425 62.097 182.407 62.286 182.512 62.413 182.618 62.54 182.806 62.557 182.933 62.452M184.044 64.595C186.938 65.587 190.005 65.961 193.001 65.668 195.996 65.376 198.921 64.418 201.536 62.764 201.668 62.68 201.708 62.505 201.625 62.372 201.541 62.239 201.366 62.2 201.233 62.283 198.69 63.878 195.849 64.79 192.943 65.069 190.03 65.349 187.051 64.992 184.238 64.029 184.082 63.976 183.912 64.059 183.858 64.215 183.805 64.371 183.888 64.542 184.044 64.595M101.051 164.757C100.579 165.567 99.75 166.563 99.225 167.554 98.966 168.041 98.778 168.529 98.73 168.999 98.662 169.594 98.853 170.077 99.201 170.42 99.532 170.746 100.013 170.941 100.556 170.979 101.073 171.018 101.593 170.943 102.099 170.795 102.828 170.581 103.527 170.213 104.14 169.823 105.072 169.229 105.88 168.506 106.621 167.716 107.713 166.552 108.66 165.241 109.649 163.986 110.336 163.114 111.101 162.2 112.004 161.491 112.586 161.034 113.227 160.664 113.942 160.453 114.133 160.396 114.242 160.194 114.185 160.003 114.127 159.811 113.925 159.702 113.734 159.76 112.934 160.003 112.217 160.422 111.568 160.942 110.63 161.693 109.832 162.654 109.12 163.572 108.152 164.82 107.228 166.125 106.157 167.283 105.456 168.04 104.692 168.734 103.808 169.306 103.336 169.61 102.809 169.903 102.255 170.109 101.719 170.307 101.158 170.424 100.6 170.384 100.211 170.353 99.867 170.215 99.627 169.983 99.396 169.76 99.265 169.447 99.297 169.055 99.334 168.651 99.494 168.232 99.716 167.815 100.239 166.831 101.088 165.86 101.566 165.061 101.65 164.919 101.602 164.736 101.46 164.652 101.318 164.568 101.134 164.615 101.051 164.757" fill="#FF269E"/>
    <path d="M231.744,299.924 C233.457,296.618 235.275,293.429 236.274,289.819 C237.38,285.822 237.913,280.555 240.945,277.441 C245.733,272.524 252.919,281.992 252.971,286.416 C253.045,292.625 247.115,296.526 247.998,302.913 M51.81,304.528 C51.352,299.57 47.943,294.301 48.921,289.401 C49.424,286.879 51.248,284.941 52.599,282.857 C54.704,279.611 57.967,276.228 61.766,279.611 C66.175,283.538 66.543,290.126 68.171,295.243 C68.986,297.805 70.656,299.93 72.242,302.049 M181.475,171.87 C182.377,172.844 183.416,174.315 184.665,174.853 C187.064,175.888 189.103,173.054 189.931,171.307 C190.375,170.37 190.739,169.381 191.056,168.394 C191.076,168.332 191.296,167.48 191.364,167.477 C192.313,167.427 193.606,168.332 194.439,168.71 M194.404,168.779 C197.642,169.057 197.927,167.426 198.883,165.177 C199.744,163.155 198.189,160.615 197.995,158.569 C197.405,152.366 196.807,146.233 196.061,140.021 C195.567,135.909 194.881,131.777 196.029,127.71 C197.947,120.912 202.492,115.731 203.219,108.451 C204.062,99.998 204.507,97.995 201.64,92.852 M92.181,98.289 C93.636,95.34 95.283,99.875 95.351,104.2 C95.404,107.59 95.853,109.09 96.926,109.299 C97.98,109.505 98.57,105.951 98.614,104.546 C98.682,102.404 97.138,99.393 98.383,96.709 M98.323,97.2 C99.131,95.231 99.61,93.102 99.315,90.972 C99.07,89.197 98.228,87.563 98.07,85.766 C97.609,80.512 99.222,75.319 104.235,73.069 M112.094,71.652 C114.398,71.931 116.417,73.139 118.659,73.654 C121.322,74.266 124.099,74.092 126.808,74.262 C128.472,74.367 130.17,74.864 131.837,74.795 C136.499,74.604 140.707,71.658 145.475,71.82 C147.597,71.892 149.595,72.649 151.696,72.827 C153.325,72.965 154.988,72.456 156.595,72.663 C158.394,72.894 159.735,73.87 161.638,73.59 C164.721,73.136 167.524,71.177 169.852,69.226 M170.637,69.388 C172.543,68.873 174.75,68.809 176.628,69.511 M180.689,71.872 C184.274,74.695 185.232,79.291 185.816,83.577 C185.973,84.734 186.273,85.864 186.34,87.034 C186.419,88.416 186.332,89.796 186.452,91.178 C186.701,94.03 187.727,96.693 188.404,99.451 C189.249,102.897 189.893,106.586 191.273,109.861 M193.757,122.807 C194.026,121.536 194.253,120.052 194.829,118.87 C194.877,118.772 194.856,119.088 194.869,119.197 C194.891,119.382 194.911,119.568 194.929,119.754 C194.972,120.185 194.96,121.381 195.287,121.701 C195.543,121.952 196.816,120.666 196.942,120.526 C198.408,118.906 198.255,116.84 198.637,114.836 M199.075,89.385 C199.309,91.327 199.814,93.746 199.093,95.619 C198.803,96.372 198.375,97.064 197.883,97.701 C197.724,97.907 197.563,98.11 197.4,98.312 C197.315,98.418 197.018,98.576 197.144,98.628 C197.436,98.748 198.103,98.512 198.432,98.519 C199.489,98.543 200.5,99.024 201.144,99.864 M198.766,101.919 C199.461,101.271 200.264,100.546 201.227,100.356 M198.345,102.551 C200.147,101.887 201.71,103.53 202.046,105.161 M201.753,104.684 C202.313,106.623 202.426,108.699 202.313,110.708 M201.525,93.417 C201.84,90.877 203.334,87.135 200.582,80.71 C200.031,79.422 199.867,78.311 199.822,77.106 C199.768,75.675 199.881,74.109 199.711,71.956 C199.499,69.273 199.091,66.467 200.05,63.951 C200.981,61.506 202.229,59.211 202.629,56.59 C203.121,53.363 201.733,50.565 201.642,47.424 C201.612,46.376 201.948,45.36 202.313,44.391 C202.496,43.906 202.898,43.253 202.795,42.715 C202.605,41.724 201.552,41.265 201.16,40.399 M200.307,40.6 C200.553,40.279 200.763,39.954 200.855,39.557 C201.397,37.215 199.772,36.444 198.195,34.999 C197.549,34.406 197.197,33.573 196.671,32.884 C196.161,32.216 195.494,31.744 195.119,30.964 C194.625,29.935 194.653,28.712 193.816,27.848 C192.629,26.621 190.85,26.352 189.895,24.766 C189.041,23.347 189.728,21.343 188.569,20.104 C187.527,18.99 185.62,19.238 184.64,17.989 C184.289,17.542 184.06,17.015 183.693,16.576 C183.39,16.213 182.963,16.013 182.828,15.538 C182.431,14.135 183.106,12.613 181.711,11.527 C180.78,10.803 179.504,10.765 178.461,10.282 C177.426,9.802 176.858,8.73 175.779,8.258 C173.77,7.381 171.541,7.206 169.531,6.221 M169.181,6.147 C168.261,5.443 167.22,4.818 166.078,4.566 C164.655,4.251 163.176,4.431 161.742,4.088 C160.69,3.837 159.77,3.234 158.725,2.984 C157.244,2.63 155.718,2.619 154.236,2.204 C152.911,1.832 151.581,1.123 150.193,1.02 C147.959,0.855 145.691,1.896 143.412,1.851 C142.317,1.829 141.3,1.419 140.228,1.262 C139.347,1.134 138.45,1.244 137.564,1.155 C136.932,1.092 135.985,0.716 135.367,0.955 C134.115,1.438 133.677,3.621 133.168,4.675 C133.033,4.956 132.843,5.528 132.58,5.707 C132.407,5.824 132.564,5.24 132.404,5.106 C132.028,4.792 131.523,4.689 131.046,4.743 C129.358,4.931 128.419,6.298 127.561,7.614 M122.065,10.991 C119.894,18.609 117.801,9.651 115.607,12.162 M113.383,17.038 C112.253,16.242 114.143,15.616 114.803,14.859 C115.554,13.999 115.233,13.082 115.142,12.208 M113.175,17.142 C112.559,16.845 111.908,16.589 111.233,16.463 C109.335,16.108 107.517,16.72 106.184,18.106 C105.291,19.034 104.606,20.218 103.604,21.035 C102.406,22.014 100.903,22.314 99.513,22.916 C98.163,23.501 96.883,24.426 95.846,25.47 C93.792,27.539 93.431,30.473 92.098,32.932 M90.09,32.798 C89.262,34.889 88.556,36.993 87.56,39.009 C86.804,40.537 85.735,41.854 85.568,43.614 C85.222,47.285 87.293,49.963 88.22,53.204 C88.613,54.577 88.44,56.005 88.617,57.416 C88.794,58.825 89.473,60.007 89.737,61.376 C89.955,62.51 89.696,63.7 89.899,64.819 C90.188,66.414 91.287,67.648 91.579,69.251 C91.907,71.054 91.6,72.929 91.59,74.762 C91.571,78.17 91.73,81.636 92.269,84.964" stroke="#FF269E" stroke-linecap="round" stroke-linejoin="round"/>
    <path d="M86.444,41.477 C84.949,46.342 82.538,51.464 83.713,56.778 C84.536,60.499 86.98,63.119 88.798,66.176 C90.31,68.718 91.258,71.783 91.524,74.839 M88.295,66.268 C87.719,66.529 87.945,68.586 88.019,69.208 C88.19,70.665 89.01,71.967 89.629,73.263 C90.282,74.631 90.796,76.087 91.106,77.573 C91.913,81.45 92.271,85.428 92.369,89.376 C92.428,91.769 91.986,94.324 92.759,96.645 M98.561,86.808 C99.368,89.991 102.694,93.037 103.131,97.084 M99.354,92.936 C99.252,94.941 100.201,96.856 103.036,97.338 M171.088,115.017 C171.436,115.332 171.762,115.683 172.17,115.921 M169.522,115.348 C169.713,115.876 169.918,116.429 170.224,116.904 M167.844,115.873 C167.975,116.231 168.105,116.589 168.256,116.939 M165.186,115.916 C165.452,116.334 165.688,116.773 165.962,117.187 M163.382,115.466 C163.492,115.862 163.589,116.264 163.744,116.645 M160.663,114.866 C160.882,115.325 161.092,115.792 161.339,116.237 M115.697,115.422 C115.331,116.103 115.209,116.481 114.447,116.909 M117.185,115.914 C116.946,116.747 116.503,117.292 115.814,117.733 M118.641,116.778 C118.305,117.259 118.226,117.509 117.879,117.982 M120.691,116.788 C120.488,117.234 120.314,117.597 120.086,118.031 M123.156,115.932 C122.967,116.387 122.772,116.841 122.569,117.29 M125.111,115.924 C125.033,116.179 124.954,116.436 124.867,116.688 M127.339,115.196 C125.725,115.826 124.162,116.54 122.442,116.845 C119.288,117.405 116.319,116.323 113.67,114.695 M158.41,113.705 C160.075,114.605 161.452,115.777 163.311,116.308 C166.686,117.273 171.398,116.135 173.889,113.656 M113.806,115.178 C118.271,118.029 122.746,117.828 127.301,115.295 M92.953,97.343 C91.664,98.25 91.415,100.419 91.658,101.631 C92.073,103.7 93.663,106.58 94.42,108.51 C95.851,112.159 97.008,114.934 99.745,116.522" stroke="#FF269E" stroke-linecap="round" stroke-linejoin="round"/>
  </g>
</svg>
