<svg id="Light" xmlns="http://www.w3.org/2000/svg" viewBox="0 0 24 24"><defs><style>.cls-1{fill:none;stroke:currentColor;stroke-linecap:round;stroke-linejoin:round;}</style></defs><title>chef-gear-roller-whisk</title><rect class="cls-1" x="2.364" y="5.364" width="12" height="6" rx="1" ry="1" transform="translate(-3.464 8.364) rotate(-45)"/><path class="cls-1" d="M3.414,11.9.939,13.667a1.5,1.5,0,0,0,2.122,2.122l1.767-2.475"/><path class="cls-1" d="M11.9,3.414,13.667.939a1.5,1.5,0,0,1,2.122,2.122L13.314,4.828"/><path class="cls-1" d="M15.636,14.9c1.562,1.562-.206,5.862-1.768,7.424a4,4,0,0,1-5.657-5.656C9.774,15.109,14.074,13.342,15.636,14.9Z"/><path class="cls-1" d="M15.636,14.9c.586.586-1.973,4.095-3.535,5.657s-3.3,2.353-3.89,1.767S8.417,20,9.979,18.439,15.05,14.318,15.636,14.9Z"/><line class="cls-1" x1="15.636" y1="14.904" x2="18.111" y2="12.429"/><path class="cls-1" d="M23.061,7.479a1.5,1.5,0,0,1,0,2.122l-3.536,3.535a.5.5,0,0,1-.707,0L17.4,11.722a.5.5,0,0,1,0-.707l3.535-3.536A1.5,1.5,0,0,1,23.061,7.479Z"/></svg>