<?xml version="1.0" encoding="UTF-8"?>
<svg viewBox="0 0 430 84" version="1.1" xmlns="http://www.w3.org/2000/svg" xmlns:xlink="http://www.w3.org/1999/xlink">
    <!-- Generator: Sketch 64 (93537) - https://sketch.com -->
    <title>fieldset</title>
    <desc>Created with Sketch.</desc>
    <g id="Page-1" stroke="none" stroke-width="1" fill="none" fill-rule="evenodd">
        <g id="fieldset_outline" transform="translate(-112.000000, -93.000000)" fill-rule="nonzero">
            <g id="fieldset" transform="translate(112.534000, 93.253000)">
                <path d="M30.058,81.247 L30.058,41.584 L51.867,41.584 L51.867,81.247 L72.433,81.247 L72.433,25.425 L30.058,25.425 L30.058,22.6 C30.058,18.306 32.544,15.82 36.612,15.82 C38.42,15.82 40.115,16.272 41.471,16.837 L47.234,3.39 C43.505,1.017 38.872,-1.3500312e-13 33.674,-1.3500312e-13 C21.809,-1.3500312e-13 9.492,6.215 9.492,22.713 L9.492,25.425 L0,25.425 L0,41.584 L9.492,41.584 L9.492,81.247 L30.058,81.247 Z M62.15,21.47 C69.043,21.47 73.902,17.063 73.902,10.848 C73.902,4.52 69.043,0.113 62.15,0.113 C55.37,0.113 50.511,4.52 50.511,10.848 C50.511,17.063 55.37,21.47 62.15,21.47 Z M110.13,82.49 C120.074,82.49 128.888,79.439 135.781,73.563 L125.724,62.263 C121.43,65.201 116.345,66.557 111.26,66.557 C104.141,66.557 99.621,63.28 98.491,58.986 L137.702,58.986 C141.77,38.646 129.792,24.182 108.435,24.182 C90.129,24.182 77.699,36.047 77.699,53.562 C77.699,71.529 90.016,82.49 110.13,82.49 Z M118.944,48.703 L98.604,48.703 C98.83,43.166 102.898,39.776 109.113,39.776 C115.215,39.776 118.831,43.166 118.944,48.703 Z M163.986,81.247 L163.986,2.147 L143.42,2.147 L143.42,81.247 L163.986,81.247 Z M195.468,82.377 C202.587,82.377 208.576,79.778 213.322,74.693 L214.452,81.247 L232.306,81.247 L232.306,2.147 L211.74,2.147 L211.74,30.397 C207.333,26.329 201.909,24.295 195.468,24.295 C180.1,24.295 169.252,36.273 169.252,53.336 C169.252,70.399 180.1,82.377 195.468,82.377 Z M200.779,65.427 C194.112,65.427 189.592,60.568 189.592,53.336 C189.592,46.104 194.112,41.245 200.779,41.245 C207.446,41.245 211.966,46.104 211.966,53.336 C211.966,60.568 207.446,65.427 200.779,65.427 Z M293.432,82.829 C310.834,82.829 320.552,75.71 320.552,63.845 C320.552,52.545 310.947,46.33 295.579,45.426 C291.511,45.2 290.042,44.409 290.042,42.827 C290.042,40.793 292.189,40.002 296.483,40.002 C302.359,40.002 307.331,41.132 311.06,43.053 L318.631,29.606 C313.433,26.442 304.732,23.843 295.692,23.843 C279.646,23.843 269.928,31.188 269.928,42.601 C269.928,53.223 279.533,60.229 293.319,60.794 C298.63,61.02 300.325,62.037 300.325,63.845 C300.325,65.653 298.517,66.557 295.014,66.557 C288.347,66.557 280.324,64.862 274.674,61.811 L267.555,75.71 C273.77,79.891 282.81,82.829 293.432,82.829 Z M353.729,82.49 C363.673,82.49 372.487,79.439 379.38,73.563 L369.323,62.263 C365.029,65.201 359.944,66.557 354.859,66.557 C347.74,66.557 343.22,63.28 342.09,58.986 L381.301,58.986 C385.369,38.646 373.391,24.182 352.034,24.182 C333.728,24.182 321.298,36.047 321.298,53.562 C321.298,71.529 333.615,82.49 353.729,82.49 Z M362.543,48.703 L342.203,48.703 C342.429,43.166 346.497,39.776 352.712,39.776 C358.814,39.776 362.43,43.166 362.543,48.703 Z M412.557,82.603 C418.433,82.603 423.744,81.586 428.716,78.874 L424.083,63.958 C422.501,64.749 420.128,65.427 418.094,65.427 C414.93,65.427 412.444,63.958 412.444,60.003 L412.444,41.471 L425.213,41.471 L425.213,25.425 L412.444,25.425 L412.444,9.718 L391.991,11.978 L391.991,25.425 L383.064,25.425 L383.064,41.471 L391.991,41.471 L391.991,60.003 C391.991,77.518 401.37,82.603 412.557,82.603 Z" id="feldset" fill="currentColor"></path>
                <g id="colon" transform="translate(239.147000, 30.058000)" fill="#FF269E">
                    <path d="M11.526,21.47 C18.193,21.47 23.052,16.95 23.052,10.735 C23.052,4.52 18.193,-3.26849658e-13 11.526,-3.26849658e-13 C4.859,-3.26849658e-13 0,4.52 0,10.735 C0,16.95 4.859,21.47 11.526,21.47 Z" id="Path"></path>
                    <path d="M11.526,52.319 C18.193,52.319 23.052,47.799 23.052,41.584 C23.052,35.369 18.193,30.849 11.526,30.849 C4.859,30.849 0,35.369 0,41.584 C0,47.799 4.859,52.319 11.526,52.319 Z" id="Path"></path>
                </g>
            </g>
        </g>
    </g>
</svg>