<svg xmlns="http://www.w3.org/2000/svg" viewBox="0 0 430 84">
  <g fill="none" fill-rule="nonzero">
    <path fill="currentColor" d="M30.592 81.5V41.837h21.809V81.5h20.566V25.678H30.592v-2.825c0-4.294 2.486-6.78 6.554-6.78 1.808 0 3.503.452 4.859 1.017l5.763-13.447C44.039 1.27 39.406.253 34.208.253c-11.865 0-24.182 6.215-24.182 22.713v2.712H.534v16.159h9.492V81.5h20.566zm32.092-59.777c6.893 0 11.752-4.407 11.752-10.622 0-6.328-4.859-10.735-11.752-10.735-6.78 0-11.639 4.407-11.639 10.735 0 6.215 4.859 10.622 11.639 10.622zm47.98 61.02c9.944 0 18.758-3.051 25.651-8.927l-10.057-11.3c-4.294 2.938-9.379 4.294-14.464 4.294-7.119 0-11.639-3.277-12.769-7.571h39.211c4.068-20.34-7.91-34.804-29.267-34.804-18.306 0-30.736 11.865-30.736 29.38 0 17.967 12.317 28.928 32.431 28.928zm8.814-33.787h-20.34c.226-5.537 4.294-8.927 10.509-8.927 6.102 0 9.718 3.39 9.831 8.927zM164.52 81.5V2.4h-20.566v79.1h20.566zm31.482 1.13c7.119 0 13.108-2.599 17.854-7.684l1.13 6.554h17.854V2.4h-20.566v28.25c-4.407-4.068-9.831-6.102-16.272-6.102-15.368 0-26.216 11.978-26.216 29.041 0 17.063 10.848 29.041 26.216 29.041zm5.311-16.95c-6.667 0-11.187-4.859-11.187-12.091 0-7.232 4.52-12.091 11.187-12.091S212.5 46.357 212.5 53.589c0 7.232-4.52 12.091-11.187 12.091zm92.653 17.402c17.402 0 27.12-7.119 27.12-18.984 0-11.3-9.605-17.515-24.973-18.419-4.068-.226-5.537-1.017-5.537-2.599 0-2.034 2.147-2.825 6.441-2.825 5.876 0 10.848 1.13 14.577 3.051l7.571-13.447c-5.198-3.164-13.899-5.763-22.939-5.763-16.046 0-25.764 7.345-25.764 18.758 0 10.622 9.605 17.628 23.391 18.193 5.311.226 7.006 1.243 7.006 3.051s-1.808 2.712-5.311 2.712c-6.667 0-14.69-1.695-20.34-4.746l-7.119 13.899c6.215 4.181 15.255 7.119 25.877 7.119zm60.297-.339c9.944 0 18.758-3.051 25.651-8.927l-10.057-11.3c-4.294 2.938-9.379 4.294-14.464 4.294-7.119 0-11.639-3.277-12.769-7.571h39.211c4.068-20.34-7.91-34.804-29.267-34.804-18.306 0-30.736 11.865-30.736 29.38 0 17.967 12.317 28.928 32.431 28.928zm8.814-33.787h-20.34c.226-5.537 4.294-8.927 10.509-8.927 6.102 0 9.718 3.39 9.831 8.927zm50.014 33.9c5.876 0 11.187-1.017 16.159-3.729l-4.633-14.916c-1.582.791-3.955 1.469-5.989 1.469-3.164 0-5.65-1.469-5.65-5.424V41.724h12.769V25.678h-12.769V9.971l-20.453 2.26v13.447h-8.927v16.046h8.927v18.532c0 17.515 9.379 22.6 20.566 22.6z"/>
    <g fill="#FF269E">
      <path d="M251.207 51.781c6.667 0 11.526-4.52 11.526-10.735s-4.859-10.735-11.526-10.735-11.526 4.52-11.526 10.735 4.859 10.735 11.526 10.735zM251.207 82.63c6.667 0 11.526-4.52 11.526-10.735s-4.859-10.735-11.526-10.735-11.526 4.52-11.526 10.735 4.859 10.735 11.526 10.735z"/>
    </g>
  </g>
</svg>