<svg xmlns="http://www.w3.org/2000/svg" viewBox="0 0 24 24"><defs><style>.a{fill:none;stroke:currentColor;stroke-linecap:round;stroke-linejoin:round;}</style></defs><title>products-purse-1</title><path class="a" d="M20.918,12.027l1.136,4.828A5,5,0,0,1,17.187,23H6.813a5,5,0,0,1-4.867-6.145l1.136-4.828"/><path class="a" d="M10,14H6.722A4.115,4.115,0,0,1,2.5,10V6A1.029,1.029,0,0,1,3.556,5H20.444A1.029,1.029,0,0,1,21.5,6v4a4.115,4.115,0,0,1-4.222,4H14"/><circle class="a" cx="12" cy="14" r="2"/><path class="a" d="M10.5,1h3a2,2,0,0,1,2,2V5a0,0,0,0,1,0,0h-7a0,0,0,0,1,0,0V3A2,2,0,0,1,10.5,1Z"/></svg>