<svg viewBox="0 0 24 24" xmlns="http://www.w3.org/2000/svg" fill="currentColor" stroke="currentColor"><path d="M15.375 17.25a.375.375 0 1 1-.375.375.375.375 0 0 1 .375-.375m3.75 0a.375.375 0 1 1-.375.375.375.375 0 0 1 .375-.375m-3.75 3a.375.375 0 1 1-.375.375.375.375 0 0 1 .375-.375m3.75 0a.375.375 0 1 1-.375.375.375.375 0 0 1 .375-.375m1.125-6.5c0 .353-.214.5-.429.5h-5.142c-.215 0-.428-.164-.428-.518V11.75c0-.354.214-.5.429-.5h5.142c.215 0 .429.146.429.5z" fill="none" stroke-linecap="round" stroke-linejoin="round" stroke-width="1"/><path d="M11.25 8.25h12v15h-12zm-7.125-4.5a.375.375 0 1 1-.375.375.375.375 0 0 1 .375-.375" fill="none" stroke-linecap="round" stroke-linejoin="round" stroke-width="1"/><path d="M8.25 12.75h-6a1.5 1.5 0 0 1-1.5-1.5v-9a1.5 1.5 0 0 1 1.5-1.5h16.5a1.5 1.5 0 0 1 1.5 1.5v3" fill="none" stroke-linecap="round" stroke-linejoin="round" stroke-width="1"/><path d="M7.905 8.256a3 3 0 1 1 5.267-2.87" fill="none" stroke-linecap="round" stroke-linejoin="round" stroke-width="1"/></svg>