<svg viewBox="0 0 24 24" xmlns="http://www.w3.org/2000/svg" fill="currentColor" stroke="currentColor"><path d="M8.25 8.25a7.5 7.5 0 1 0 15 0 7.5 7.5 0 1 0-15 0zm-1.875 5.842a1.341 1.341 0 0 0 .843 1.245l2.064.826a1.342 1.342 0 0 1-.5 2.587H6.75m1.5 1.5v-1.5" fill="none" stroke-linecap="round" stroke-linejoin="round" stroke-width="1"/><path d="M5.281 8.867a7.5 7.5 0 1 0 9.853 9.852M17.25 5.25h-2.033a1.342 1.342 0 0 0-.5 2.587l2.064.826a1.342 1.342 0 0 1-.5 2.587H14.25m1.5-6v-1.5m0 9v-1.5" fill="none" stroke-linecap="round" stroke-linejoin="round" stroke-width="1"/></svg>