<svg viewBox="0 0 24 24" xmlns="http://www.w3.org/2000/svg" fill="currentColor" stroke="currentColor"><path d="M18.951 1.116h0a6.151 6.151 0 0 0-7.334 2.8L8.505 9.444A2.938 2.938 0 0 0 9 12.96L11.034 15a2.938 2.938 0 0 0 3.516.491l5.529-3.111a6.153 6.153 0 0 0 2.8-7.335h0a6.249 6.249 0 0 0-3.928-3.929z" fill="none" stroke-linecap="round" stroke-linejoin="round" stroke-width="1"/><path d="M8.478 18.636a3.426 3.426 0 0 0-.584-.456l3.161-3.161-2.079-2.08L5.814 16.1a3.292 3.292 0 0 0-.456-.584 2.768 2.768 0 0 0-3.886-.273 2.77 2.77 0 0 0 .272 3.887c.625.625 2.076 1.043 2.592.527-.516.516-.1 1.968.528 2.592a2.768 2.768 0 0 0 3.886.273 2.77 2.77 0 0 0-.272-3.886z" fill="none" stroke-linecap="round" stroke-linejoin="round" stroke-width="1"/></svg>