<svg viewBox="0 0 24 24" xmlns="http://www.w3.org/2000/svg" fill="currentColor" stroke="currentColor"><path d="M12 23.1c-.507-1.667-3.918-3.617-9.843-3.886A1.5 1.5 0 0 1 .75 17.708V4.357a1.5 1.5 0 0 1 1.607-1.5 25.04 25.04 0 0 1 2.966.324M12 23.1c.507-1.667 3.918-3.617 9.843-3.886a1.5 1.5 0 0 0 1.407-1.507V4.357a1.5 1.5 0 0 0-1.607-1.5 25.348 25.348 0 0 0-2.842.3M12 14.101v9" fill="none" stroke-linecap="round" stroke-linejoin="round" stroke-width="1"/><path d="M6.75 8.58a1.5 1.5 0 1 0 3 0 1.5 1.5 0 1 0-3 0zm6-1.5a1.5 1.5 0 1 0 3 0 1.5 1.5 0 1 0-3 0z" fill="none" stroke-linecap="round" stroke-linejoin="round" stroke-width="1"/><path d="M15.75 7.08V2.251A1.5 1.5 0 0 0 13.886.8l-3 .75A1.5 1.5 0 0 0 9.75 3v5.58" fill="none" stroke-linecap="round" stroke-linejoin="round" stroke-width="1"/></svg>