<svg viewBox="0 0 24 24" xmlns="http://www.w3.org/2000/svg" fill="currentColor" stroke="currentColor"><path d="M.75 3.75h22.5v19.5H.75zm0 6h22.5M6.75 6V.75M17.25 6V.75M5.625 13.5h0" fill="none" stroke-linecap="round" stroke-linejoin="round" stroke-width="1"/><path d="M5.625 13.5a.375.375 0 1 0 .375.375.375.375 0 0 0-.375-.375m0 5.25h0m0 0a.375.375 0 1 0 .375.375.375.375 0 0 0-.375-.375M12 13.5h0m0 0a.375.375 0 1 0 .375.375A.375.375 0 0 0 12 13.5m0 5.25h0m0 0a.375.375 0 1 0 .375.375.375.375 0 0 0-.375-.375m6.375-5.25h0m0 0a.375.375 0 1 0 .375.375.375.375 0 0 0-.375-.375m0 5.25h0m0 0a.375.375 0 1 0 .375.375.375.375 0 0 0-.375-.375" fill="none" stroke-linecap="round" stroke-linejoin="round" stroke-width="1"/></svg>