<svg viewBox="0 0 24 24" xmlns="http://www.w3.org/2000/svg" fill="currentColor" stroke="currentColor"><path d="M15.75 17a1.5 1.5 0 1 0 3 0 1.5 1.5 0 1 0-3 0zm-12 0a1.5 1.5 0 1 0 3 0 1.5 1.5 0 1 0-3 0zm12 0h-9" fill="none" stroke-linecap="round" stroke-linejoin="round" stroke-width="1"/><path d="M3.75 17h-1.5a1.5 1.5 0 0 1-1.5-1.5V14a3 3 0 0 1 3-3l1.835-3.671A1.5 1.5 0 0 1 6.927 6.5h7.9a1.5 1.5 0 0 1 1.342.829L18 11h2.25a3 3 0 0 1 3 3v1.5a1.5 1.5 0 0 1-1.5 1.5h-3M18 11H3.75" fill="none" stroke-linecap="round" stroke-linejoin="round" stroke-width="1"/></svg>