<svg viewBox="0 0 24 24" xmlns="http://www.w3.org/2000/svg" fill="currentColor" stroke="currentColor"><path d="m9.75 19.11-2.879 1.049a1.5 1.5 0 0 1-1.923-.9L.841 7.988a1.5 1.5 0 0 1 .9-1.923L8.25 3.692" fill="none" stroke-linecap="round" stroke-linejoin="round" stroke-width="1"/><path d="M18.75 12.75V2.25a1.5 1.5 0 0 0-1.5-1.5h-7.5a1.5 1.5 0 0 0-1.5 1.5v12a1.5 1.5 0 0 0 1.5 1.5h.75" fill="none" stroke-linecap="round" stroke-linejoin="round" stroke-width="1"/><path d="M11.25 8.25a2.25 2.25 0 1 0 4.5 0 2.25 2.25 0 1 0-4.5 0zm6.67 14.45a.75.75 0 0 1-1.435.04L13.3 14.252a.75.75 0 0 1 .949-.949l8.485 3.182a.75.75 0 0 1-.04 1.435l-3.909.868z" fill="none" stroke-linecap="round" stroke-linejoin="round" stroke-width="1"/></svg>