<svg viewBox="0 0 24 24" xmlns="http://www.w3.org/2000/svg" fill="currentColor" stroke="currentColor"><path d="M6 .75h1.5C9.985.75 12 3.515 12 6v.75m-6.75 4.5v3m-1.5-1.5h3m10.5 0a.375.375 0 0 1 .375.375m-.75 0a.375.375 0 0 1 .375-.375m0 .75a.375.375 0 0 1-.375-.375m.75 0a.375.375 0 0 1-.375.375m2.25-3a.375.375 0 0 1 .375.375m-.75 0a.375.375 0 0 1 .375-.375m0 .75a.375.375 0 0 1-.375-.375m.75 0a.375.375 0 0 1-.375.375" fill="none" stroke-linecap="round" stroke-linejoin="round" stroke-width="1"/><path d="M23.25 15v-3.75a4.5 4.5 0 0 0-4.5-4.5H5.25a4.5 4.5 0 0 0-4.5 4.5v8.622a3.332 3.332 0 0 0 2.374 3.273 3.2 3.2 0 0 0 3.727-1.767l2.217-4.128h5.864l2.155 3.991A3.336 3.336 0 0 0 19.5 23.2a3.2 3.2 0 0 0 3.752-3.147z" fill="none" stroke-linecap="round" stroke-linejoin="round" stroke-width="1"/></svg>