<svg viewBox="0 0 24 24" xmlns="http://www.w3.org/2000/svg" fill="currentColor" stroke="currentColor"><path d="M7.086 2.916a6.787 6.787 0 0 1 9.705-.125M20.054 13.5c-.687 5.15-3.21 9.75-8.054 9.75s-7.367-4.6-8.054-9.75" fill="none" stroke-linecap="round" stroke-linejoin="round" stroke-width="1"/><path d="M7.079 3.993A2.251 2.251 0 0 0 4.4 1.246a4.889 4.889 0 0 0-3.141 2.425c-1.123 1.872-.177 4.359.81 6.111a1.5 1.5 0 0 0 2.639-.032 29.515 29.515 0 0 0 2.371-5.757zm9.685 0a2.251 2.251 0 0 1 2.681-2.747 4.889 4.889 0 0 1 3.139 2.425c1.123 1.872.177 4.359-.81 6.111a1.5 1.5 0 0 1-2.639-.032 29.515 29.515 0 0 1-2.371-5.757zM9.75 16.5a2.25 1.5 0 1 0 4.5 0 2.25 1.5 0 1 0-4.5 0z" fill="none" stroke-linecap="round" stroke-linejoin="round" stroke-width="1"/><path d="M7.889 21.849C10.338 21.324 12 18 12 18s1.662 3.324 4.111 3.849M8.625 9.75a.375.375 0 0 1 .375.375m-.75 0a.375.375 0 0 1 .375-.375m0 .75a.375.375 0 0 1-.375-.375m.75 0a.375.375 0 0 1-.375.375m6.75-.75a.375.375 0 0 1 .375.375m-.75 0a.375.375 0 0 1 .375-.375m0 .75a.375.375 0 0 1-.375-.375m.75 0a.375.375 0 0 1-.375.375" fill="none" stroke-linecap="round" stroke-linejoin="round" stroke-width="1"/></svg>