<svg viewBox="0 0 24 24" xmlns="http://www.w3.org/2000/svg" fill="currentColor" stroke="currentColor"><path d="M8.25 9a2.122 2.122 0 0 1 0-3" fill="none" stroke-linecap="round" stroke-linejoin="round" stroke-width="1"/><path d="M22.005 16.754C17.225 22.374 6.092 21 1.592 18c-1.741-1.161-.433-5.838.8-9.19A16.115 16.115 0 0 1 5.1 4.085 3 3 0 0 1 7.415 3H10.5a3 3 0 0 1 0 6H8.25a5.787 5.787 0 0 0-1.5 4.5c1.781-1.852 4.109-2.75 6.75 0a4.875 4.875 0 1 1 8.5 3.254zM18.75 12v3m-1.5-1.5h3" fill="none" stroke-linecap="round" stroke-linejoin="round" stroke-width="1"/></svg>