<svg viewBox="0 0 24 24" xmlns="http://www.w3.org/2000/svg" fill="currentColor" stroke="currentColor"><path d="M12 13.875a.375.375 0 1 0 .375.375.374.374 0 0 0-.375-.375h0m3.75-4.125V7.5A3.76 3.76 0 0 0 12 3.75h0A3.761 3.761 0 0 0 8.25 7.5v2.25m-7.5-6v-1.5a1.5 1.5 0 0 1 1.5-1.5h1.5m19.5 3v-1.5a1.5 1.5 0 0 0-1.5-1.5h-1.5M.75 20.25v1.5a1.5 1.5 0 0 0 1.5 1.5h1.5m19.5-3v1.5a1.5 1.5 0 0 1-1.5 1.5h-1.5" fill="none" stroke-linecap="round" stroke-linejoin="round" stroke-width="1"/><path d="M6.75 9.75h10.5v9H6.75z" fill="none" stroke-linecap="round" stroke-linejoin="round" stroke-width="1"/></svg>