<svg viewBox="0 0 24 24" xmlns="http://www.w3.org/2000/svg" fill="currentColor" stroke="currentColor"><path d="M1.5.75h21v22.5h-21z" fill="none" stroke-linecap="round" stroke-linejoin="round" stroke-width="1"/><path d="M9 9a3 3 0 1 1 4 2.829 1.5 1.5 0 0 0-1 1.414v1.007m-.375 3.375a.375.375 0 1 0 .75 0 .375.375 0 1 0-.75 0zM5.25 4.125a.375.375 0 0 1 .375.375m-.75 0a.375.375 0 0 1 .375-.375m0 .75a.375.375 0 0 1-.375-.375m.75 0a.375.375 0 0 1-.375.375m13.5-.75a.375.375 0 0 1 .375.375m-.75 0a.375.375 0 0 1 .375-.375m0 .75a.375.375 0 0 1-.375-.375m.75 0a.375.375 0 0 1-.375.375m-13.5 14.25a.375.375 0 0 1 .375.375m-.75 0a.375.375 0 0 1 .375-.375m0 .75a.375.375 0 0 1-.375-.375m.75 0a.375.375 0 0 1-.375.375m13.5-.75a.375.375 0 0 1 .375.375m-.75 0a.375.375 0 0 1 .375-.375m0 .75a.375.375 0 0 1-.375-.375m.75 0a.375.375 0 0 1-.375.375" fill="none" stroke-linecap="round" stroke-linejoin="round" stroke-width="1"/></svg>