<svg viewBox="0 0 24 24" xmlns="http://www.w3.org/2000/svg" fill="currentColor" stroke="currentColor"><path d="M4.5 14.625a2.625 2.625 0 1 0 5.25 0 2.625 2.625 0 1 0-5.25 0zm9.75 0a2.625 2.625 0 1 0 5.25 0 2.625 2.625 0 1 0-5.25 0z" fill="none" stroke-linecap="round" stroke-linejoin="round" stroke-width="1"/><path d="M15.905 12.186 14.3 7.769A.75.75 0 0 1 15 6.75m-3.75 1.5h-3m3.489 3.611L9.419 8.25m-.007 5.088 5.617-3.563" fill="none" stroke-linecap="round" stroke-linejoin="round" stroke-width="1"/><path d="M.75 12a11.25 11.25 0 1 0 22.5 0 11.25 11.25 0 1 0-22.5 0z" fill="none" stroke-linecap="round" stroke-linejoin="round" stroke-width="1"/></svg>