<svg viewBox="0 0 24 24" xmlns="http://www.w3.org/2000/svg" fill="currentColor" stroke="currentColor"><path d="M5.25 10.511h5.25m-5.25 3.75h3m-3 3.75h3m1.5 5.25h-7.5a1.5 1.5 0 0 1-1.5-1.5V6.011a1.5 1.5 0 0 1 1.5-1.5H6a3.75 3.75 0 0 1 7.5 0h3.75a1.5 1.5 0 0 1 1.5 1.5v2.25" fill="none" stroke-linecap="round" stroke-linejoin="round" stroke-width="1"/><path d="M9.75 3.761a.375.375 0 1 1-.375.375.375.375 0 0 1 .375-.375m1.5 13.5a6 6 0 1 0 12 0 6 6 0 1 0-12 0z" fill="none" stroke-linecap="round" stroke-linejoin="round" stroke-width="1"/><path d="m19.924 15.516-2.905 3.874a.751.751 0 0 1-1.131.08l-1.5-1.5" fill="none" stroke-linecap="round" stroke-linejoin="round" stroke-width="1"/></svg>