<svg viewBox="0 0 24 24" xmlns="http://www.w3.org/2000/svg" fill="currentColor" stroke="currentColor"><path d="M12 12h11.25v11.25H12zM.75 5.25h4.5m13.5 0h-4.5m-9 18v-9m9-6V.75m-9 9v-9m-4.5 18h4.5m-4.5-4.5H9" fill="none" stroke-linecap="round" stroke-linejoin="round" stroke-width="1"/><path d="M18.75 8.25v-6a1.5 1.5 0 0 0-1.5-1.5h-15a1.5 1.5 0 0 0-1.5 1.5v19.5a1.5 1.5 0 0 0 1.5 1.5H9M.75 9.75h9m6 7.9v-2.1a.5.5 0 0 1 .752-.426l3.506 2.1a.5.5 0 0 1 0 .852l-3.506 2.1a.5.5 0 0 1-.752-.426z" fill="none" stroke-linecap="round" stroke-linejoin="round" stroke-width="1"/></svg>